G04 EAGLE Gerber RS-274X export*
G75*
%MOMM*%
%FSLAX34Y34*%
%LPD*%
%INBottom Copper*%
%IPPOS*%
%AMOC8*
5,1,8,0,0,1.08239X$1,22.5*%
G01*
%ADD10C,0.177800*%
%ADD11C,0.099059*%
%ADD12C,1.879600*%
%ADD13C,0.635000*%
%ADD14C,0.554000*%
%ADD15C,0.558800*%
%ADD16C,0.254000*%
%ADD17C,0.604000*%
%ADD18C,0.406400*%

G36*
X53303Y3054D02*
X53303Y3054D01*
X53343Y3051D01*
X53461Y3074D01*
X53579Y3089D01*
X53617Y3103D01*
X53656Y3111D01*
X53764Y3162D01*
X53875Y3206D01*
X53907Y3229D01*
X53943Y3246D01*
X54036Y3322D01*
X54133Y3392D01*
X54158Y3423D01*
X54189Y3448D01*
X54259Y3545D01*
X54335Y3637D01*
X54352Y3673D01*
X54376Y3706D01*
X54420Y3817D01*
X54471Y3925D01*
X54478Y3964D01*
X54493Y4001D01*
X54508Y4120D01*
X54531Y4237D01*
X54528Y4277D01*
X54533Y4317D01*
X54518Y4435D01*
X54511Y4555D01*
X54499Y4593D01*
X54494Y4632D01*
X54450Y4743D01*
X54413Y4857D01*
X54392Y4891D01*
X54377Y4928D01*
X54291Y5064D01*
X53289Y6443D01*
X52436Y8117D01*
X51855Y9904D01*
X51815Y10161D01*
X62230Y10161D01*
X62348Y10176D01*
X62467Y10183D01*
X62505Y10196D01*
X62545Y10201D01*
X62656Y10244D01*
X62769Y10281D01*
X62803Y10303D01*
X62841Y10318D01*
X62937Y10388D01*
X63038Y10451D01*
X63066Y10481D01*
X63098Y10504D01*
X63174Y10596D01*
X63256Y10683D01*
X63275Y10718D01*
X63301Y10749D01*
X63352Y10857D01*
X63409Y10961D01*
X63420Y11001D01*
X63437Y11037D01*
X63459Y11154D01*
X63489Y11269D01*
X63493Y11330D01*
X63497Y11350D01*
X63495Y11370D01*
X63499Y11430D01*
X63499Y12701D01*
X64770Y12701D01*
X64888Y12716D01*
X65007Y12723D01*
X65045Y12736D01*
X65085Y12741D01*
X65196Y12785D01*
X65309Y12821D01*
X65344Y12843D01*
X65381Y12858D01*
X65477Y12928D01*
X65578Y12991D01*
X65606Y13021D01*
X65639Y13045D01*
X65714Y13136D01*
X65796Y13223D01*
X65816Y13258D01*
X65841Y13290D01*
X65892Y13397D01*
X65950Y13502D01*
X65960Y13541D01*
X65977Y13577D01*
X65999Y13694D01*
X66029Y13809D01*
X66033Y13870D01*
X66037Y13890D01*
X66035Y13910D01*
X66039Y13970D01*
X66039Y24385D01*
X66296Y24345D01*
X68083Y23764D01*
X69757Y22911D01*
X71278Y21806D01*
X72606Y20478D01*
X73711Y18957D01*
X74564Y17283D01*
X75154Y15466D01*
X75179Y15380D01*
X75210Y15254D01*
X75224Y15227D01*
X75232Y15198D01*
X75298Y15087D01*
X75358Y14973D01*
X75379Y14950D01*
X75394Y14924D01*
X75485Y14833D01*
X75572Y14737D01*
X75597Y14721D01*
X75619Y14700D01*
X75730Y14634D01*
X75838Y14563D01*
X75867Y14553D01*
X75892Y14537D01*
X76016Y14501D01*
X76139Y14459D01*
X76169Y14457D01*
X76198Y14449D01*
X76327Y14444D01*
X76456Y14434D01*
X76486Y14439D01*
X76516Y14438D01*
X76642Y14466D01*
X76769Y14489D01*
X76797Y14501D01*
X76826Y14507D01*
X76941Y14566D01*
X77059Y14619D01*
X77083Y14638D01*
X77110Y14652D01*
X77206Y14737D01*
X77308Y14818D01*
X77326Y14842D01*
X77348Y14862D01*
X77421Y14968D01*
X77499Y15072D01*
X77518Y15110D01*
X77527Y15124D01*
X77535Y15145D01*
X77570Y15216D01*
X79209Y19175D01*
X82425Y22391D01*
X86626Y24131D01*
X91174Y24131D01*
X95375Y22391D01*
X98591Y19175D01*
X100331Y14974D01*
X100331Y10426D01*
X98591Y6225D01*
X97581Y5215D01*
X97496Y5106D01*
X97407Y4999D01*
X97398Y4980D01*
X97386Y4964D01*
X97331Y4837D01*
X97272Y4711D01*
X97268Y4691D01*
X97260Y4672D01*
X97238Y4534D01*
X97212Y4398D01*
X97213Y4378D01*
X97210Y4358D01*
X97223Y4219D01*
X97232Y4081D01*
X97238Y4062D01*
X97240Y4042D01*
X97287Y3910D01*
X97330Y3779D01*
X97340Y3761D01*
X97347Y3742D01*
X97425Y3627D01*
X97500Y3510D01*
X97514Y3496D01*
X97526Y3479D01*
X97630Y3387D01*
X97731Y3292D01*
X97749Y3282D01*
X97764Y3269D01*
X97888Y3206D01*
X98010Y3138D01*
X98029Y3133D01*
X98047Y3124D01*
X98183Y3094D01*
X98318Y3059D01*
X98346Y3057D01*
X98358Y3054D01*
X98378Y3055D01*
X98478Y3049D01*
X104722Y3049D01*
X104860Y3066D01*
X104998Y3079D01*
X105017Y3086D01*
X105037Y3089D01*
X105166Y3140D01*
X105297Y3187D01*
X105314Y3198D01*
X105333Y3206D01*
X105445Y3287D01*
X105560Y3365D01*
X105574Y3381D01*
X105590Y3392D01*
X105679Y3500D01*
X105771Y3604D01*
X105780Y3622D01*
X105793Y3637D01*
X105852Y3763D01*
X105915Y3887D01*
X105920Y3907D01*
X105928Y3925D01*
X105955Y4062D01*
X105985Y4197D01*
X105984Y4218D01*
X105988Y4237D01*
X105980Y4376D01*
X105975Y4515D01*
X105970Y4535D01*
X105968Y4555D01*
X105926Y4687D01*
X105887Y4821D01*
X105877Y4838D01*
X105870Y4857D01*
X105796Y4975D01*
X105725Y5095D01*
X105707Y5116D01*
X105700Y5126D01*
X105685Y5140D01*
X105619Y5215D01*
X104609Y6225D01*
X102869Y10426D01*
X102869Y14974D01*
X104609Y19175D01*
X107825Y22391D01*
X112026Y24131D01*
X116574Y24131D01*
X120775Y22391D01*
X123991Y19175D01*
X125731Y14974D01*
X125731Y10426D01*
X123991Y6225D01*
X122981Y5215D01*
X122896Y5106D01*
X122807Y4999D01*
X122798Y4980D01*
X122786Y4964D01*
X122731Y4837D01*
X122672Y4711D01*
X122668Y4691D01*
X122660Y4672D01*
X122638Y4534D01*
X122612Y4398D01*
X122613Y4378D01*
X122610Y4358D01*
X122623Y4219D01*
X122632Y4081D01*
X122638Y4062D01*
X122640Y4042D01*
X122687Y3910D01*
X122730Y3779D01*
X122740Y3761D01*
X122747Y3742D01*
X122825Y3627D01*
X122900Y3510D01*
X122914Y3496D01*
X122926Y3479D01*
X123030Y3387D01*
X123131Y3292D01*
X123149Y3282D01*
X123164Y3269D01*
X123288Y3206D01*
X123410Y3138D01*
X123429Y3133D01*
X123447Y3124D01*
X123583Y3094D01*
X123718Y3059D01*
X123746Y3057D01*
X123758Y3054D01*
X123778Y3055D01*
X123878Y3049D01*
X130122Y3049D01*
X130260Y3066D01*
X130398Y3079D01*
X130417Y3086D01*
X130437Y3089D01*
X130566Y3140D01*
X130697Y3187D01*
X130714Y3198D01*
X130733Y3206D01*
X130845Y3287D01*
X130960Y3365D01*
X130974Y3381D01*
X130990Y3392D01*
X131079Y3500D01*
X131171Y3604D01*
X131180Y3622D01*
X131193Y3637D01*
X131252Y3763D01*
X131315Y3887D01*
X131320Y3907D01*
X131328Y3925D01*
X131355Y4062D01*
X131385Y4197D01*
X131384Y4218D01*
X131388Y4237D01*
X131380Y4376D01*
X131375Y4515D01*
X131370Y4535D01*
X131368Y4555D01*
X131326Y4687D01*
X131287Y4821D01*
X131277Y4838D01*
X131270Y4857D01*
X131196Y4975D01*
X131125Y5095D01*
X131107Y5116D01*
X131100Y5126D01*
X131085Y5140D01*
X131019Y5215D01*
X130009Y6225D01*
X128269Y10426D01*
X128269Y14974D01*
X130009Y19175D01*
X133225Y22391D01*
X137426Y24131D01*
X141974Y24131D01*
X146175Y22391D01*
X149391Y19175D01*
X151131Y14974D01*
X151131Y10426D01*
X149391Y6225D01*
X148381Y5215D01*
X148296Y5106D01*
X148207Y4999D01*
X148198Y4980D01*
X148186Y4964D01*
X148131Y4837D01*
X148072Y4711D01*
X148068Y4691D01*
X148060Y4672D01*
X148038Y4534D01*
X148012Y4398D01*
X148013Y4378D01*
X148010Y4358D01*
X148023Y4219D01*
X148032Y4081D01*
X148038Y4062D01*
X148040Y4042D01*
X148087Y3910D01*
X148130Y3779D01*
X148140Y3761D01*
X148147Y3742D01*
X148225Y3627D01*
X148300Y3510D01*
X148314Y3496D01*
X148326Y3479D01*
X148430Y3387D01*
X148531Y3292D01*
X148549Y3282D01*
X148564Y3269D01*
X148688Y3206D01*
X148810Y3138D01*
X148829Y3133D01*
X148847Y3124D01*
X148983Y3094D01*
X149118Y3059D01*
X149146Y3057D01*
X149158Y3054D01*
X149178Y3055D01*
X149278Y3049D01*
X155522Y3049D01*
X155660Y3066D01*
X155798Y3079D01*
X155817Y3086D01*
X155837Y3089D01*
X155966Y3140D01*
X156097Y3187D01*
X156114Y3198D01*
X156133Y3206D01*
X156245Y3287D01*
X156360Y3365D01*
X156374Y3381D01*
X156390Y3392D01*
X156479Y3500D01*
X156571Y3604D01*
X156580Y3622D01*
X156593Y3637D01*
X156652Y3763D01*
X156715Y3887D01*
X156720Y3907D01*
X156728Y3925D01*
X156755Y4062D01*
X156785Y4197D01*
X156784Y4218D01*
X156788Y4237D01*
X156780Y4376D01*
X156775Y4515D01*
X156770Y4535D01*
X156768Y4555D01*
X156726Y4687D01*
X156687Y4821D01*
X156677Y4838D01*
X156670Y4857D01*
X156596Y4975D01*
X156525Y5095D01*
X156507Y5116D01*
X156500Y5126D01*
X156485Y5140D01*
X156419Y5215D01*
X155409Y6225D01*
X153669Y10426D01*
X153669Y14974D01*
X155409Y19175D01*
X158625Y22391D01*
X161014Y23380D01*
X161039Y23395D01*
X161067Y23404D01*
X161177Y23473D01*
X161290Y23537D01*
X161311Y23558D01*
X161336Y23574D01*
X161425Y23668D01*
X161518Y23759D01*
X161534Y23784D01*
X161554Y23805D01*
X161617Y23919D01*
X161685Y24030D01*
X161693Y24058D01*
X161708Y24084D01*
X161740Y24210D01*
X161778Y24334D01*
X161780Y24363D01*
X161787Y24392D01*
X161797Y24553D01*
X161797Y25400D01*
X161782Y25518D01*
X161775Y25637D01*
X161762Y25675D01*
X161757Y25716D01*
X161714Y25826D01*
X161677Y25939D01*
X161655Y25974D01*
X161640Y26011D01*
X161571Y26107D01*
X161507Y26208D01*
X161477Y26236D01*
X161454Y26269D01*
X161362Y26345D01*
X161275Y26426D01*
X161240Y26446D01*
X161209Y26471D01*
X161101Y26522D01*
X160997Y26580D01*
X160957Y26590D01*
X160921Y26607D01*
X160804Y26629D01*
X160689Y26659D01*
X160629Y26663D01*
X160609Y26667D01*
X160588Y26665D01*
X160528Y26669D01*
X79961Y26669D01*
X79863Y26657D01*
X79764Y26654D01*
X79706Y26637D01*
X79646Y26629D01*
X79553Y26593D01*
X79458Y26565D01*
X79406Y26535D01*
X79350Y26512D01*
X79270Y26454D01*
X79184Y26404D01*
X79109Y26338D01*
X79093Y26326D01*
X79085Y26316D01*
X79064Y26298D01*
X78667Y25900D01*
X76901Y25169D01*
X74991Y25169D01*
X73225Y25900D01*
X71874Y27251D01*
X71143Y29017D01*
X71143Y30927D01*
X71874Y32693D01*
X73225Y34044D01*
X74991Y34775D01*
X76901Y34775D01*
X78667Y34044D01*
X79064Y33646D01*
X79142Y33586D01*
X79214Y33518D01*
X79267Y33489D01*
X79315Y33452D01*
X79406Y33412D01*
X79492Y33364D01*
X79551Y33349D01*
X79607Y33325D01*
X79705Y33310D01*
X79800Y33285D01*
X79900Y33279D01*
X79921Y33275D01*
X79933Y33277D01*
X79961Y33275D01*
X164436Y33275D01*
X168403Y29308D01*
X168403Y24553D01*
X168406Y24523D01*
X168404Y24494D01*
X168426Y24365D01*
X168443Y24237D01*
X168453Y24210D01*
X168458Y24181D01*
X168512Y24062D01*
X168560Y23941D01*
X168577Y23917D01*
X168589Y23891D01*
X168670Y23789D01*
X168746Y23684D01*
X168769Y23665D01*
X168788Y23642D01*
X168891Y23564D01*
X168991Y23481D01*
X169018Y23469D01*
X169042Y23451D01*
X169186Y23380D01*
X171575Y22391D01*
X174791Y19175D01*
X176531Y14974D01*
X176531Y10426D01*
X174791Y6225D01*
X173781Y5215D01*
X173696Y5106D01*
X173607Y4999D01*
X173598Y4980D01*
X173586Y4964D01*
X173531Y4837D01*
X173472Y4711D01*
X173468Y4691D01*
X173460Y4672D01*
X173438Y4534D01*
X173412Y4398D01*
X173413Y4378D01*
X173410Y4358D01*
X173423Y4219D01*
X173432Y4081D01*
X173438Y4062D01*
X173440Y4042D01*
X173487Y3910D01*
X173530Y3779D01*
X173540Y3761D01*
X173547Y3742D01*
X173625Y3627D01*
X173700Y3510D01*
X173714Y3496D01*
X173726Y3479D01*
X173830Y3387D01*
X173931Y3292D01*
X173949Y3282D01*
X173964Y3269D01*
X174088Y3206D01*
X174210Y3138D01*
X174229Y3133D01*
X174247Y3124D01*
X174383Y3094D01*
X174518Y3059D01*
X174546Y3057D01*
X174558Y3054D01*
X174578Y3055D01*
X174678Y3049D01*
X180922Y3049D01*
X181060Y3066D01*
X181198Y3079D01*
X181217Y3086D01*
X181237Y3089D01*
X181366Y3140D01*
X181497Y3187D01*
X181514Y3198D01*
X181533Y3206D01*
X181645Y3287D01*
X181760Y3365D01*
X181774Y3381D01*
X181790Y3392D01*
X181879Y3500D01*
X181971Y3604D01*
X181980Y3622D01*
X181993Y3637D01*
X182052Y3763D01*
X182115Y3887D01*
X182120Y3907D01*
X182128Y3925D01*
X182155Y4062D01*
X182185Y4197D01*
X182184Y4218D01*
X182188Y4237D01*
X182180Y4376D01*
X182175Y4515D01*
X182170Y4535D01*
X182168Y4555D01*
X182126Y4687D01*
X182087Y4821D01*
X182077Y4838D01*
X182070Y4857D01*
X181996Y4975D01*
X181925Y5095D01*
X181907Y5116D01*
X181900Y5126D01*
X181885Y5140D01*
X181819Y5215D01*
X180809Y6225D01*
X179069Y10426D01*
X179069Y14974D01*
X180809Y19175D01*
X184025Y22391D01*
X188226Y24131D01*
X192774Y24131D01*
X196975Y22391D01*
X200191Y19175D01*
X201931Y14974D01*
X201931Y10426D01*
X200191Y6225D01*
X199181Y5215D01*
X199096Y5106D01*
X199007Y4999D01*
X198998Y4980D01*
X198986Y4964D01*
X198931Y4837D01*
X198872Y4711D01*
X198868Y4691D01*
X198860Y4672D01*
X198838Y4534D01*
X198812Y4398D01*
X198813Y4378D01*
X198810Y4358D01*
X198823Y4219D01*
X198832Y4081D01*
X198838Y4062D01*
X198840Y4042D01*
X198887Y3910D01*
X198930Y3779D01*
X198940Y3761D01*
X198947Y3742D01*
X199025Y3627D01*
X199100Y3510D01*
X199114Y3496D01*
X199126Y3479D01*
X199230Y3387D01*
X199331Y3292D01*
X199349Y3282D01*
X199364Y3269D01*
X199488Y3206D01*
X199610Y3138D01*
X199629Y3133D01*
X199647Y3124D01*
X199783Y3094D01*
X199918Y3059D01*
X199946Y3057D01*
X199958Y3054D01*
X199978Y3055D01*
X200078Y3049D01*
X219684Y3049D01*
X219781Y3061D01*
X219878Y3064D01*
X219938Y3081D01*
X220000Y3089D01*
X220090Y3124D01*
X220184Y3151D01*
X220238Y3183D01*
X220296Y3206D01*
X220374Y3263D01*
X220458Y3312D01*
X220502Y3356D01*
X220553Y3392D01*
X220615Y3468D01*
X220684Y3536D01*
X220716Y3589D01*
X220756Y3637D01*
X220797Y3725D01*
X220847Y3809D01*
X220865Y3869D01*
X220891Y3925D01*
X220909Y4021D01*
X220937Y4114D01*
X220939Y4176D01*
X220951Y4237D01*
X220945Y4335D01*
X220948Y4432D01*
X220935Y4493D01*
X220931Y4555D01*
X220901Y4648D01*
X220880Y4743D01*
X220852Y4798D01*
X220833Y4857D01*
X220781Y4940D01*
X220737Y5027D01*
X220696Y5073D01*
X220663Y5126D01*
X220592Y5193D01*
X220528Y5266D01*
X220477Y5301D01*
X220431Y5344D01*
X220346Y5391D01*
X220266Y5446D01*
X220170Y5488D01*
X220153Y5498D01*
X220142Y5500D01*
X220118Y5511D01*
X217638Y6413D01*
X211805Y11308D01*
X207998Y17902D01*
X206676Y25400D01*
X207998Y32898D01*
X211805Y39492D01*
X217638Y44387D01*
X224793Y46991D01*
X232407Y46991D01*
X239562Y44387D01*
X245395Y39492D01*
X248583Y33970D01*
X248671Y33854D01*
X248756Y33736D01*
X248767Y33728D01*
X248775Y33717D01*
X248889Y33627D01*
X249001Y33533D01*
X249014Y33528D01*
X249024Y33519D01*
X249158Y33460D01*
X249289Y33398D01*
X249302Y33395D01*
X249315Y33390D01*
X249459Y33365D01*
X249602Y33338D01*
X249615Y33339D01*
X249628Y33337D01*
X249774Y33349D01*
X249919Y33358D01*
X249932Y33362D01*
X249945Y33363D01*
X250083Y33411D01*
X250221Y33456D01*
X250233Y33463D01*
X250246Y33468D01*
X250367Y33548D01*
X250490Y33626D01*
X250499Y33636D01*
X250511Y33643D01*
X250608Y33751D01*
X250708Y33858D01*
X250715Y33870D01*
X250724Y33880D01*
X250791Y34008D01*
X250862Y34136D01*
X250865Y34149D01*
X250871Y34161D01*
X250905Y34303D01*
X250941Y34444D01*
X250942Y34462D01*
X250944Y34471D01*
X250944Y34488D01*
X250951Y34605D01*
X250951Y219395D01*
X250933Y219540D01*
X250918Y219685D01*
X250913Y219697D01*
X250911Y219711D01*
X250858Y219846D01*
X250807Y219983D01*
X250799Y219994D01*
X250794Y220006D01*
X250709Y220124D01*
X250626Y220244D01*
X250615Y220253D01*
X250608Y220264D01*
X250496Y220357D01*
X250385Y220452D01*
X250373Y220458D01*
X250363Y220467D01*
X250231Y220528D01*
X250100Y220594D01*
X250087Y220596D01*
X250075Y220602D01*
X249933Y220629D01*
X249789Y220660D01*
X249776Y220659D01*
X249763Y220662D01*
X249618Y220653D01*
X249472Y220647D01*
X249459Y220643D01*
X249445Y220642D01*
X249307Y220597D01*
X249167Y220555D01*
X249155Y220548D01*
X249143Y220544D01*
X249020Y220466D01*
X248895Y220391D01*
X248885Y220381D01*
X248874Y220374D01*
X248774Y220268D01*
X248672Y220164D01*
X248662Y220149D01*
X248656Y220142D01*
X248648Y220127D01*
X248583Y220030D01*
X245395Y214508D01*
X239562Y209613D01*
X232407Y207009D01*
X224793Y207009D01*
X217638Y209613D01*
X211805Y214508D01*
X207998Y221102D01*
X206676Y228600D01*
X207998Y236098D01*
X211805Y242692D01*
X217638Y247587D01*
X220118Y248489D01*
X220205Y248534D01*
X220296Y248570D01*
X220346Y248606D01*
X220401Y248635D01*
X220474Y248699D01*
X220553Y248756D01*
X220593Y248804D01*
X220639Y248846D01*
X220694Y248926D01*
X220756Y249001D01*
X220782Y249058D01*
X220817Y249109D01*
X220850Y249201D01*
X220891Y249289D01*
X220903Y249350D01*
X220924Y249409D01*
X220933Y249506D01*
X220951Y249602D01*
X220947Y249664D01*
X220953Y249726D01*
X220937Y249822D01*
X220931Y249919D01*
X220912Y249978D01*
X220902Y250040D01*
X220863Y250129D01*
X220833Y250221D01*
X220800Y250274D01*
X220775Y250331D01*
X220715Y250408D01*
X220663Y250490D01*
X220618Y250533D01*
X220579Y250582D01*
X220502Y250641D01*
X220431Y250708D01*
X220377Y250738D01*
X220328Y250776D01*
X220238Y250815D01*
X220153Y250862D01*
X220093Y250877D01*
X220035Y250902D01*
X219939Y250917D01*
X219845Y250941D01*
X219741Y250948D01*
X219721Y250951D01*
X219710Y250950D01*
X219684Y250951D01*
X200078Y250951D01*
X199940Y250934D01*
X199802Y250921D01*
X199783Y250914D01*
X199763Y250911D01*
X199634Y250860D01*
X199503Y250813D01*
X199486Y250802D01*
X199467Y250794D01*
X199355Y250713D01*
X199240Y250635D01*
X199226Y250619D01*
X199210Y250608D01*
X199121Y250500D01*
X199029Y250396D01*
X199020Y250378D01*
X199007Y250363D01*
X198948Y250237D01*
X198885Y250113D01*
X198880Y250093D01*
X198872Y250075D01*
X198845Y249938D01*
X198815Y249803D01*
X198816Y249782D01*
X198812Y249763D01*
X198820Y249624D01*
X198825Y249485D01*
X198830Y249465D01*
X198832Y249445D01*
X198874Y249313D01*
X198913Y249179D01*
X198923Y249162D01*
X198930Y249143D01*
X199004Y249025D01*
X199075Y248905D01*
X199093Y248884D01*
X199100Y248874D01*
X199115Y248860D01*
X199181Y248785D01*
X200191Y247775D01*
X201931Y243574D01*
X201931Y239026D01*
X200191Y234825D01*
X196975Y231609D01*
X192774Y229869D01*
X188226Y229869D01*
X184025Y231609D01*
X180809Y234825D01*
X179069Y239026D01*
X179069Y243574D01*
X180809Y247775D01*
X181819Y248785D01*
X181904Y248894D01*
X181993Y249001D01*
X182002Y249020D01*
X182014Y249036D01*
X182069Y249163D01*
X182128Y249289D01*
X182132Y249309D01*
X182140Y249328D01*
X182162Y249466D01*
X182188Y249602D01*
X182187Y249622D01*
X182190Y249642D01*
X182177Y249781D01*
X182168Y249919D01*
X182162Y249938D01*
X182160Y249958D01*
X182113Y250090D01*
X182070Y250221D01*
X182060Y250239D01*
X182053Y250258D01*
X181975Y250373D01*
X181900Y250490D01*
X181886Y250504D01*
X181874Y250521D01*
X181770Y250613D01*
X181669Y250708D01*
X181651Y250718D01*
X181636Y250731D01*
X181512Y250794D01*
X181390Y250862D01*
X181371Y250867D01*
X181353Y250876D01*
X181217Y250906D01*
X181082Y250941D01*
X181054Y250943D01*
X181042Y250946D01*
X181022Y250945D01*
X180922Y250951D01*
X174678Y250951D01*
X174540Y250934D01*
X174402Y250921D01*
X174383Y250914D01*
X174363Y250911D01*
X174234Y250860D01*
X174103Y250813D01*
X174086Y250802D01*
X174067Y250794D01*
X173955Y250713D01*
X173840Y250635D01*
X173826Y250619D01*
X173810Y250608D01*
X173721Y250500D01*
X173629Y250396D01*
X173620Y250378D01*
X173607Y250363D01*
X173548Y250237D01*
X173485Y250113D01*
X173480Y250093D01*
X173472Y250075D01*
X173445Y249938D01*
X173415Y249803D01*
X173416Y249782D01*
X173412Y249763D01*
X173420Y249624D01*
X173425Y249485D01*
X173430Y249465D01*
X173432Y249445D01*
X173474Y249313D01*
X173513Y249179D01*
X173523Y249162D01*
X173530Y249143D01*
X173604Y249025D01*
X173675Y248905D01*
X173693Y248884D01*
X173700Y248874D01*
X173715Y248860D01*
X173781Y248785D01*
X174791Y247775D01*
X176531Y243574D01*
X176531Y239026D01*
X175541Y236638D01*
X175534Y236609D01*
X175520Y236583D01*
X175492Y236456D01*
X175457Y236331D01*
X175457Y236301D01*
X175450Y236272D01*
X175454Y236143D01*
X175452Y236013D01*
X175459Y235984D01*
X175460Y235955D01*
X175496Y235830D01*
X175526Y235704D01*
X175540Y235677D01*
X175548Y235649D01*
X175614Y235537D01*
X175675Y235422D01*
X175695Y235401D01*
X175710Y235375D01*
X175816Y235254D01*
X177526Y233544D01*
X179833Y231238D01*
X179833Y212329D01*
X179845Y212231D01*
X179848Y212132D01*
X179865Y212074D01*
X179873Y212014D01*
X179909Y211921D01*
X179937Y211826D01*
X179967Y211774D01*
X179990Y211718D01*
X180048Y211638D01*
X180098Y211552D01*
X180164Y211477D01*
X180176Y211460D01*
X180186Y211453D01*
X180204Y211432D01*
X180622Y211014D01*
X181357Y209240D01*
X181357Y207320D01*
X180622Y205546D01*
X179264Y204188D01*
X177490Y203453D01*
X175570Y203453D01*
X173796Y204188D01*
X172438Y205546D01*
X171703Y207320D01*
X171703Y209240D01*
X172438Y211014D01*
X172856Y211432D01*
X172916Y211510D01*
X172984Y211582D01*
X173013Y211635D01*
X173050Y211683D01*
X173090Y211774D01*
X173138Y211860D01*
X173153Y211919D01*
X173177Y211975D01*
X173192Y212073D01*
X173217Y212168D01*
X173223Y212268D01*
X173227Y212289D01*
X173225Y212301D01*
X173227Y212329D01*
X173227Y227976D01*
X173215Y228074D01*
X173212Y228173D01*
X173195Y228232D01*
X173187Y228292D01*
X173151Y228384D01*
X173123Y228479D01*
X173093Y228531D01*
X173070Y228587D01*
X173012Y228667D01*
X172962Y228753D01*
X172896Y228828D01*
X172884Y228845D01*
X172874Y228853D01*
X172856Y228874D01*
X171146Y230584D01*
X171122Y230602D01*
X171103Y230624D01*
X170997Y230699D01*
X170894Y230779D01*
X170867Y230790D01*
X170843Y230807D01*
X170722Y230853D01*
X170603Y230905D01*
X170573Y230909D01*
X170546Y230920D01*
X170417Y230934D01*
X170288Y230955D01*
X170259Y230952D01*
X170230Y230955D01*
X170101Y230937D01*
X169972Y230925D01*
X169944Y230915D01*
X169915Y230911D01*
X169762Y230859D01*
X167374Y229869D01*
X162826Y229869D01*
X158625Y231609D01*
X155409Y234825D01*
X153669Y239026D01*
X153669Y243574D01*
X155409Y247775D01*
X156419Y248785D01*
X156504Y248894D01*
X156593Y249001D01*
X156602Y249020D01*
X156614Y249036D01*
X156669Y249163D01*
X156728Y249289D01*
X156732Y249309D01*
X156740Y249328D01*
X156762Y249466D01*
X156788Y249602D01*
X156787Y249622D01*
X156790Y249642D01*
X156777Y249781D01*
X156768Y249919D01*
X156762Y249938D01*
X156760Y249958D01*
X156713Y250090D01*
X156670Y250221D01*
X156660Y250239D01*
X156653Y250258D01*
X156575Y250373D01*
X156500Y250490D01*
X156486Y250504D01*
X156474Y250521D01*
X156370Y250613D01*
X156269Y250708D01*
X156251Y250718D01*
X156236Y250731D01*
X156112Y250794D01*
X155990Y250862D01*
X155971Y250867D01*
X155953Y250876D01*
X155817Y250906D01*
X155682Y250941D01*
X155654Y250943D01*
X155642Y250946D01*
X155622Y250945D01*
X155522Y250951D01*
X149278Y250951D01*
X149140Y250934D01*
X149002Y250921D01*
X148983Y250914D01*
X148963Y250911D01*
X148834Y250860D01*
X148703Y250813D01*
X148686Y250802D01*
X148667Y250794D01*
X148555Y250713D01*
X148440Y250635D01*
X148426Y250619D01*
X148410Y250608D01*
X148321Y250500D01*
X148229Y250396D01*
X148220Y250378D01*
X148207Y250363D01*
X148148Y250237D01*
X148085Y250113D01*
X148080Y250093D01*
X148072Y250075D01*
X148045Y249938D01*
X148015Y249803D01*
X148016Y249782D01*
X148012Y249763D01*
X148020Y249624D01*
X148025Y249485D01*
X148030Y249465D01*
X148032Y249445D01*
X148074Y249313D01*
X148113Y249179D01*
X148123Y249162D01*
X148130Y249143D01*
X148204Y249025D01*
X148275Y248905D01*
X148293Y248884D01*
X148300Y248874D01*
X148315Y248860D01*
X148381Y248785D01*
X149391Y247775D01*
X151131Y243574D01*
X151131Y239026D01*
X149391Y234825D01*
X146175Y231609D01*
X141974Y229869D01*
X137276Y229869D01*
X137178Y229857D01*
X137079Y229854D01*
X137020Y229837D01*
X136960Y229829D01*
X136868Y229793D01*
X136773Y229765D01*
X136721Y229735D01*
X136665Y229712D01*
X136585Y229654D01*
X136499Y229604D01*
X136424Y229538D01*
X136407Y229526D01*
X136399Y229516D01*
X136378Y229498D01*
X128134Y221254D01*
X128074Y221175D01*
X128006Y221103D01*
X127977Y221050D01*
X127940Y221002D01*
X127900Y220911D01*
X127852Y220825D01*
X127837Y220766D01*
X127813Y220711D01*
X127798Y220613D01*
X127773Y220517D01*
X127767Y220417D01*
X127763Y220397D01*
X127765Y220384D01*
X127763Y220356D01*
X127763Y214869D01*
X127775Y214771D01*
X127778Y214672D01*
X127795Y214614D01*
X127803Y214554D01*
X127839Y214461D01*
X127867Y214366D01*
X127897Y214314D01*
X127920Y214258D01*
X127978Y214178D01*
X128028Y214092D01*
X128094Y214017D01*
X128106Y214000D01*
X128116Y213993D01*
X128134Y213972D01*
X128552Y213554D01*
X129287Y211780D01*
X129287Y209860D01*
X128552Y208086D01*
X127194Y206728D01*
X125420Y205993D01*
X123500Y205993D01*
X121726Y206728D01*
X120368Y208086D01*
X119633Y209860D01*
X119633Y211780D01*
X120368Y213554D01*
X120786Y213972D01*
X120846Y214050D01*
X120914Y214122D01*
X120943Y214175D01*
X120980Y214223D01*
X121020Y214314D01*
X121068Y214400D01*
X121083Y214459D01*
X121107Y214515D01*
X121122Y214613D01*
X121147Y214708D01*
X121153Y214808D01*
X121157Y214829D01*
X121155Y214841D01*
X121157Y214869D01*
X121157Y223618D01*
X123463Y225924D01*
X123464Y225924D01*
X130289Y232750D01*
X130362Y232844D01*
X130441Y232933D01*
X130460Y232969D01*
X130484Y233001D01*
X130532Y233111D01*
X130586Y233217D01*
X130595Y233256D01*
X130611Y233293D01*
X130629Y233411D01*
X130655Y233527D01*
X130654Y233567D01*
X130661Y233607D01*
X130649Y233726D01*
X130646Y233845D01*
X130635Y233884D01*
X130631Y233924D01*
X130590Y234036D01*
X130557Y234150D01*
X130537Y234185D01*
X130523Y234223D01*
X130456Y234322D01*
X130396Y234424D01*
X130356Y234470D01*
X130345Y234486D01*
X130329Y234500D01*
X130289Y234545D01*
X130009Y234825D01*
X128269Y239026D01*
X128269Y243574D01*
X130009Y247775D01*
X131019Y248785D01*
X131104Y248894D01*
X131193Y249001D01*
X131202Y249020D01*
X131214Y249036D01*
X131269Y249163D01*
X131328Y249289D01*
X131332Y249309D01*
X131340Y249328D01*
X131362Y249466D01*
X131388Y249602D01*
X131387Y249622D01*
X131390Y249642D01*
X131377Y249781D01*
X131368Y249919D01*
X131362Y249938D01*
X131360Y249958D01*
X131313Y250090D01*
X131270Y250221D01*
X131260Y250239D01*
X131253Y250258D01*
X131175Y250373D01*
X131100Y250490D01*
X131086Y250504D01*
X131074Y250521D01*
X130970Y250613D01*
X130869Y250708D01*
X130851Y250718D01*
X130836Y250731D01*
X130712Y250794D01*
X130590Y250862D01*
X130571Y250867D01*
X130553Y250876D01*
X130417Y250906D01*
X130282Y250941D01*
X130254Y250943D01*
X130242Y250946D01*
X130222Y250945D01*
X130122Y250951D01*
X123878Y250951D01*
X123740Y250934D01*
X123602Y250921D01*
X123583Y250914D01*
X123563Y250911D01*
X123434Y250860D01*
X123303Y250813D01*
X123286Y250802D01*
X123267Y250794D01*
X123155Y250713D01*
X123040Y250635D01*
X123026Y250619D01*
X123010Y250608D01*
X122921Y250500D01*
X122829Y250396D01*
X122820Y250378D01*
X122807Y250363D01*
X122748Y250237D01*
X122685Y250113D01*
X122680Y250093D01*
X122672Y250075D01*
X122645Y249938D01*
X122615Y249803D01*
X122616Y249782D01*
X122612Y249763D01*
X122620Y249624D01*
X122625Y249485D01*
X122630Y249465D01*
X122632Y249445D01*
X122674Y249313D01*
X122713Y249179D01*
X122723Y249162D01*
X122730Y249143D01*
X122804Y249025D01*
X122875Y248905D01*
X122893Y248884D01*
X122900Y248874D01*
X122915Y248860D01*
X122981Y248785D01*
X123991Y247775D01*
X125731Y243574D01*
X125731Y239026D01*
X123991Y234825D01*
X120775Y231609D01*
X116574Y229869D01*
X112026Y229869D01*
X107825Y231609D01*
X104609Y234825D01*
X102869Y239026D01*
X102869Y243574D01*
X104609Y247775D01*
X105619Y248785D01*
X105704Y248894D01*
X105793Y249001D01*
X105802Y249020D01*
X105814Y249036D01*
X105869Y249163D01*
X105928Y249289D01*
X105932Y249309D01*
X105940Y249328D01*
X105962Y249466D01*
X105988Y249602D01*
X105987Y249622D01*
X105990Y249642D01*
X105977Y249781D01*
X105968Y249919D01*
X105962Y249938D01*
X105960Y249958D01*
X105913Y250090D01*
X105870Y250221D01*
X105860Y250239D01*
X105853Y250258D01*
X105775Y250373D01*
X105700Y250490D01*
X105686Y250504D01*
X105674Y250521D01*
X105570Y250613D01*
X105469Y250708D01*
X105451Y250718D01*
X105436Y250731D01*
X105312Y250794D01*
X105190Y250862D01*
X105171Y250867D01*
X105153Y250876D01*
X105017Y250906D01*
X104882Y250941D01*
X104854Y250943D01*
X104842Y250946D01*
X104822Y250945D01*
X104722Y250951D01*
X98478Y250951D01*
X98340Y250934D01*
X98202Y250921D01*
X98183Y250914D01*
X98163Y250911D01*
X98034Y250860D01*
X97903Y250813D01*
X97886Y250802D01*
X97867Y250794D01*
X97755Y250713D01*
X97640Y250635D01*
X97626Y250619D01*
X97610Y250608D01*
X97521Y250500D01*
X97429Y250396D01*
X97420Y250378D01*
X97407Y250363D01*
X97348Y250237D01*
X97285Y250113D01*
X97280Y250093D01*
X97272Y250075D01*
X97245Y249938D01*
X97215Y249803D01*
X97216Y249782D01*
X97212Y249763D01*
X97220Y249624D01*
X97225Y249485D01*
X97230Y249465D01*
X97232Y249445D01*
X97274Y249313D01*
X97313Y249179D01*
X97323Y249162D01*
X97330Y249143D01*
X97404Y249025D01*
X97475Y248905D01*
X97493Y248884D01*
X97500Y248874D01*
X97515Y248860D01*
X97581Y248785D01*
X98591Y247775D01*
X100331Y243574D01*
X100331Y239026D01*
X98591Y234825D01*
X95375Y231609D01*
X91174Y229869D01*
X86626Y229869D01*
X82425Y231609D01*
X79209Y234825D01*
X77469Y239026D01*
X77469Y243574D01*
X79209Y247775D01*
X80219Y248785D01*
X80304Y248894D01*
X80393Y249001D01*
X80402Y249020D01*
X80414Y249036D01*
X80469Y249163D01*
X80528Y249289D01*
X80532Y249309D01*
X80540Y249328D01*
X80562Y249466D01*
X80588Y249602D01*
X80587Y249622D01*
X80590Y249642D01*
X80577Y249781D01*
X80568Y249919D01*
X80562Y249938D01*
X80560Y249958D01*
X80513Y250090D01*
X80470Y250221D01*
X80460Y250239D01*
X80453Y250258D01*
X80375Y250373D01*
X80300Y250490D01*
X80286Y250504D01*
X80274Y250521D01*
X80170Y250613D01*
X80069Y250708D01*
X80051Y250718D01*
X80036Y250731D01*
X79912Y250794D01*
X79790Y250862D01*
X79771Y250867D01*
X79753Y250876D01*
X79617Y250906D01*
X79482Y250941D01*
X79454Y250943D01*
X79442Y250946D01*
X79422Y250945D01*
X79322Y250951D01*
X73078Y250951D01*
X72940Y250934D01*
X72802Y250921D01*
X72783Y250914D01*
X72763Y250911D01*
X72634Y250860D01*
X72503Y250813D01*
X72486Y250802D01*
X72467Y250794D01*
X72355Y250713D01*
X72240Y250635D01*
X72226Y250619D01*
X72210Y250608D01*
X72121Y250500D01*
X72029Y250396D01*
X72020Y250378D01*
X72007Y250363D01*
X71948Y250237D01*
X71885Y250113D01*
X71880Y250093D01*
X71872Y250075D01*
X71845Y249938D01*
X71815Y249803D01*
X71816Y249782D01*
X71812Y249763D01*
X71820Y249624D01*
X71825Y249485D01*
X71830Y249465D01*
X71832Y249445D01*
X71874Y249313D01*
X71913Y249179D01*
X71923Y249162D01*
X71930Y249143D01*
X72004Y249025D01*
X72075Y248905D01*
X72093Y248884D01*
X72100Y248874D01*
X72115Y248860D01*
X72181Y248785D01*
X73191Y247775D01*
X74931Y243574D01*
X74931Y239026D01*
X73191Y234825D01*
X69975Y231609D01*
X65774Y229869D01*
X61226Y229869D01*
X57025Y231609D01*
X53809Y234825D01*
X52069Y239026D01*
X52069Y243574D01*
X53809Y247775D01*
X54819Y248785D01*
X54904Y248894D01*
X54993Y249001D01*
X55002Y249020D01*
X55014Y249036D01*
X55069Y249163D01*
X55128Y249289D01*
X55132Y249309D01*
X55140Y249328D01*
X55162Y249466D01*
X55188Y249602D01*
X55187Y249622D01*
X55190Y249642D01*
X55177Y249781D01*
X55168Y249919D01*
X55162Y249938D01*
X55160Y249958D01*
X55113Y250090D01*
X55070Y250221D01*
X55060Y250239D01*
X55053Y250258D01*
X54975Y250373D01*
X54900Y250490D01*
X54886Y250504D01*
X54874Y250521D01*
X54770Y250613D01*
X54669Y250708D01*
X54651Y250718D01*
X54636Y250731D01*
X54512Y250794D01*
X54390Y250862D01*
X54371Y250867D01*
X54353Y250876D01*
X54217Y250906D01*
X54082Y250941D01*
X54054Y250943D01*
X54042Y250946D01*
X54022Y250945D01*
X53922Y250951D01*
X47553Y250951D01*
X47504Y250945D01*
X47454Y250947D01*
X47347Y250925D01*
X47237Y250911D01*
X47191Y250893D01*
X47143Y250883D01*
X47044Y250835D01*
X46942Y250794D01*
X46902Y250765D01*
X46857Y250743D01*
X46773Y250672D01*
X46684Y250608D01*
X46653Y250569D01*
X46615Y250537D01*
X46552Y250447D01*
X46482Y250363D01*
X46460Y250318D01*
X46432Y250277D01*
X46393Y250174D01*
X46346Y250075D01*
X46337Y250026D01*
X46319Y249980D01*
X46307Y249870D01*
X46286Y249763D01*
X46289Y249713D01*
X46284Y249664D01*
X46299Y249555D01*
X46306Y249445D01*
X46321Y249398D01*
X46328Y249349D01*
X46380Y249196D01*
X47118Y247416D01*
X47118Y245344D01*
X46325Y243430D01*
X44860Y241965D01*
X44385Y241768D01*
X44348Y241747D01*
X44307Y241733D01*
X44210Y241668D01*
X44109Y241611D01*
X44078Y241581D01*
X44042Y241557D01*
X43964Y241470D01*
X43880Y241390D01*
X43858Y241353D01*
X43829Y241321D01*
X43775Y241218D01*
X43714Y241118D01*
X43701Y241077D01*
X43681Y241039D01*
X43655Y240926D01*
X43620Y240815D01*
X43618Y240772D01*
X43609Y240730D01*
X43611Y240613D01*
X43605Y240497D01*
X43614Y240455D01*
X43615Y240412D01*
X43646Y240300D01*
X43670Y240185D01*
X43688Y240147D01*
X43700Y240105D01*
X43771Y239961D01*
X46002Y236098D01*
X47324Y228600D01*
X46002Y221102D01*
X42195Y214508D01*
X36362Y209613D01*
X29207Y207009D01*
X21593Y207009D01*
X14438Y209613D01*
X8605Y214508D01*
X5417Y220030D01*
X5329Y220146D01*
X5244Y220264D01*
X5233Y220272D01*
X5225Y220283D01*
X5111Y220373D01*
X4999Y220467D01*
X4986Y220472D01*
X4976Y220481D01*
X4842Y220540D01*
X4711Y220602D01*
X4698Y220605D01*
X4685Y220610D01*
X4541Y220635D01*
X4398Y220662D01*
X4385Y220661D01*
X4372Y220663D01*
X4226Y220651D01*
X4081Y220642D01*
X4068Y220638D01*
X4055Y220637D01*
X3917Y220589D01*
X3779Y220544D01*
X3767Y220537D01*
X3754Y220532D01*
X3633Y220452D01*
X3510Y220374D01*
X3501Y220364D01*
X3489Y220357D01*
X3392Y220249D01*
X3292Y220142D01*
X3285Y220130D01*
X3276Y220120D01*
X3209Y219992D01*
X3138Y219864D01*
X3135Y219851D01*
X3129Y219839D01*
X3095Y219697D01*
X3059Y219556D01*
X3058Y219538D01*
X3056Y219529D01*
X3056Y219512D01*
X3049Y219395D01*
X3049Y34605D01*
X3067Y34460D01*
X3082Y34315D01*
X3087Y34303D01*
X3089Y34289D01*
X3142Y34154D01*
X3193Y34017D01*
X3201Y34006D01*
X3206Y33994D01*
X3291Y33876D01*
X3374Y33756D01*
X3385Y33747D01*
X3392Y33736D01*
X3505Y33643D01*
X3615Y33548D01*
X3627Y33542D01*
X3637Y33533D01*
X3769Y33472D01*
X3900Y33406D01*
X3913Y33404D01*
X3925Y33398D01*
X4067Y33371D01*
X4211Y33340D01*
X4224Y33341D01*
X4237Y33338D01*
X4382Y33347D01*
X4528Y33353D01*
X4541Y33357D01*
X4555Y33358D01*
X4693Y33403D01*
X4833Y33445D01*
X4845Y33452D01*
X4857Y33456D01*
X4980Y33534D01*
X5105Y33609D01*
X5115Y33619D01*
X5126Y33626D01*
X5226Y33732D01*
X5328Y33836D01*
X5338Y33851D01*
X5344Y33858D01*
X5352Y33873D01*
X5417Y33970D01*
X8605Y39492D01*
X14438Y44387D01*
X21593Y46991D01*
X29207Y46991D01*
X36362Y44387D01*
X42195Y39492D01*
X46002Y32898D01*
X47324Y25400D01*
X46002Y17902D01*
X42195Y11308D01*
X36362Y6413D01*
X33882Y5511D01*
X33795Y5466D01*
X33704Y5430D01*
X33654Y5394D01*
X33599Y5365D01*
X33526Y5301D01*
X33447Y5244D01*
X33407Y5196D01*
X33361Y5154D01*
X33306Y5074D01*
X33244Y4999D01*
X33218Y4942D01*
X33183Y4891D01*
X33150Y4799D01*
X33109Y4711D01*
X33097Y4650D01*
X33076Y4591D01*
X33067Y4494D01*
X33049Y4398D01*
X33053Y4336D01*
X33047Y4274D01*
X33063Y4178D01*
X33069Y4081D01*
X33088Y4022D01*
X33098Y3960D01*
X33137Y3871D01*
X33167Y3779D01*
X33200Y3726D01*
X33225Y3669D01*
X33285Y3592D01*
X33337Y3510D01*
X33382Y3467D01*
X33421Y3418D01*
X33498Y3359D01*
X33569Y3292D01*
X33623Y3262D01*
X33672Y3224D01*
X33762Y3185D01*
X33847Y3138D01*
X33907Y3123D01*
X33965Y3098D01*
X34061Y3083D01*
X34155Y3059D01*
X34259Y3052D01*
X34279Y3049D01*
X34290Y3050D01*
X34316Y3049D01*
X53264Y3049D01*
X53303Y3054D01*
G37*
%LPC*%
G36*
X87916Y44699D02*
X87916Y44699D01*
X86151Y45430D01*
X84800Y46781D01*
X84069Y48546D01*
X84069Y50457D01*
X84710Y52006D01*
X84713Y52015D01*
X84717Y52023D01*
X84755Y52168D01*
X84794Y52312D01*
X84795Y52322D01*
X84797Y52331D01*
X84807Y52491D01*
X84807Y75315D01*
X91532Y82040D01*
X91538Y82048D01*
X91545Y82053D01*
X91634Y82172D01*
X91727Y82292D01*
X91731Y82300D01*
X91736Y82308D01*
X91807Y82452D01*
X92448Y84001D01*
X93799Y85352D01*
X95348Y85993D01*
X95356Y85998D01*
X95365Y86000D01*
X95494Y86076D01*
X95624Y86150D01*
X95631Y86157D01*
X95639Y86162D01*
X95760Y86268D01*
X102244Y92752D01*
X102304Y92830D01*
X102372Y92902D01*
X102401Y92955D01*
X102438Y93003D01*
X102478Y93094D01*
X102526Y93181D01*
X102541Y93239D01*
X102565Y93295D01*
X102580Y93393D01*
X102605Y93489D01*
X102611Y93589D01*
X102615Y93609D01*
X102613Y93621D01*
X102615Y93649D01*
X102615Y131707D01*
X102614Y131716D01*
X102615Y131725D01*
X102594Y131874D01*
X102575Y132023D01*
X102572Y132031D01*
X102571Y132040D01*
X102519Y132193D01*
X101747Y134055D01*
X101747Y136065D01*
X102519Y137927D01*
X102521Y137936D01*
X102526Y137944D01*
X102563Y138089D01*
X102603Y138234D01*
X102603Y138243D01*
X102605Y138252D01*
X102615Y138413D01*
X102615Y140114D01*
X115664Y153163D01*
X141424Y153163D01*
X141453Y153166D01*
X141483Y153164D01*
X141611Y153186D01*
X141740Y153203D01*
X141767Y153213D01*
X141796Y153218D01*
X141914Y153272D01*
X142035Y153320D01*
X142059Y153337D01*
X142086Y153349D01*
X142187Y153430D01*
X142293Y153506D01*
X142311Y153529D01*
X142334Y153548D01*
X142412Y153651D01*
X142495Y153751D01*
X142508Y153778D01*
X142526Y153802D01*
X142597Y153946D01*
X143036Y155008D01*
X144458Y156430D01*
X146058Y157092D01*
X146125Y157130D01*
X146196Y157159D01*
X146255Y157203D01*
X146330Y157199D01*
X148325Y157199D01*
X150277Y156390D01*
X150280Y156388D01*
X150371Y156348D01*
X150458Y156300D01*
X150517Y156285D01*
X150572Y156261D01*
X150670Y156246D01*
X150766Y156221D01*
X150866Y156215D01*
X150886Y156211D01*
X150899Y156213D01*
X150927Y156211D01*
X179019Y156211D01*
X179118Y156223D01*
X179217Y156226D01*
X179275Y156243D01*
X179335Y156251D01*
X179427Y156287D01*
X179522Y156315D01*
X179574Y156345D01*
X179631Y156368D01*
X179711Y156426D01*
X179796Y156476D01*
X179871Y156542D01*
X179888Y156554D01*
X179896Y156564D01*
X179917Y156582D01*
X180018Y156684D01*
X181875Y157453D01*
X183885Y157453D01*
X185837Y156644D01*
X185840Y156642D01*
X185931Y156602D01*
X186018Y156554D01*
X186077Y156539D01*
X186132Y156515D01*
X186230Y156500D01*
X186326Y156475D01*
X186426Y156469D01*
X186446Y156465D01*
X186459Y156467D01*
X186487Y156465D01*
X211996Y156465D01*
X218695Y149766D01*
X218695Y124909D01*
X218696Y124900D01*
X218695Y124891D01*
X218716Y124742D01*
X218719Y124721D01*
X218722Y124660D01*
X218729Y124640D01*
X218735Y124594D01*
X218738Y124585D01*
X218739Y124576D01*
X218791Y124424D01*
X219433Y122875D01*
X219433Y120965D01*
X218702Y119199D01*
X217351Y117848D01*
X215585Y117117D01*
X213675Y117117D01*
X211909Y117848D01*
X210558Y119199D01*
X209827Y120965D01*
X209827Y122875D01*
X210469Y124424D01*
X210471Y124433D01*
X210476Y124441D01*
X210485Y124477D01*
X210498Y124504D01*
X210514Y124590D01*
X210553Y124731D01*
X210553Y124740D01*
X210555Y124749D01*
X210565Y124909D01*
X210565Y145873D01*
X210553Y145971D01*
X210550Y146070D01*
X210533Y146128D01*
X210525Y146188D01*
X210489Y146280D01*
X210461Y146375D01*
X210431Y146427D01*
X210408Y146484D01*
X210350Y146564D01*
X210300Y146649D01*
X210234Y146725D01*
X210222Y146741D01*
X210212Y146749D01*
X210194Y146770D01*
X209000Y147964D01*
X208922Y148024D01*
X208850Y148092D01*
X208797Y148121D01*
X208749Y148158D01*
X208658Y148198D01*
X208571Y148246D01*
X208513Y148261D01*
X208457Y148285D01*
X208359Y148300D01*
X208263Y148325D01*
X208163Y148331D01*
X208143Y148335D01*
X208131Y148333D01*
X208103Y148335D01*
X186487Y148335D01*
X186388Y148323D01*
X186289Y148320D01*
X186231Y148303D01*
X186171Y148295D01*
X186079Y148259D01*
X185984Y148231D01*
X185932Y148201D01*
X185875Y148178D01*
X185854Y148163D01*
X183885Y147347D01*
X181875Y147347D01*
X180336Y147985D01*
X180327Y147987D01*
X180319Y147992D01*
X180174Y148029D01*
X180029Y148069D01*
X180020Y148069D01*
X180011Y148071D01*
X179850Y148081D01*
X150927Y148081D01*
X150828Y148069D01*
X150729Y148066D01*
X150671Y148049D01*
X150611Y148041D01*
X150519Y148005D01*
X150424Y147977D01*
X150372Y147947D01*
X150315Y147924D01*
X150294Y147909D01*
X148230Y147054D01*
X148226Y147053D01*
X148134Y147017D01*
X148039Y146989D01*
X147987Y146959D01*
X147930Y146936D01*
X147850Y146878D01*
X147765Y146828D01*
X147689Y146762D01*
X147673Y146750D01*
X147665Y146740D01*
X147644Y146722D01*
X145956Y145033D01*
X119557Y145033D01*
X119459Y145021D01*
X119360Y145018D01*
X119302Y145001D01*
X119242Y144993D01*
X119150Y144957D01*
X119055Y144929D01*
X119003Y144899D01*
X118946Y144876D01*
X118866Y144818D01*
X118781Y144768D01*
X118705Y144702D01*
X118689Y144690D01*
X118681Y144680D01*
X118660Y144662D01*
X111928Y137930D01*
X111910Y137907D01*
X111888Y137887D01*
X111813Y137781D01*
X111733Y137679D01*
X111722Y137652D01*
X111705Y137627D01*
X111659Y137506D01*
X111607Y137387D01*
X111602Y137358D01*
X111592Y137330D01*
X111578Y137201D01*
X111557Y137073D01*
X111560Y137043D01*
X111557Y137014D01*
X111575Y136885D01*
X111587Y136756D01*
X111597Y136728D01*
X111601Y136699D01*
X111653Y136547D01*
X111853Y136065D01*
X111853Y134055D01*
X111075Y132177D01*
X111056Y132153D01*
X110988Y132081D01*
X110959Y132028D01*
X110922Y131980D01*
X110882Y131889D01*
X110834Y131802D01*
X110819Y131744D01*
X110795Y131688D01*
X110780Y131590D01*
X110755Y131494D01*
X110749Y131394D01*
X110745Y131374D01*
X110747Y131362D01*
X110745Y131333D01*
X110745Y117779D01*
X110757Y117681D01*
X110760Y117582D01*
X110777Y117524D01*
X110785Y117464D01*
X110821Y117372D01*
X110849Y117277D01*
X110879Y117225D01*
X110902Y117168D01*
X110960Y117088D01*
X111010Y117003D01*
X111076Y116927D01*
X111088Y116911D01*
X111098Y116903D01*
X111116Y116882D01*
X111802Y116196D01*
X111880Y116136D01*
X111952Y116068D01*
X112005Y116039D01*
X112053Y116002D01*
X112144Y115962D01*
X112231Y115914D01*
X112289Y115899D01*
X112345Y115875D01*
X112443Y115860D01*
X112539Y115835D01*
X112639Y115829D01*
X112659Y115825D01*
X112671Y115827D01*
X112699Y115825D01*
X123604Y115825D01*
X129074Y110354D01*
X129152Y110294D01*
X129224Y110226D01*
X129277Y110197D01*
X129325Y110160D01*
X129416Y110120D01*
X129503Y110072D01*
X129561Y110057D01*
X129617Y110033D01*
X129715Y110018D01*
X129811Y109993D01*
X129911Y109987D01*
X129931Y109983D01*
X129943Y109985D01*
X129971Y109983D01*
X130854Y109983D01*
X131309Y109527D01*
X131403Y109454D01*
X131493Y109375D01*
X131529Y109357D01*
X131561Y109332D01*
X131670Y109285D01*
X131776Y109231D01*
X131815Y109222D01*
X131853Y109206D01*
X131970Y109187D01*
X132086Y109161D01*
X132127Y109162D01*
X132167Y109156D01*
X132285Y109167D01*
X132404Y109171D01*
X132443Y109182D01*
X132483Y109186D01*
X132595Y109226D01*
X132710Y109259D01*
X132745Y109280D01*
X132783Y109293D01*
X132881Y109360D01*
X132984Y109421D01*
X133029Y109461D01*
X133046Y109472D01*
X133059Y109487D01*
X133104Y109527D01*
X133560Y109983D01*
X141268Y109983D01*
X142749Y108502D01*
X142749Y106172D01*
X142764Y106054D01*
X142771Y105935D01*
X142784Y105897D01*
X142789Y105856D01*
X142832Y105746D01*
X142869Y105633D01*
X142891Y105598D01*
X142906Y105561D01*
X142975Y105465D01*
X143039Y105364D01*
X143069Y105336D01*
X143092Y105303D01*
X143184Y105227D01*
X143271Y105146D01*
X143306Y105126D01*
X143337Y105101D01*
X143445Y105050D01*
X143549Y104992D01*
X143589Y104982D01*
X143625Y104965D01*
X143742Y104943D01*
X143857Y104913D01*
X143917Y104909D01*
X143937Y104905D01*
X143958Y104907D01*
X144018Y104903D01*
X144878Y104903D01*
X150623Y99158D01*
X150623Y76889D01*
X150635Y76791D01*
X150638Y76692D01*
X150655Y76634D01*
X150663Y76574D01*
X150699Y76481D01*
X150727Y76386D01*
X150757Y76334D01*
X150780Y76278D01*
X150838Y76198D01*
X150888Y76112D01*
X150954Y76037D01*
X150966Y76021D01*
X150976Y76013D01*
X150994Y75992D01*
X151392Y75595D01*
X152123Y73829D01*
X152123Y71919D01*
X151392Y70153D01*
X150041Y68802D01*
X148275Y68071D01*
X146365Y68071D01*
X144599Y68802D01*
X143248Y70153D01*
X142517Y71919D01*
X142517Y73829D01*
X143248Y75595D01*
X143646Y75992D01*
X143706Y76070D01*
X143774Y76142D01*
X143803Y76195D01*
X143840Y76243D01*
X143880Y76334D01*
X143928Y76420D01*
X143943Y76479D01*
X143967Y76535D01*
X143982Y76633D01*
X144007Y76728D01*
X144013Y76828D01*
X144017Y76849D01*
X144015Y76861D01*
X144017Y76889D01*
X144017Y92902D01*
X144000Y93040D01*
X143987Y93179D01*
X143980Y93198D01*
X143977Y93218D01*
X143926Y93347D01*
X143879Y93478D01*
X143868Y93495D01*
X143860Y93514D01*
X143779Y93626D01*
X143701Y93741D01*
X143685Y93755D01*
X143674Y93771D01*
X143566Y93860D01*
X143462Y93952D01*
X143444Y93961D01*
X143429Y93974D01*
X143303Y94033D01*
X143179Y94096D01*
X143159Y94101D01*
X143141Y94109D01*
X143004Y94135D01*
X142869Y94166D01*
X142848Y94165D01*
X142829Y94169D01*
X142690Y94161D01*
X142551Y94156D01*
X142531Y94151D01*
X142511Y94149D01*
X142379Y94107D01*
X142245Y94068D01*
X142228Y94058D01*
X142209Y94051D01*
X142091Y93977D01*
X141971Y93906D01*
X141950Y93888D01*
X141940Y93881D01*
X141926Y93866D01*
X141851Y93800D01*
X141268Y93217D01*
X133560Y93217D01*
X133104Y93673D01*
X133010Y93746D01*
X132921Y93825D01*
X132885Y93843D01*
X132853Y93868D01*
X132744Y93915D01*
X132638Y93969D01*
X132599Y93978D01*
X132561Y93994D01*
X132444Y94013D01*
X132328Y94039D01*
X132287Y94038D01*
X132247Y94044D01*
X132129Y94033D01*
X132010Y94029D01*
X131971Y94018D01*
X131931Y94014D01*
X131819Y93974D01*
X131704Y93941D01*
X131669Y93920D01*
X131631Y93907D01*
X131533Y93840D01*
X131430Y93779D01*
X131385Y93740D01*
X131368Y93728D01*
X131355Y93713D01*
X131309Y93673D01*
X130854Y93217D01*
X123146Y93217D01*
X122691Y93673D01*
X122597Y93746D01*
X122507Y93825D01*
X122471Y93843D01*
X122439Y93868D01*
X122330Y93915D01*
X122224Y93969D01*
X122185Y93978D01*
X122147Y93994D01*
X122030Y94013D01*
X121914Y94039D01*
X121873Y94038D01*
X121833Y94044D01*
X121715Y94033D01*
X121596Y94029D01*
X121557Y94018D01*
X121517Y94014D01*
X121405Y93974D01*
X121290Y93941D01*
X121255Y93920D01*
X121217Y93907D01*
X121119Y93840D01*
X121016Y93779D01*
X120971Y93739D01*
X120954Y93728D01*
X120941Y93713D01*
X120896Y93673D01*
X120260Y93038D01*
X120200Y92960D01*
X120132Y92888D01*
X120103Y92835D01*
X120066Y92787D01*
X120026Y92696D01*
X119978Y92609D01*
X119963Y92550D01*
X119939Y92495D01*
X119924Y92397D01*
X119899Y92301D01*
X119893Y92201D01*
X119889Y92181D01*
X119891Y92168D01*
X119889Y92140D01*
X119889Y89778D01*
X119901Y89680D01*
X119904Y89581D01*
X119921Y89522D01*
X119929Y89462D01*
X119965Y89370D01*
X119993Y89275D01*
X120023Y89223D01*
X120046Y89167D01*
X120104Y89087D01*
X120154Y89001D01*
X120220Y88926D01*
X120232Y88909D01*
X120242Y88901D01*
X120260Y88880D01*
X121646Y87494D01*
X121725Y87434D01*
X121797Y87366D01*
X121850Y87337D01*
X121898Y87300D01*
X121989Y87260D01*
X122075Y87212D01*
X122134Y87197D01*
X122189Y87173D01*
X122287Y87158D01*
X122383Y87133D01*
X122483Y87127D01*
X122504Y87123D01*
X122516Y87125D01*
X122544Y87123D01*
X127098Y87123D01*
X130303Y83918D01*
X130303Y77167D01*
X130315Y77069D01*
X130318Y76970D01*
X130335Y76912D01*
X130343Y76852D01*
X130379Y76759D01*
X130407Y76664D01*
X130437Y76612D01*
X130460Y76556D01*
X130518Y76476D01*
X130568Y76390D01*
X130634Y76315D01*
X130646Y76299D01*
X130656Y76291D01*
X130674Y76270D01*
X131072Y75873D01*
X131803Y74107D01*
X131803Y72197D01*
X131072Y70431D01*
X129721Y69080D01*
X127955Y68349D01*
X126045Y68349D01*
X124279Y69080D01*
X122928Y70431D01*
X122197Y72197D01*
X122197Y74107D01*
X122928Y75873D01*
X123326Y76270D01*
X123386Y76348D01*
X123454Y76420D01*
X123483Y76473D01*
X123520Y76521D01*
X123560Y76612D01*
X123608Y76698D01*
X123623Y76757D01*
X123647Y76813D01*
X123662Y76911D01*
X123687Y77006D01*
X123693Y77106D01*
X123697Y77127D01*
X123695Y77139D01*
X123697Y77167D01*
X123697Y79248D01*
X123682Y79366D01*
X123675Y79485D01*
X123662Y79523D01*
X123657Y79564D01*
X123614Y79674D01*
X123577Y79787D01*
X123555Y79822D01*
X123540Y79859D01*
X123471Y79955D01*
X123407Y80056D01*
X123377Y80084D01*
X123354Y80117D01*
X123262Y80193D01*
X123175Y80274D01*
X123140Y80294D01*
X123109Y80319D01*
X123001Y80370D01*
X122897Y80428D01*
X122857Y80438D01*
X122821Y80455D01*
X122704Y80477D01*
X122589Y80507D01*
X122529Y80511D01*
X122509Y80515D01*
X122488Y80513D01*
X122428Y80517D01*
X119282Y80517D01*
X113283Y86516D01*
X113283Y92140D01*
X113276Y92194D01*
X113279Y92249D01*
X113257Y92352D01*
X113243Y92456D01*
X113223Y92507D01*
X113212Y92560D01*
X113149Y92708D01*
X113135Y92729D01*
X113133Y92735D01*
X113126Y92752D01*
X113047Y92861D01*
X112972Y92972D01*
X112954Y92989D01*
X112940Y93009D01*
X112836Y93095D01*
X112736Y93185D01*
X112714Y93196D01*
X112695Y93212D01*
X112573Y93269D01*
X112453Y93331D01*
X112429Y93337D01*
X112407Y93347D01*
X112275Y93373D01*
X112144Y93403D01*
X112119Y93402D01*
X112094Y93407D01*
X111960Y93399D01*
X111826Y93396D01*
X111802Y93389D01*
X111777Y93387D01*
X111649Y93346D01*
X111520Y93309D01*
X111498Y93297D01*
X111475Y93289D01*
X111361Y93217D01*
X111244Y93150D01*
X111227Y93132D01*
X111206Y93119D01*
X111114Y93021D01*
X111018Y92927D01*
X111005Y92906D01*
X110988Y92888D01*
X110923Y92770D01*
X110853Y92654D01*
X110846Y92631D01*
X110834Y92609D01*
X110801Y92479D01*
X110762Y92350D01*
X110761Y92325D01*
X110755Y92301D01*
X110745Y92140D01*
X110745Y89756D01*
X101508Y80520D01*
X101502Y80512D01*
X101495Y80507D01*
X101406Y80388D01*
X101313Y80268D01*
X101309Y80260D01*
X101304Y80252D01*
X101233Y80108D01*
X100592Y78559D01*
X99241Y77208D01*
X97692Y76567D01*
X97684Y76562D01*
X97675Y76560D01*
X97623Y76529D01*
X97570Y76508D01*
X97501Y76458D01*
X97416Y76410D01*
X97409Y76403D01*
X97401Y76398D01*
X97318Y76325D01*
X97313Y76322D01*
X97311Y76319D01*
X97280Y76292D01*
X93308Y72320D01*
X93248Y72242D01*
X93180Y72170D01*
X93151Y72117D01*
X93113Y72069D01*
X93074Y71978D01*
X93026Y71891D01*
X93011Y71832D01*
X92987Y71777D01*
X92971Y71679D01*
X92947Y71583D01*
X92940Y71483D01*
X92937Y71463D01*
X92938Y71450D01*
X92937Y71422D01*
X92937Y52491D01*
X92938Y52482D01*
X92937Y52473D01*
X92958Y52324D01*
X92959Y52317D01*
X92959Y52313D01*
X92959Y52311D01*
X92976Y52176D01*
X92980Y52167D01*
X92981Y52158D01*
X93033Y52006D01*
X93675Y50457D01*
X93675Y48546D01*
X92943Y46781D01*
X91592Y45430D01*
X89827Y44699D01*
X87916Y44699D01*
G37*
%LPD*%
%LPC*%
G36*
X189545Y47267D02*
X189545Y47267D01*
X187779Y47998D01*
X186428Y49349D01*
X185697Y51115D01*
X185697Y53025D01*
X186428Y54791D01*
X186802Y55164D01*
X186862Y55242D01*
X186930Y55314D01*
X186959Y55367D01*
X186996Y55415D01*
X187036Y55506D01*
X187084Y55592D01*
X187099Y55651D01*
X187123Y55707D01*
X187138Y55805D01*
X187163Y55900D01*
X187169Y56000D01*
X187173Y56021D01*
X187171Y56033D01*
X187173Y56061D01*
X187173Y95754D01*
X187167Y95804D01*
X187169Y95853D01*
X187147Y95961D01*
X187133Y96070D01*
X187115Y96116D01*
X187105Y96165D01*
X187057Y96264D01*
X187016Y96366D01*
X186987Y96406D01*
X186965Y96450D01*
X186894Y96534D01*
X186830Y96623D01*
X186791Y96655D01*
X186759Y96692D01*
X186669Y96756D01*
X186585Y96826D01*
X186540Y96847D01*
X186499Y96875D01*
X186396Y96914D01*
X186297Y96961D01*
X186248Y96971D01*
X186202Y96988D01*
X186092Y97000D01*
X185985Y97021D01*
X185935Y97018D01*
X185885Y97023D01*
X185776Y97008D01*
X185667Y97001D01*
X185620Y96986D01*
X185571Y96979D01*
X185418Y96927D01*
X185105Y96797D01*
X183195Y96797D01*
X181429Y97528D01*
X180078Y98879D01*
X179347Y100645D01*
X179347Y101206D01*
X179335Y101304D01*
X179332Y101403D01*
X179315Y101462D01*
X179307Y101522D01*
X179271Y101614D01*
X179243Y101709D01*
X179213Y101761D01*
X179190Y101817D01*
X179132Y101897D01*
X179082Y101983D01*
X179016Y102058D01*
X179004Y102075D01*
X178994Y102083D01*
X178976Y102104D01*
X174497Y106582D01*
X174497Y109982D01*
X174482Y110100D01*
X174475Y110219D01*
X174462Y110257D01*
X174457Y110298D01*
X174414Y110408D01*
X174377Y110521D01*
X174355Y110556D01*
X174340Y110593D01*
X174271Y110689D01*
X174207Y110790D01*
X174177Y110818D01*
X174154Y110851D01*
X174062Y110927D01*
X173975Y111008D01*
X173940Y111028D01*
X173909Y111053D01*
X173801Y111104D01*
X173697Y111162D01*
X173657Y111172D01*
X173621Y111189D01*
X173504Y111211D01*
X173389Y111241D01*
X173329Y111245D01*
X173309Y111249D01*
X173288Y111247D01*
X173228Y111251D01*
X170898Y111251D01*
X169417Y112732D01*
X169417Y120440D01*
X169873Y120895D01*
X169946Y120989D01*
X170025Y121079D01*
X170043Y121115D01*
X170068Y121147D01*
X170115Y121256D01*
X170169Y121362D01*
X170178Y121401D01*
X170194Y121439D01*
X170213Y121556D01*
X170239Y121672D01*
X170238Y121713D01*
X170244Y121753D01*
X170233Y121871D01*
X170229Y121990D01*
X170218Y122029D01*
X170214Y122069D01*
X170174Y122181D01*
X170141Y122296D01*
X170120Y122331D01*
X170107Y122369D01*
X170040Y122467D01*
X169979Y122570D01*
X169940Y122615D01*
X169928Y122632D01*
X169913Y122645D01*
X169873Y122690D01*
X169238Y123325D01*
X169160Y123386D01*
X169088Y123454D01*
X169035Y123483D01*
X168987Y123520D01*
X168896Y123560D01*
X168809Y123608D01*
X168751Y123623D01*
X168695Y123647D01*
X168597Y123662D01*
X168501Y123687D01*
X168401Y123693D01*
X168381Y123697D01*
X168368Y123695D01*
X168340Y123697D01*
X165264Y123697D01*
X165235Y123694D01*
X165206Y123696D01*
X165078Y123674D01*
X164949Y123657D01*
X164921Y123647D01*
X164892Y123641D01*
X164774Y123588D01*
X164653Y123540D01*
X164629Y123523D01*
X164602Y123511D01*
X164501Y123430D01*
X164396Y123354D01*
X164377Y123331D01*
X164354Y123312D01*
X164276Y123209D01*
X164193Y123109D01*
X164180Y123082D01*
X164163Y123058D01*
X164130Y122991D01*
X162769Y121630D01*
X161004Y120899D01*
X159093Y120899D01*
X157328Y121630D01*
X155977Y122981D01*
X155245Y124746D01*
X155245Y126657D01*
X155977Y128422D01*
X157328Y129773D01*
X159093Y130505D01*
X161004Y130505D01*
X161257Y130399D01*
X161266Y130397D01*
X161275Y130392D01*
X161420Y130355D01*
X161564Y130315D01*
X161574Y130315D01*
X161583Y130313D01*
X161743Y130303D01*
X168340Y130303D01*
X168439Y130315D01*
X168538Y130318D01*
X168596Y130335D01*
X168656Y130343D01*
X168748Y130379D01*
X168843Y130407D01*
X168895Y130437D01*
X168952Y130460D01*
X169032Y130518D01*
X169117Y130568D01*
X169192Y130634D01*
X169209Y130646D01*
X169217Y130656D01*
X169238Y130674D01*
X169873Y131309D01*
X169946Y131404D01*
X170025Y131493D01*
X170043Y131529D01*
X170068Y131561D01*
X170115Y131670D01*
X170169Y131776D01*
X170178Y131815D01*
X170194Y131853D01*
X170213Y131970D01*
X170239Y132086D01*
X170238Y132127D01*
X170244Y132167D01*
X170233Y132285D01*
X170229Y132404D01*
X170218Y132443D01*
X170214Y132483D01*
X170174Y132596D01*
X170141Y132710D01*
X170120Y132744D01*
X170107Y132783D01*
X170040Y132881D01*
X169979Y132984D01*
X169939Y133029D01*
X169928Y133046D01*
X169913Y133059D01*
X169873Y133104D01*
X169417Y133560D01*
X169417Y141268D01*
X170898Y142749D01*
X184702Y142749D01*
X185686Y141765D01*
X185709Y141746D01*
X185729Y141724D01*
X185787Y141683D01*
X185832Y141640D01*
X185881Y141613D01*
X185937Y141570D01*
X185964Y141558D01*
X185989Y141541D01*
X186065Y141512D01*
X186111Y141487D01*
X186156Y141475D01*
X186229Y141443D01*
X186258Y141439D01*
X186286Y141428D01*
X186377Y141418D01*
X186419Y141407D01*
X186482Y141403D01*
X186543Y141393D01*
X186573Y141396D01*
X186602Y141393D01*
X186730Y141411D01*
X186860Y141423D01*
X186888Y141433D01*
X186917Y141437D01*
X187069Y141489D01*
X188270Y141987D01*
X190190Y141987D01*
X191964Y141252D01*
X193322Y139894D01*
X194057Y138120D01*
X194057Y136200D01*
X193322Y134426D01*
X191964Y133068D01*
X190190Y132333D01*
X189092Y132333D01*
X188954Y132316D01*
X188815Y132303D01*
X188796Y132296D01*
X188776Y132293D01*
X188647Y132242D01*
X188516Y132195D01*
X188499Y132184D01*
X188481Y132176D01*
X188368Y132095D01*
X188253Y132017D01*
X188240Y132001D01*
X188223Y131990D01*
X188134Y131882D01*
X188042Y131778D01*
X188033Y131760D01*
X188020Y131745D01*
X187961Y131619D01*
X187898Y131495D01*
X187893Y131475D01*
X187885Y131457D01*
X187859Y131321D01*
X187828Y131185D01*
X187829Y131164D01*
X187825Y131145D01*
X187834Y131006D01*
X187838Y130867D01*
X187844Y130847D01*
X187845Y130827D01*
X187888Y130695D01*
X187926Y130561D01*
X187937Y130544D01*
X187943Y130525D01*
X188018Y130407D01*
X188088Y130287D01*
X188106Y130266D01*
X188113Y130256D01*
X188128Y130242D01*
X188194Y130167D01*
X190364Y127997D01*
X190364Y127996D01*
X191472Y126888D01*
X193779Y124582D01*
X193779Y56109D01*
X193791Y56011D01*
X193794Y55912D01*
X193811Y55854D01*
X193819Y55794D01*
X193855Y55701D01*
X193883Y55606D01*
X193913Y55554D01*
X193936Y55498D01*
X193994Y55418D01*
X194044Y55332D01*
X194110Y55257D01*
X194122Y55241D01*
X194132Y55233D01*
X194150Y55212D01*
X194572Y54791D01*
X195303Y53025D01*
X195303Y51115D01*
X194572Y49349D01*
X193221Y47998D01*
X191455Y47267D01*
X189545Y47267D01*
G37*
%LPD*%
%LPC*%
G36*
X66029Y154692D02*
X66029Y154692D01*
X64172Y155461D01*
X62751Y156882D01*
X61982Y158739D01*
X61982Y160749D01*
X62751Y162606D01*
X64172Y164028D01*
X66029Y164797D01*
X68039Y164797D01*
X69896Y164028D01*
X70484Y163440D01*
X70562Y163380D01*
X70634Y163312D01*
X70687Y163283D01*
X70735Y163246D01*
X70826Y163206D01*
X70913Y163158D01*
X70971Y163143D01*
X71027Y163119D01*
X71125Y163104D01*
X71221Y163079D01*
X71321Y163073D01*
X71341Y163069D01*
X71353Y163071D01*
X71381Y163069D01*
X88661Y163069D01*
X88799Y163086D01*
X88937Y163099D01*
X88956Y163106D01*
X88977Y163109D01*
X89106Y163160D01*
X89237Y163207D01*
X89254Y163218D01*
X89272Y163226D01*
X89385Y163307D01*
X89500Y163385D01*
X89513Y163401D01*
X89530Y163412D01*
X89618Y163520D01*
X89710Y163624D01*
X89719Y163642D01*
X89732Y163657D01*
X89792Y163783D01*
X89855Y163907D01*
X89859Y163927D01*
X89868Y163945D01*
X89894Y164082D01*
X89925Y164217D01*
X89924Y164238D01*
X89928Y164257D01*
X89919Y164396D01*
X89915Y164535D01*
X89909Y164555D01*
X89908Y164575D01*
X89865Y164707D01*
X89826Y164841D01*
X89816Y164858D01*
X89810Y164877D01*
X89736Y164995D01*
X89665Y165115D01*
X89646Y165136D01*
X89640Y165146D01*
X89625Y165160D01*
X89558Y165235D01*
X88618Y166176D01*
X87883Y167950D01*
X87883Y169870D01*
X88618Y171644D01*
X89976Y173002D01*
X91750Y173737D01*
X93670Y173737D01*
X94383Y173441D01*
X94431Y173428D01*
X94476Y173407D01*
X94584Y173386D01*
X94690Y173357D01*
X94740Y173357D01*
X94789Y173347D01*
X94898Y173354D01*
X95008Y173352D01*
X95056Y173364D01*
X95106Y173367D01*
X95210Y173401D01*
X95317Y173426D01*
X95361Y173450D01*
X95408Y173465D01*
X95501Y173524D01*
X95598Y173575D01*
X95635Y173609D01*
X95677Y173635D01*
X95752Y173715D01*
X95834Y173789D01*
X95861Y173831D01*
X95895Y173867D01*
X95948Y173963D01*
X96008Y174055D01*
X96025Y174102D01*
X96049Y174145D01*
X96076Y174252D01*
X96112Y174356D01*
X96116Y174405D01*
X96128Y174453D01*
X96138Y174614D01*
X96138Y175558D01*
X97619Y177039D01*
X105327Y177039D01*
X105423Y176942D01*
X105517Y176869D01*
X105607Y176790D01*
X105643Y176772D01*
X105675Y176747D01*
X105784Y176700D01*
X105890Y176646D01*
X105929Y176637D01*
X105966Y176621D01*
X106084Y176602D01*
X106200Y176576D01*
X106241Y176577D01*
X106280Y176571D01*
X106399Y176582D01*
X106518Y176586D01*
X106557Y176597D01*
X106597Y176601D01*
X106709Y176641D01*
X106824Y176674D01*
X106858Y176695D01*
X106896Y176709D01*
X106995Y176775D01*
X107098Y176836D01*
X107143Y176876D01*
X107159Y176887D01*
X107173Y176902D01*
X107215Y176940D01*
X107908Y177340D01*
X108681Y177547D01*
X110237Y177547D01*
X110237Y169989D01*
X99695Y169989D01*
X99676Y169977D01*
X99654Y169973D01*
X99647Y169958D01*
X99638Y169952D01*
X99639Y169942D01*
X99632Y169926D01*
X99632Y167386D01*
X99644Y167367D01*
X99648Y167345D01*
X99663Y167338D01*
X99669Y167329D01*
X99679Y167330D01*
X99695Y167323D01*
X111442Y167323D01*
X111521Y167249D01*
X111556Y167229D01*
X111588Y167204D01*
X111695Y167153D01*
X111800Y167095D01*
X111839Y167085D01*
X111875Y167068D01*
X111992Y167046D01*
X112108Y167016D01*
X112168Y167012D01*
X112188Y167008D01*
X112208Y167010D01*
X112268Y167006D01*
X117730Y167006D01*
X117730Y164338D01*
X117745Y164220D01*
X117752Y164101D01*
X117765Y164063D01*
X117770Y164022D01*
X117813Y163912D01*
X117850Y163799D01*
X117872Y163764D01*
X117887Y163727D01*
X117956Y163631D01*
X118020Y163530D01*
X118050Y163502D01*
X118073Y163469D01*
X118165Y163393D01*
X118252Y163312D01*
X118287Y163292D01*
X118318Y163267D01*
X118426Y163216D01*
X118530Y163158D01*
X118570Y163148D01*
X118606Y163131D01*
X118723Y163109D01*
X118838Y163079D01*
X118898Y163075D01*
X118918Y163071D01*
X118939Y163073D01*
X118999Y163069D01*
X121758Y163069D01*
X121787Y163072D01*
X121817Y163070D01*
X121944Y163092D01*
X122074Y163109D01*
X122101Y163119D01*
X122130Y163125D01*
X122249Y163178D01*
X122369Y163226D01*
X122393Y163243D01*
X122420Y163255D01*
X122521Y163336D01*
X122627Y163412D01*
X122645Y163435D01*
X122668Y163454D01*
X122746Y163557D01*
X122829Y163657D01*
X122842Y163684D01*
X122860Y163708D01*
X122931Y163852D01*
X123068Y164184D01*
X124426Y165542D01*
X126200Y166277D01*
X128120Y166277D01*
X129894Y165542D01*
X131252Y164184D01*
X131987Y162410D01*
X131987Y160490D01*
X131252Y158716D01*
X129894Y157358D01*
X128120Y156623D01*
X127530Y156623D01*
X127432Y156611D01*
X127333Y156608D01*
X127274Y156591D01*
X127214Y156583D01*
X127122Y156547D01*
X127027Y156519D01*
X126975Y156489D01*
X126919Y156466D01*
X126914Y156463D01*
X71425Y156463D01*
X71326Y156451D01*
X71227Y156448D01*
X71169Y156431D01*
X71109Y156423D01*
X71017Y156387D01*
X70922Y156359D01*
X70870Y156329D01*
X70813Y156306D01*
X70733Y156248D01*
X70648Y156198D01*
X70573Y156132D01*
X70556Y156120D01*
X70548Y156110D01*
X70527Y156092D01*
X69896Y155461D01*
X68039Y154692D01*
X66029Y154692D01*
G37*
%LPD*%
%LPC*%
G36*
X85400Y107997D02*
X85400Y107997D01*
X83626Y108732D01*
X82268Y110090D01*
X81533Y111864D01*
X81533Y113308D01*
X81518Y113426D01*
X81511Y113545D01*
X81498Y113583D01*
X81493Y113624D01*
X81450Y113734D01*
X81413Y113847D01*
X81391Y113882D01*
X81376Y113919D01*
X81307Y114015D01*
X81243Y114116D01*
X81213Y114144D01*
X81190Y114177D01*
X81098Y114253D01*
X81011Y114334D01*
X80976Y114354D01*
X80945Y114379D01*
X80837Y114430D01*
X80733Y114488D01*
X80693Y114498D01*
X80657Y114515D01*
X80540Y114537D01*
X80425Y114567D01*
X80365Y114571D01*
X80345Y114575D01*
X80324Y114573D01*
X80264Y114577D01*
X78969Y114577D01*
X77196Y115312D01*
X75838Y116670D01*
X75103Y118444D01*
X75103Y119730D01*
X75097Y119779D01*
X75099Y119829D01*
X75077Y119936D01*
X75063Y120045D01*
X75045Y120092D01*
X75035Y120140D01*
X74986Y120239D01*
X74946Y120341D01*
X74917Y120381D01*
X74895Y120426D01*
X74824Y120509D01*
X74759Y120598D01*
X74721Y120630D01*
X74689Y120668D01*
X74599Y120731D01*
X74514Y120801D01*
X74469Y120822D01*
X74429Y120851D01*
X74326Y120890D01*
X74226Y120937D01*
X74178Y120946D01*
X74131Y120964D01*
X74022Y120976D01*
X73914Y120996D01*
X73865Y120993D01*
X73815Y120999D01*
X73706Y120983D01*
X73597Y120977D01*
X73550Y120961D01*
X73500Y120954D01*
X73351Y120903D01*
X71430Y120903D01*
X69656Y121638D01*
X68298Y122996D01*
X67563Y124770D01*
X67563Y126690D01*
X68298Y128464D01*
X68716Y128882D01*
X68776Y128960D01*
X68844Y129032D01*
X68873Y129085D01*
X68910Y129133D01*
X68950Y129224D01*
X68998Y129310D01*
X69013Y129369D01*
X69037Y129425D01*
X69052Y129523D01*
X69077Y129618D01*
X69083Y129718D01*
X69087Y129739D01*
X69085Y129751D01*
X69087Y129779D01*
X69087Y134565D01*
X69075Y134663D01*
X69072Y134762D01*
X69055Y134820D01*
X69047Y134880D01*
X69011Y134973D01*
X68983Y135068D01*
X68953Y135120D01*
X68930Y135176D01*
X68872Y135256D01*
X68822Y135342D01*
X68756Y135417D01*
X68744Y135433D01*
X68734Y135441D01*
X68716Y135462D01*
X68318Y135859D01*
X67587Y137625D01*
X67587Y139535D01*
X68318Y141301D01*
X69669Y142652D01*
X71435Y143383D01*
X73345Y143383D01*
X74160Y143045D01*
X74188Y143038D01*
X74214Y143024D01*
X74341Y142996D01*
X74466Y142961D01*
X74496Y142961D01*
X74525Y142955D01*
X74655Y142958D01*
X74784Y142956D01*
X74813Y142963D01*
X74843Y142964D01*
X74967Y143000D01*
X75094Y143031D01*
X75120Y143044D01*
X75148Y143053D01*
X75260Y143119D01*
X75375Y143179D01*
X75397Y143199D01*
X75422Y143214D01*
X75543Y143321D01*
X76588Y144366D01*
X78445Y145135D01*
X80190Y145135D01*
X80219Y145138D01*
X80249Y145136D01*
X80377Y145158D01*
X80505Y145175D01*
X80533Y145185D01*
X80562Y145191D01*
X80680Y145244D01*
X80801Y145292D01*
X80825Y145309D01*
X80852Y145321D01*
X80953Y145402D01*
X81058Y145479D01*
X81077Y145501D01*
X81100Y145520D01*
X81178Y145623D01*
X81261Y145723D01*
X81274Y145750D01*
X81292Y145774D01*
X81362Y145918D01*
X82076Y147642D01*
X83498Y149064D01*
X85355Y149833D01*
X87365Y149833D01*
X89222Y149064D01*
X90644Y147642D01*
X91413Y145785D01*
X91413Y143775D01*
X90644Y141918D01*
X90034Y141309D01*
X89974Y141231D01*
X89906Y141158D01*
X89877Y141105D01*
X89840Y141058D01*
X89800Y140967D01*
X89752Y140880D01*
X89737Y140821D01*
X89713Y140766D01*
X89698Y140668D01*
X89673Y140572D01*
X89667Y140472D01*
X89663Y140452D01*
X89665Y140439D01*
X89663Y140411D01*
X89663Y116873D01*
X89675Y116775D01*
X89678Y116676D01*
X89695Y116618D01*
X89703Y116558D01*
X89739Y116465D01*
X89767Y116370D01*
X89797Y116318D01*
X89820Y116262D01*
X89878Y116182D01*
X89928Y116096D01*
X89994Y116021D01*
X90006Y116004D01*
X90016Y115997D01*
X90034Y115976D01*
X90452Y115558D01*
X91187Y113784D01*
X91187Y111864D01*
X90452Y110090D01*
X89094Y108732D01*
X87320Y107997D01*
X85400Y107997D01*
G37*
%LPD*%
%LPC*%
G36*
X126807Y55649D02*
X126807Y55649D01*
X125041Y56380D01*
X123690Y57731D01*
X122959Y59497D01*
X122959Y61407D01*
X123690Y63173D01*
X125041Y64524D01*
X126807Y65255D01*
X128717Y65255D01*
X130483Y64524D01*
X130880Y64126D01*
X130958Y64066D01*
X131030Y63998D01*
X131083Y63969D01*
X131131Y63932D01*
X131222Y63892D01*
X131308Y63844D01*
X131367Y63829D01*
X131423Y63805D01*
X131521Y63790D01*
X131616Y63765D01*
X131716Y63759D01*
X131737Y63755D01*
X131749Y63757D01*
X131777Y63755D01*
X152562Y63755D01*
X152660Y63767D01*
X152759Y63770D01*
X152818Y63787D01*
X152878Y63795D01*
X152970Y63831D01*
X153065Y63859D01*
X153117Y63889D01*
X153173Y63912D01*
X153253Y63970D01*
X153339Y64020D01*
X153414Y64086D01*
X153431Y64098D01*
X153439Y64108D01*
X153460Y64126D01*
X154568Y65234D01*
X154628Y65313D01*
X154696Y65385D01*
X154725Y65438D01*
X154762Y65486D01*
X154802Y65577D01*
X154850Y65663D01*
X154865Y65722D01*
X154889Y65777D01*
X154904Y65875D01*
X154929Y65971D01*
X154935Y66071D01*
X154939Y66092D01*
X154937Y66104D01*
X154939Y66132D01*
X154939Y86639D01*
X154927Y86737D01*
X154924Y86836D01*
X154907Y86894D01*
X154899Y86954D01*
X154863Y87047D01*
X154835Y87142D01*
X154805Y87194D01*
X154782Y87250D01*
X154724Y87330D01*
X154674Y87416D01*
X154608Y87491D01*
X154596Y87507D01*
X154586Y87515D01*
X154568Y87536D01*
X154170Y87933D01*
X153439Y89699D01*
X153439Y91609D01*
X154170Y93375D01*
X155521Y94726D01*
X157287Y95457D01*
X159197Y95457D01*
X160963Y94726D01*
X162314Y93375D01*
X163045Y91609D01*
X163045Y89699D01*
X162314Y87933D01*
X161916Y87536D01*
X161856Y87458D01*
X161788Y87386D01*
X161759Y87333D01*
X161722Y87285D01*
X161682Y87194D01*
X161634Y87108D01*
X161619Y87049D01*
X161595Y86993D01*
X161580Y86895D01*
X161555Y86800D01*
X161549Y86700D01*
X161545Y86679D01*
X161547Y86667D01*
X161545Y86639D01*
X161545Y62870D01*
X155824Y57149D01*
X131777Y57149D01*
X131679Y57137D01*
X131580Y57134D01*
X131522Y57117D01*
X131462Y57109D01*
X131369Y57073D01*
X131274Y57045D01*
X131222Y57015D01*
X131166Y56992D01*
X131086Y56934D01*
X131000Y56884D01*
X130925Y56818D01*
X130909Y56806D01*
X130901Y56796D01*
X130880Y56778D01*
X130483Y56380D01*
X128717Y55649D01*
X126807Y55649D01*
G37*
%LPD*%
%LPC*%
G36*
X20635Y161567D02*
X20635Y161567D01*
X18869Y162298D01*
X17518Y163649D01*
X16787Y165415D01*
X16787Y165976D01*
X16775Y166074D01*
X16772Y166173D01*
X16755Y166232D01*
X16747Y166292D01*
X16711Y166384D01*
X16683Y166479D01*
X16653Y166531D01*
X16630Y166587D01*
X16572Y166667D01*
X16522Y166753D01*
X16456Y166828D01*
X16444Y166845D01*
X16434Y166853D01*
X16416Y166874D01*
X14244Y169046D01*
X14165Y169106D01*
X14093Y169174D01*
X14040Y169203D01*
X13992Y169240D01*
X13901Y169280D01*
X13815Y169328D01*
X13756Y169343D01*
X13701Y169367D01*
X13603Y169382D01*
X13507Y169407D01*
X13407Y169413D01*
X13386Y169417D01*
X13374Y169415D01*
X13346Y169417D01*
X11767Y169417D01*
X10286Y170898D01*
X10286Y184702D01*
X11767Y186183D01*
X19475Y186183D01*
X19571Y186086D01*
X19665Y186013D01*
X19755Y185934D01*
X19791Y185916D01*
X19823Y185891D01*
X19932Y185844D01*
X20038Y185790D01*
X20077Y185781D01*
X20114Y185765D01*
X20232Y185746D01*
X20348Y185720D01*
X20389Y185721D01*
X20428Y185715D01*
X20547Y185726D01*
X20666Y185730D01*
X20705Y185741D01*
X20745Y185745D01*
X20857Y185785D01*
X20972Y185818D01*
X21006Y185839D01*
X21044Y185853D01*
X21143Y185919D01*
X21246Y185980D01*
X21291Y186020D01*
X21307Y186031D01*
X21321Y186046D01*
X21363Y186084D01*
X22056Y186484D01*
X22829Y186691D01*
X24385Y186691D01*
X24385Y179133D01*
X13843Y179133D01*
X13824Y179121D01*
X13802Y179117D01*
X13795Y179102D01*
X13786Y179096D01*
X13787Y179086D01*
X13780Y179070D01*
X13780Y176530D01*
X13792Y176511D01*
X13796Y176489D01*
X13811Y176482D01*
X13817Y176473D01*
X13827Y176474D01*
X13843Y176467D01*
X25590Y176467D01*
X25669Y176393D01*
X25704Y176373D01*
X25736Y176348D01*
X25843Y176297D01*
X25948Y176239D01*
X25987Y176229D01*
X26023Y176212D01*
X26140Y176190D01*
X26256Y176160D01*
X26316Y176156D01*
X26336Y176152D01*
X26356Y176154D01*
X26416Y176150D01*
X31878Y176150D01*
X31878Y171546D01*
X31671Y170773D01*
X31271Y170081D01*
X30706Y169516D01*
X30014Y169116D01*
X29241Y168909D01*
X27636Y168909D01*
X27587Y168903D01*
X27537Y168905D01*
X27429Y168883D01*
X27321Y168869D01*
X27274Y168851D01*
X27225Y168841D01*
X27127Y168793D01*
X27025Y168752D01*
X26985Y168723D01*
X26940Y168701D01*
X26856Y168630D01*
X26768Y168566D01*
X26736Y168527D01*
X26698Y168495D01*
X26635Y168405D01*
X26565Y168321D01*
X26544Y168275D01*
X26515Y168235D01*
X26476Y168132D01*
X26429Y168033D01*
X26420Y167984D01*
X26402Y167937D01*
X26390Y167828D01*
X26370Y167720D01*
X26373Y167671D01*
X26367Y167621D01*
X26382Y167512D01*
X26389Y167403D01*
X26393Y167392D01*
X26393Y165415D01*
X25662Y163649D01*
X24311Y162298D01*
X22545Y161567D01*
X20635Y161567D01*
G37*
%LPD*%
%LPC*%
G36*
X143763Y159511D02*
X143763Y159511D01*
X143763Y167069D01*
X154305Y167069D01*
X154324Y167081D01*
X154346Y167085D01*
X154353Y167100D01*
X154362Y167106D01*
X154361Y167116D01*
X154368Y167132D01*
X154368Y169672D01*
X154356Y169691D01*
X154352Y169713D01*
X154337Y169720D01*
X154331Y169729D01*
X154321Y169728D01*
X154305Y169735D01*
X143763Y169735D01*
X143763Y177293D01*
X145319Y177293D01*
X146092Y177086D01*
X146786Y176685D01*
X146876Y176615D01*
X146965Y176537D01*
X147001Y176518D01*
X147033Y176493D01*
X147142Y176446D01*
X147248Y176392D01*
X147288Y176383D01*
X147325Y176367D01*
X147442Y176348D01*
X147559Y176322D01*
X147599Y176324D01*
X147639Y176317D01*
X147757Y176328D01*
X147876Y176332D01*
X147915Y176343D01*
X147955Y176347D01*
X148068Y176387D01*
X148182Y176420D01*
X148217Y176441D01*
X148255Y176455D01*
X148353Y176521D01*
X148456Y176582D01*
X148501Y176622D01*
X148518Y176633D01*
X148531Y176648D01*
X148577Y176688D01*
X148673Y176785D01*
X156381Y176785D01*
X157862Y175304D01*
X157862Y172974D01*
X157877Y172856D01*
X157884Y172737D01*
X157897Y172699D01*
X157902Y172658D01*
X157945Y172548D01*
X157982Y172435D01*
X158004Y172400D01*
X158019Y172363D01*
X158088Y172267D01*
X158152Y172166D01*
X158182Y172138D01*
X158205Y172105D01*
X158297Y172029D01*
X158384Y171948D01*
X158419Y171928D01*
X158450Y171903D01*
X158558Y171852D01*
X158662Y171794D01*
X158702Y171784D01*
X158738Y171767D01*
X158855Y171745D01*
X158970Y171715D01*
X159030Y171711D01*
X159050Y171707D01*
X159071Y171709D01*
X159131Y171705D01*
X163166Y171705D01*
X164572Y170298D01*
X164651Y170238D01*
X164723Y170170D01*
X164776Y170141D01*
X164824Y170104D01*
X164915Y170064D01*
X165001Y170016D01*
X165060Y170001D01*
X165115Y169977D01*
X165213Y169962D01*
X165309Y169937D01*
X165409Y169931D01*
X165430Y169927D01*
X165442Y169929D01*
X165470Y169927D01*
X166060Y169927D01*
X167834Y169192D01*
X169192Y167834D01*
X169927Y166060D01*
X169927Y164140D01*
X169192Y162366D01*
X167834Y161008D01*
X166060Y160273D01*
X164140Y160273D01*
X162366Y161008D01*
X161008Y162366D01*
X160304Y164067D01*
X160269Y164127D01*
X160243Y164192D01*
X160191Y164265D01*
X160146Y164343D01*
X160098Y164393D01*
X160057Y164450D01*
X159987Y164507D01*
X159925Y164571D01*
X159865Y164608D01*
X159812Y164652D01*
X159730Y164691D01*
X159654Y164738D01*
X159587Y164758D01*
X159524Y164788D01*
X159436Y164805D01*
X159350Y164831D01*
X159280Y164835D01*
X159211Y164848D01*
X159122Y164842D01*
X159032Y164846D01*
X158964Y164832D01*
X158894Y164828D01*
X158809Y164800D01*
X158721Y164782D01*
X158658Y164751D01*
X158592Y164730D01*
X158516Y164682D01*
X158435Y164642D01*
X158382Y164597D01*
X158323Y164560D01*
X158261Y164494D01*
X158193Y164436D01*
X158153Y164379D01*
X158105Y164328D01*
X158062Y164249D01*
X158010Y164176D01*
X157985Y164111D01*
X157951Y164050D01*
X157929Y163963D01*
X157897Y163879D01*
X157889Y163809D01*
X157872Y163742D01*
X157862Y163581D01*
X157862Y161500D01*
X156381Y160019D01*
X148673Y160019D01*
X148577Y160116D01*
X148483Y160189D01*
X148393Y160268D01*
X148357Y160286D01*
X148325Y160311D01*
X148216Y160358D01*
X148110Y160412D01*
X148071Y160421D01*
X148034Y160437D01*
X147916Y160456D01*
X147800Y160482D01*
X147759Y160481D01*
X147720Y160487D01*
X147601Y160476D01*
X147482Y160472D01*
X147443Y160461D01*
X147403Y160457D01*
X147291Y160417D01*
X147176Y160384D01*
X147142Y160363D01*
X147104Y160349D01*
X147005Y160283D01*
X146902Y160222D01*
X146857Y160182D01*
X146841Y160171D01*
X146827Y160156D01*
X146785Y160118D01*
X146092Y159718D01*
X146001Y159694D01*
X145859Y159636D01*
X145719Y159580D01*
X145713Y159576D01*
X145707Y159574D01*
X145641Y159525D01*
X145637Y159525D01*
X145554Y159534D01*
X145478Y159523D01*
X145402Y159523D01*
X145344Y159511D01*
X143763Y159511D01*
G37*
%LPD*%
%LPC*%
G36*
X63561Y85621D02*
X63561Y85621D01*
X61795Y86352D01*
X60444Y87703D01*
X59713Y89469D01*
X59713Y91379D01*
X60444Y93145D01*
X61795Y94496D01*
X63561Y95227D01*
X64122Y95227D01*
X64220Y95239D01*
X64319Y95242D01*
X64378Y95259D01*
X64438Y95267D01*
X64530Y95303D01*
X64625Y95331D01*
X64677Y95361D01*
X64733Y95384D01*
X64813Y95442D01*
X64899Y95492D01*
X64974Y95558D01*
X64991Y95570D01*
X64999Y95580D01*
X65020Y95598D01*
X67974Y98553D01*
X89965Y98553D01*
X90063Y98565D01*
X90162Y98568D01*
X90220Y98585D01*
X90280Y98593D01*
X90373Y98629D01*
X90468Y98657D01*
X90520Y98687D01*
X90576Y98710D01*
X90656Y98768D01*
X90742Y98818D01*
X90817Y98884D01*
X90833Y98896D01*
X90841Y98906D01*
X90862Y98924D01*
X91259Y99322D01*
X93025Y100053D01*
X94935Y100053D01*
X96701Y99322D01*
X98052Y97971D01*
X98783Y96205D01*
X98783Y94295D01*
X98052Y92529D01*
X96701Y91178D01*
X94935Y90447D01*
X93025Y90447D01*
X91259Y91178D01*
X90862Y91576D01*
X90784Y91636D01*
X90712Y91704D01*
X90659Y91733D01*
X90611Y91770D01*
X90520Y91810D01*
X90434Y91858D01*
X90375Y91873D01*
X90319Y91897D01*
X90221Y91912D01*
X90126Y91937D01*
X90026Y91943D01*
X90005Y91947D01*
X89993Y91945D01*
X89965Y91947D01*
X71236Y91947D01*
X71138Y91935D01*
X71039Y91932D01*
X70980Y91915D01*
X70920Y91907D01*
X70828Y91871D01*
X70733Y91843D01*
X70681Y91813D01*
X70625Y91790D01*
X70545Y91732D01*
X70459Y91682D01*
X70384Y91616D01*
X70367Y91604D01*
X70359Y91594D01*
X70338Y91576D01*
X69690Y90928D01*
X69630Y90849D01*
X69562Y90777D01*
X69533Y90724D01*
X69496Y90676D01*
X69456Y90585D01*
X69408Y90499D01*
X69393Y90440D01*
X69369Y90385D01*
X69354Y90287D01*
X69329Y90191D01*
X69323Y90091D01*
X69319Y90070D01*
X69321Y90058D01*
X69319Y90030D01*
X69319Y89469D01*
X68588Y87703D01*
X67237Y86352D01*
X65471Y85621D01*
X63561Y85621D01*
G37*
%LPD*%
%LPC*%
G36*
X243265Y115210D02*
X243265Y115210D01*
X241518Y116957D01*
X241440Y117018D01*
X241368Y117086D01*
X241315Y117115D01*
X241267Y117152D01*
X241176Y117191D01*
X241089Y117239D01*
X241031Y117254D01*
X240975Y117278D01*
X240877Y117294D01*
X240781Y117318D01*
X240681Y117325D01*
X240661Y117328D01*
X240649Y117327D01*
X240621Y117329D01*
X236909Y117329D01*
X235198Y119040D01*
X235198Y121461D01*
X236303Y122565D01*
X236375Y122659D01*
X236454Y122749D01*
X236473Y122785D01*
X236498Y122817D01*
X236545Y122926D01*
X236599Y123032D01*
X236608Y123071D01*
X236624Y123109D01*
X236643Y123226D01*
X236669Y123342D01*
X236667Y123383D01*
X236674Y123423D01*
X236663Y123542D01*
X236659Y123660D01*
X236648Y123699D01*
X236644Y123739D01*
X236604Y123851D01*
X236571Y123966D01*
X236550Y124001D01*
X236536Y124039D01*
X236470Y124137D01*
X236409Y124240D01*
X236369Y124285D01*
X236358Y124302D01*
X236342Y124315D01*
X236303Y124360D01*
X235886Y124777D01*
X235885Y124778D01*
X235198Y125465D01*
X235198Y126693D01*
X235198Y130004D01*
X236765Y131572D01*
X236811Y131631D01*
X236864Y131683D01*
X236908Y131756D01*
X236960Y131823D01*
X236990Y131891D01*
X237028Y131955D01*
X237053Y132037D01*
X237087Y132115D01*
X237098Y132188D01*
X237120Y132260D01*
X237123Y132345D01*
X237137Y132429D01*
X237130Y132503D01*
X237133Y132578D01*
X237115Y132661D01*
X237107Y132746D01*
X237082Y132816D01*
X237074Y132849D01*
X237731Y134817D01*
X237732Y134826D01*
X237736Y134834D01*
X237763Y134981D01*
X237793Y135129D01*
X237792Y135138D01*
X237794Y135147D01*
X237783Y135297D01*
X237775Y135447D01*
X237772Y135455D01*
X237772Y135464D01*
X237731Y135620D01*
X237084Y137561D01*
X238166Y139726D01*
X240462Y140492D01*
X245515Y137965D01*
X245524Y137962D01*
X245532Y137957D01*
X245682Y137896D01*
X246583Y137596D01*
X246640Y137511D01*
X246647Y137504D01*
X246652Y137497D01*
X246765Y137399D01*
X246855Y137318D01*
X247153Y136425D01*
X247157Y136417D01*
X247159Y136407D01*
X247221Y136259D01*
X247647Y135409D01*
X247627Y135308D01*
X247627Y135299D01*
X247625Y135290D01*
X247636Y135139D01*
X247642Y135020D01*
X247221Y134179D01*
X247218Y134169D01*
X247213Y134161D01*
X247153Y134012D01*
X246852Y133111D01*
X246767Y133054D01*
X246761Y133047D01*
X246753Y133042D01*
X246655Y132929D01*
X246555Y132817D01*
X246550Y132809D01*
X246544Y132802D01*
X246463Y132663D01*
X246398Y132533D01*
X246366Y132495D01*
X246336Y132438D01*
X246299Y132385D01*
X246264Y132297D01*
X246221Y132212D01*
X246207Y132149D01*
X246183Y132089D01*
X246172Y131994D01*
X246151Y131902D01*
X246153Y131837D01*
X246146Y131773D01*
X246158Y131679D01*
X246161Y131584D01*
X246179Y131522D01*
X246187Y131458D01*
X246223Y131370D01*
X246249Y131278D01*
X246282Y131223D01*
X246306Y131163D01*
X246363Y131086D01*
X246411Y131004D01*
X246483Y130922D01*
X246495Y130907D01*
X246503Y130900D01*
X246517Y130884D01*
X247397Y130004D01*
X247397Y126658D01*
X247397Y125465D01*
X247351Y125420D01*
X247278Y125326D01*
X247199Y125236D01*
X247181Y125200D01*
X247156Y125168D01*
X247109Y125059D01*
X247055Y124953D01*
X247046Y124914D01*
X247030Y124877D01*
X247011Y124759D01*
X246985Y124643D01*
X246986Y124602D01*
X246980Y124562D01*
X246991Y124444D01*
X246995Y124325D01*
X247006Y124286D01*
X247010Y124246D01*
X247050Y124134D01*
X247083Y124019D01*
X247104Y123985D01*
X247117Y123947D01*
X247184Y123848D01*
X247245Y123745D01*
X247285Y123700D01*
X247296Y123683D01*
X247311Y123670D01*
X247351Y123625D01*
X247397Y123579D01*
X247397Y116922D01*
X245685Y115210D01*
X243265Y115210D01*
G37*
%LPD*%
%LPC*%
G36*
X211308Y50672D02*
X211308Y50672D01*
X209394Y51465D01*
X207929Y52930D01*
X207136Y54844D01*
X207136Y56916D01*
X207929Y58830D01*
X209394Y60295D01*
X211308Y61088D01*
X213380Y61088D01*
X215294Y60295D01*
X216759Y58830D01*
X217552Y56916D01*
X217552Y54844D01*
X216759Y52930D01*
X215294Y51465D01*
X213380Y50672D01*
X211308Y50672D01*
G37*
%LPD*%
G36*
X139338Y100279D02*
X139338Y100279D01*
X139360Y100283D01*
X139367Y100298D01*
X139376Y100304D01*
X139375Y100314D01*
X139382Y100330D01*
X139382Y102870D01*
X139370Y102889D01*
X139366Y102911D01*
X139351Y102918D01*
X139345Y102927D01*
X139335Y102926D01*
X139319Y102933D01*
X114681Y102933D01*
X114662Y102921D01*
X114640Y102917D01*
X114633Y102902D01*
X114624Y102896D01*
X114625Y102886D01*
X114618Y102870D01*
X114618Y100330D01*
X114630Y100311D01*
X114634Y100289D01*
X114649Y100282D01*
X114655Y100273D01*
X114665Y100274D01*
X114681Y100267D01*
X139319Y100267D01*
X139338Y100279D01*
G37*
%LPC*%
G36*
X51815Y15239D02*
X51815Y15239D01*
X51855Y15496D01*
X52436Y17283D01*
X53289Y18957D01*
X54394Y20478D01*
X55722Y21806D01*
X57243Y22911D01*
X58917Y23764D01*
X60704Y24345D01*
X60961Y24385D01*
X60961Y15239D01*
X51815Y15239D01*
G37*
%LPD*%
G36*
X179089Y125044D02*
X179089Y125044D01*
X179111Y125048D01*
X179118Y125063D01*
X179127Y125069D01*
X179126Y125079D01*
X179133Y125095D01*
X179133Y139319D01*
X179121Y139338D01*
X179117Y139360D01*
X179102Y139367D01*
X179096Y139376D01*
X179086Y139375D01*
X179070Y139382D01*
X176530Y139382D01*
X176511Y139370D01*
X176489Y139366D01*
X176482Y139351D01*
X176473Y139345D01*
X176474Y139335D01*
X176467Y139319D01*
X176467Y125095D01*
X176479Y125076D01*
X176483Y125054D01*
X176498Y125047D01*
X176504Y125038D01*
X176514Y125039D01*
X176530Y125032D01*
X179070Y125032D01*
X179089Y125044D01*
G37*
%LPC*%
G36*
X136270Y170052D02*
X136270Y170052D01*
X136270Y174656D01*
X136477Y175429D01*
X136877Y176121D01*
X137442Y176686D01*
X138134Y177086D01*
X138907Y177293D01*
X140463Y177293D01*
X140463Y170052D01*
X136270Y170052D01*
G37*
%LPD*%
%LPC*%
G36*
X138907Y159511D02*
X138907Y159511D01*
X138134Y159718D01*
X137442Y160118D01*
X136877Y160683D01*
X136477Y161375D01*
X136270Y162148D01*
X136270Y166752D01*
X140463Y166752D01*
X140463Y159511D01*
X138907Y159511D01*
G37*
%LPD*%
%LPC*%
G36*
X27685Y179450D02*
X27685Y179450D01*
X27685Y186691D01*
X29241Y186691D01*
X30014Y186484D01*
X30706Y186084D01*
X31271Y185519D01*
X31671Y184827D01*
X31878Y184054D01*
X31878Y179450D01*
X27685Y179450D01*
G37*
%LPD*%
%LPC*%
G36*
X113537Y170306D02*
X113537Y170306D01*
X113537Y177547D01*
X115093Y177547D01*
X115866Y177340D01*
X116558Y176940D01*
X117123Y176375D01*
X117523Y175683D01*
X117730Y174910D01*
X117730Y170306D01*
X113537Y170306D01*
G37*
%LPD*%
D10*
X240238Y137337D02*
X244475Y135219D01*
X240238Y133100D01*
X239179Y129853D02*
X243416Y129853D01*
X239179Y129853D02*
X238120Y128794D01*
X238120Y126675D01*
X239179Y125616D01*
X243416Y125616D01*
X244475Y126675D01*
X244475Y128794D01*
X243416Y129853D01*
X239179Y125616D01*
X240238Y122369D02*
X238120Y120250D01*
X244475Y120250D01*
X244475Y118132D02*
X244475Y122369D01*
D11*
X183655Y119393D02*
X183655Y113779D01*
X171945Y113779D01*
X171945Y119393D01*
X183655Y119393D01*
X183655Y114720D02*
X171945Y114720D01*
X171945Y115661D02*
X183655Y115661D01*
X183655Y116602D02*
X171945Y116602D01*
X171945Y117543D02*
X183655Y117543D01*
X183655Y118484D02*
X171945Y118484D01*
X183655Y124193D02*
X183655Y129807D01*
X183655Y124193D02*
X171945Y124193D01*
X171945Y129807D01*
X183655Y129807D01*
X183655Y125134D02*
X171945Y125134D01*
X171945Y126075D02*
X183655Y126075D01*
X183655Y127016D02*
X171945Y127016D01*
X171945Y127957D02*
X183655Y127957D01*
X183655Y128898D02*
X171945Y128898D01*
X183655Y134607D02*
X183655Y140221D01*
X183655Y134607D02*
X171945Y134607D01*
X171945Y140221D01*
X183655Y140221D01*
X183655Y135548D02*
X171945Y135548D01*
X171945Y136489D02*
X183655Y136489D01*
X183655Y137430D02*
X171945Y137430D01*
X171945Y138371D02*
X183655Y138371D01*
X183655Y139312D02*
X171945Y139312D01*
X119393Y95745D02*
X113779Y95745D01*
X113779Y107455D01*
X119393Y107455D01*
X119393Y95745D01*
X119393Y96686D02*
X113779Y96686D01*
X113779Y97627D02*
X119393Y97627D01*
X119393Y98568D02*
X113779Y98568D01*
X113779Y99509D02*
X119393Y99509D01*
X119393Y100450D02*
X113779Y100450D01*
X113779Y101391D02*
X119393Y101391D01*
X119393Y102332D02*
X113779Y102332D01*
X113779Y103273D02*
X119393Y103273D01*
X119393Y104214D02*
X113779Y104214D01*
X113779Y105155D02*
X119393Y105155D01*
X119393Y106096D02*
X113779Y106096D01*
X113779Y107037D02*
X119393Y107037D01*
X124193Y95745D02*
X129807Y95745D01*
X124193Y95745D02*
X124193Y107455D01*
X129807Y107455D01*
X129807Y95745D01*
X129807Y96686D02*
X124193Y96686D01*
X124193Y97627D02*
X129807Y97627D01*
X129807Y98568D02*
X124193Y98568D01*
X124193Y99509D02*
X129807Y99509D01*
X129807Y100450D02*
X124193Y100450D01*
X124193Y101391D02*
X129807Y101391D01*
X129807Y102332D02*
X124193Y102332D01*
X124193Y103273D02*
X129807Y103273D01*
X129807Y104214D02*
X124193Y104214D01*
X124193Y105155D02*
X129807Y105155D01*
X129807Y106096D02*
X124193Y106096D01*
X124193Y107037D02*
X129807Y107037D01*
X134607Y95745D02*
X140221Y95745D01*
X134607Y95745D02*
X134607Y107455D01*
X140221Y107455D01*
X140221Y95745D01*
X140221Y96686D02*
X134607Y96686D01*
X134607Y97627D02*
X140221Y97627D01*
X140221Y98568D02*
X134607Y98568D01*
X134607Y99509D02*
X140221Y99509D01*
X140221Y100450D02*
X134607Y100450D01*
X134607Y101391D02*
X140221Y101391D01*
X140221Y102332D02*
X134607Y102332D01*
X134607Y103273D02*
X140221Y103273D01*
X140221Y104214D02*
X134607Y104214D01*
X134607Y105155D02*
X140221Y105155D01*
X140221Y106096D02*
X134607Y106096D01*
X134607Y107037D02*
X140221Y107037D01*
D12*
X190500Y12700D03*
X165100Y12700D03*
X139700Y12700D03*
X114300Y12700D03*
X88900Y12700D03*
X63500Y12700D03*
D11*
X139306Y162547D02*
X144920Y162547D01*
X139306Y162547D02*
X139306Y174257D01*
X144920Y174257D01*
X144920Y162547D01*
X144920Y163488D02*
X139306Y163488D01*
X139306Y164429D02*
X144920Y164429D01*
X144920Y165370D02*
X139306Y165370D01*
X139306Y166311D02*
X144920Y166311D01*
X144920Y167252D02*
X139306Y167252D01*
X139306Y168193D02*
X144920Y168193D01*
X144920Y169134D02*
X139306Y169134D01*
X139306Y170075D02*
X144920Y170075D01*
X144920Y171016D02*
X139306Y171016D01*
X139306Y171957D02*
X144920Y171957D01*
X144920Y172898D02*
X139306Y172898D01*
X139306Y173839D02*
X144920Y173839D01*
X149720Y162547D02*
X155334Y162547D01*
X149720Y162547D02*
X149720Y174257D01*
X155334Y174257D01*
X155334Y162547D01*
X155334Y163488D02*
X149720Y163488D01*
X149720Y164429D02*
X155334Y164429D01*
X155334Y165370D02*
X149720Y165370D01*
X149720Y166311D02*
X155334Y166311D01*
X155334Y167252D02*
X149720Y167252D01*
X149720Y168193D02*
X155334Y168193D01*
X155334Y169134D02*
X149720Y169134D01*
X149720Y170075D02*
X155334Y170075D01*
X155334Y171016D02*
X149720Y171016D01*
X149720Y171957D02*
X155334Y171957D01*
X155334Y172898D02*
X149720Y172898D01*
X149720Y173839D02*
X155334Y173839D01*
X114694Y174511D02*
X109080Y174511D01*
X114694Y174511D02*
X114694Y162801D01*
X109080Y162801D01*
X109080Y174511D01*
X109080Y163742D02*
X114694Y163742D01*
X114694Y164683D02*
X109080Y164683D01*
X109080Y165624D02*
X114694Y165624D01*
X114694Y166565D02*
X109080Y166565D01*
X109080Y167506D02*
X114694Y167506D01*
X114694Y168447D02*
X109080Y168447D01*
X109080Y169388D02*
X114694Y169388D01*
X114694Y170329D02*
X109080Y170329D01*
X109080Y171270D02*
X114694Y171270D01*
X114694Y172211D02*
X109080Y172211D01*
X109080Y173152D02*
X114694Y173152D01*
X114694Y174093D02*
X109080Y174093D01*
X104280Y174511D02*
X98666Y174511D01*
X104280Y174511D02*
X104280Y162801D01*
X98666Y162801D01*
X98666Y174511D01*
X98666Y163742D02*
X104280Y163742D01*
X104280Y164683D02*
X98666Y164683D01*
X98666Y165624D02*
X104280Y165624D01*
X104280Y166565D02*
X98666Y166565D01*
X98666Y167506D02*
X104280Y167506D01*
X104280Y168447D02*
X98666Y168447D01*
X98666Y169388D02*
X104280Y169388D01*
X104280Y170329D02*
X98666Y170329D01*
X98666Y171270D02*
X104280Y171270D01*
X104280Y172211D02*
X98666Y172211D01*
X98666Y173152D02*
X104280Y173152D01*
X104280Y174093D02*
X98666Y174093D01*
D12*
X63500Y241300D03*
X88900Y241300D03*
X114300Y241300D03*
X139700Y241300D03*
X165100Y241300D03*
X190500Y241300D03*
D13*
X41910Y246380D03*
X212344Y55880D03*
D11*
X28842Y183655D02*
X23228Y183655D01*
X28842Y183655D02*
X28842Y171945D01*
X23228Y171945D01*
X23228Y183655D01*
X23228Y172886D02*
X28842Y172886D01*
X28842Y173827D02*
X23228Y173827D01*
X23228Y174768D02*
X28842Y174768D01*
X28842Y175709D02*
X23228Y175709D01*
X23228Y176650D02*
X28842Y176650D01*
X28842Y177591D02*
X23228Y177591D01*
X23228Y178532D02*
X28842Y178532D01*
X28842Y179473D02*
X23228Y179473D01*
X23228Y180414D02*
X28842Y180414D01*
X28842Y181355D02*
X23228Y181355D01*
X23228Y182296D02*
X28842Y182296D01*
X28842Y183237D02*
X23228Y183237D01*
X18428Y183655D02*
X12814Y183655D01*
X18428Y183655D02*
X18428Y171945D01*
X12814Y171945D01*
X12814Y183655D01*
X12814Y172886D02*
X18428Y172886D01*
X18428Y173827D02*
X12814Y173827D01*
X12814Y174768D02*
X18428Y174768D01*
X18428Y175709D02*
X12814Y175709D01*
X12814Y176650D02*
X18428Y176650D01*
X18428Y177591D02*
X12814Y177591D01*
X12814Y178532D02*
X18428Y178532D01*
X18428Y179473D02*
X12814Y179473D01*
X12814Y180414D02*
X18428Y180414D01*
X18428Y181355D02*
X12814Y181355D01*
X12814Y182296D02*
X18428Y182296D01*
X18428Y183237D02*
X12814Y183237D01*
D14*
X172720Y73152D03*
X107442Y152400D03*
X64770Y141986D03*
X56388Y90424D03*
X91694Y104902D03*
X184658Y92710D03*
X144526Y142240D03*
D15*
X188468Y145034D03*
D14*
X182118Y52070D03*
X101600Y22352D03*
X44196Y189484D03*
X215646Y111506D03*
X122428Y66802D03*
X83820Y210820D03*
D15*
X105410Y210820D03*
X173990Y167386D03*
D14*
X151638Y66802D03*
X71120Y117856D03*
X161036Y103378D03*
X151638Y230886D03*
D15*
X73660Y153416D03*
D14*
X144780Y37846D03*
X12700Y127000D03*
X12700Y76200D03*
X241300Y76200D03*
D15*
X127000Y181356D03*
D14*
X120904Y37846D03*
D15*
X231394Y190754D03*
X228600Y127000D03*
D14*
X158242Y90654D03*
D16*
X158242Y64238D01*
X154456Y60452D01*
D14*
X127762Y60452D03*
D16*
X154456Y60452D01*
D14*
X93980Y95250D03*
D16*
X163068Y29972D02*
X165100Y27940D01*
X163068Y29972D02*
X75946Y29972D01*
D14*
X75946Y29972D03*
X64516Y90424D03*
D16*
X69342Y95250D02*
X93980Y95250D01*
X69342Y95250D02*
X64516Y90424D01*
X165100Y27940D02*
X165100Y12700D01*
D14*
X160048Y125702D03*
D16*
X161346Y127000D01*
X177800Y127000D01*
X186690Y127000D01*
D14*
X190500Y52070D03*
D16*
X190476Y52094D01*
X190476Y123214D02*
X186690Y127000D01*
X190476Y123214D02*
X190476Y52094D01*
D15*
X165100Y165100D03*
D16*
X161798Y168402D01*
X152527Y168402D01*
D15*
X92710Y168910D03*
D16*
X92964Y168656D01*
X101473Y168656D01*
D15*
X127160Y161450D03*
D16*
X125476Y159766D01*
X67056Y159766D01*
X67034Y159744D01*
D17*
X67034Y159744D03*
D15*
X72390Y125730D03*
D16*
X72390Y138580D01*
D14*
X72390Y138580D03*
X88872Y49502D03*
D18*
X88872Y73632D01*
X96520Y81280D01*
D14*
X96520Y81280D03*
D18*
X106680Y91440D01*
X106680Y107950D02*
X110490Y111760D01*
D14*
X214630Y121920D03*
D18*
X214630Y148082D01*
X210312Y152400D01*
D17*
X147320Y152146D03*
D18*
X182880Y152400D02*
X210312Y152400D01*
D17*
X182880Y152400D03*
D18*
X147320Y152146D02*
X144272Y149098D01*
X117348Y149098D01*
X106680Y138430D02*
X106680Y114300D01*
X106680Y107950D01*
X106680Y138430D02*
X117348Y149098D01*
X107950Y114300D02*
X110490Y111760D01*
X107950Y114300D02*
X106680Y114300D01*
X106800Y138310D02*
X106680Y138430D01*
X106800Y138310D02*
X106800Y135060D01*
D17*
X106800Y135060D03*
D18*
X182626Y152146D02*
X182880Y152400D01*
X182626Y152146D02*
X147320Y152146D01*
X106680Y107950D02*
X106680Y91440D01*
X110490Y111760D02*
X121920Y111760D01*
X127000Y106680D02*
X127000Y101600D01*
X127000Y106680D02*
X121920Y111760D01*
D15*
X79930Y119404D03*
D16*
X79450Y119884D01*
X79450Y140082D01*
D17*
X79450Y140082D03*
D14*
X127000Y73152D03*
D16*
X125730Y83820D02*
X120650Y83820D01*
X116586Y87884D02*
X116586Y101600D01*
X116586Y87884D02*
X120650Y83820D01*
X125730Y83820D02*
X127000Y82550D01*
X127000Y73152D01*
D14*
X147320Y72874D03*
D16*
X147320Y97790D01*
X143510Y101600D01*
X137414Y101600D01*
D14*
X21590Y166370D03*
D16*
X15621Y172339D02*
X15621Y177800D01*
X15621Y172339D02*
X21590Y166370D01*
X188976Y137414D02*
X189230Y137160D01*
D15*
X189230Y137160D03*
D16*
X188976Y137414D02*
X177800Y137414D01*
D15*
X86360Y112824D03*
D16*
X86360Y144780D01*
D17*
X86360Y144780D03*
D14*
X184150Y101600D03*
D16*
X177800Y107950D02*
X177800Y116586D01*
X177800Y107950D02*
X184150Y101600D01*
D15*
X176530Y208280D03*
D16*
X176530Y229870D01*
X165100Y241300D01*
X139700Y241300D02*
X139700Y237490D01*
X124460Y222250D01*
D15*
X124460Y210820D03*
D16*
X124460Y222250D01*
M02*
