M48
;GenerationSoftware,Autodesk,EAGLE,9.6.2*%
;CreationDate,2022-12-14T17:45:31Z*%
FMAT,2
ICI,OFF
METRIC,TZ,000.000
T5C0.300
T4C0.305
T3C0.350
T2C1.016
T1C3.048
%
G90
M71
T1
X22860Y22860
X22860Y2540
X2540Y2540
X2540Y22860
T2
X19050Y1270
X13970Y1270
X19050Y24130
X16510Y24130
X13970Y24130
X11430Y24130
X8890Y24130
X6350Y24130
X6350Y1270
X8890Y1270
X11430Y1270
X16510Y1270
T3
X14732Y15215
X6703Y15974
X18288Y15240
X8636Y14478
X7945Y14008
X10680Y13506
T4
X12716Y16145
X7239Y12573
X9271Y16891
X7993Y11940
X18923Y13716
X8636Y11282
X17653Y20828
X18847Y14503
X12446Y21082
X10541Y21082
X17399Y16739
X7366Y15342
X12700Y18136
X23139Y19075
X16510Y16510
X22860Y12700
T5
X17272Y7315
X10744Y15240
X6477Y14199
X5639Y9042
X9169Y10490
X18466Y9271
X14453Y14224
X18212Y5207
X19050Y5207
X6452Y9042
X7239Y13858
X7595Y2997
X12700Y7315
X14732Y7287
X2159Y16637
X8887Y4950
X9652Y8128
X9398Y9525
X12776Y6045
X21463Y12192
X16005Y12570
X15824Y9065
X12090Y3785
X24130Y7620
X1270Y7620
X1270Y12700
X14478Y3785
X10160Y2235
X15164Y23089
X16104Y10338
X7112Y11786
X15164Y6680
X8382Y21082
X12243Y6680
X21565Y11151
X4420Y18948
X18415Y10160
M30