G04 EAGLE Gerber RS-274X export*
G75*
%MOMM*%
%FSLAX34Y34*%
%LPD*%
%INSolderpaste Top*%
%IPPOS*%
%AMOC8*
5,1,8,0,0,1.08239X$1,22.5*%
G01*
%ADD10C,0.100000*%
%ADD11C,0.096000*%
%ADD12C,0.102000*%
%ADD13C,0.300000*%


D10*
X101020Y142550D02*
X101020Y132550D01*
X92020Y132550D01*
X92020Y142550D01*
X101020Y142550D01*
X101020Y133500D02*
X92020Y133500D01*
X92020Y134450D02*
X101020Y134450D01*
X101020Y135400D02*
X92020Y135400D01*
X92020Y136350D02*
X101020Y136350D01*
X101020Y137300D02*
X92020Y137300D01*
X92020Y138250D02*
X101020Y138250D01*
X101020Y139200D02*
X92020Y139200D01*
X92020Y140150D02*
X101020Y140150D01*
X101020Y141100D02*
X92020Y141100D01*
X92020Y142050D02*
X101020Y142050D01*
X101020Y149550D02*
X101020Y159550D01*
X101020Y149550D02*
X92020Y149550D01*
X92020Y159550D01*
X101020Y159550D01*
X101020Y150500D02*
X92020Y150500D01*
X92020Y151450D02*
X101020Y151450D01*
X101020Y152400D02*
X92020Y152400D01*
X92020Y153350D02*
X101020Y153350D01*
X101020Y154300D02*
X92020Y154300D01*
X92020Y155250D02*
X101020Y155250D01*
X101020Y156200D02*
X92020Y156200D01*
X92020Y157150D02*
X101020Y157150D01*
X101020Y158100D02*
X92020Y158100D01*
X92020Y159050D02*
X101020Y159050D01*
X130500Y156900D02*
X140500Y156900D01*
X140500Y147900D01*
X130500Y147900D01*
X130500Y156900D01*
X130500Y148850D02*
X140500Y148850D01*
X140500Y149800D02*
X130500Y149800D01*
X130500Y150750D02*
X140500Y150750D01*
X140500Y151700D02*
X130500Y151700D01*
X130500Y152650D02*
X140500Y152650D01*
X140500Y153600D02*
X130500Y153600D01*
X130500Y154550D02*
X140500Y154550D01*
X140500Y155500D02*
X130500Y155500D01*
X130500Y156450D02*
X140500Y156450D01*
X123500Y156900D02*
X113500Y156900D01*
X123500Y156900D02*
X123500Y147900D01*
X113500Y147900D01*
X113500Y156900D01*
X113500Y148850D02*
X123500Y148850D01*
X123500Y149800D02*
X113500Y149800D01*
X113500Y150750D02*
X123500Y150750D01*
X123500Y151700D02*
X113500Y151700D01*
X113500Y152650D02*
X123500Y152650D01*
X123500Y153600D02*
X113500Y153600D01*
X113500Y154550D02*
X123500Y154550D01*
X123500Y155500D02*
X113500Y155500D01*
X113500Y156450D02*
X123500Y156450D01*
X122500Y104940D02*
X122500Y94940D01*
X122500Y104940D02*
X131500Y104940D01*
X131500Y94940D01*
X122500Y94940D01*
X122500Y95890D02*
X131500Y95890D01*
X131500Y96840D02*
X122500Y96840D01*
X122500Y97790D02*
X131500Y97790D01*
X131500Y98740D02*
X122500Y98740D01*
X122500Y99690D02*
X131500Y99690D01*
X131500Y100640D02*
X122500Y100640D01*
X122500Y101590D02*
X131500Y101590D01*
X131500Y102540D02*
X122500Y102540D01*
X122500Y103490D02*
X131500Y103490D01*
X131500Y104440D02*
X122500Y104440D01*
X122500Y87940D02*
X122500Y77940D01*
X122500Y87940D02*
X131500Y87940D01*
X131500Y77940D01*
X122500Y77940D01*
X122500Y78890D02*
X131500Y78890D01*
X131500Y79840D02*
X122500Y79840D01*
X122500Y80790D02*
X131500Y80790D01*
X131500Y81740D02*
X122500Y81740D01*
X122500Y82690D02*
X131500Y82690D01*
X131500Y83640D02*
X122500Y83640D01*
X122500Y84590D02*
X131500Y84590D01*
X131500Y85540D02*
X122500Y85540D01*
X122500Y86490D02*
X131500Y86490D01*
X131500Y87440D02*
X122500Y87440D01*
X142820Y94940D02*
X142820Y104940D01*
X151820Y104940D01*
X151820Y94940D01*
X142820Y94940D01*
X142820Y95890D02*
X151820Y95890D01*
X151820Y96840D02*
X142820Y96840D01*
X142820Y97790D02*
X151820Y97790D01*
X151820Y98740D02*
X142820Y98740D01*
X142820Y99690D02*
X151820Y99690D01*
X151820Y100640D02*
X142820Y100640D01*
X142820Y101590D02*
X151820Y101590D01*
X151820Y102540D02*
X142820Y102540D01*
X142820Y103490D02*
X151820Y103490D01*
X151820Y104440D02*
X142820Y104440D01*
X142820Y87940D02*
X142820Y77940D01*
X142820Y87940D02*
X151820Y87940D01*
X151820Y77940D01*
X142820Y77940D01*
X142820Y78890D02*
X151820Y78890D01*
X151820Y79840D02*
X142820Y79840D01*
X142820Y80790D02*
X151820Y80790D01*
X151820Y81740D02*
X142820Y81740D01*
X142820Y82690D02*
X151820Y82690D01*
X151820Y83640D02*
X142820Y83640D01*
X142820Y84590D02*
X151820Y84590D01*
X151820Y85540D02*
X142820Y85540D01*
X142820Y86490D02*
X151820Y86490D01*
X151820Y87440D02*
X142820Y87440D01*
X102180Y95067D02*
X102180Y105067D01*
X111180Y105067D01*
X111180Y95067D01*
X102180Y95067D01*
X102180Y96017D02*
X111180Y96017D01*
X111180Y96967D02*
X102180Y96967D01*
X102180Y97917D02*
X111180Y97917D01*
X111180Y98867D02*
X102180Y98867D01*
X102180Y99817D02*
X111180Y99817D01*
X111180Y100767D02*
X102180Y100767D01*
X102180Y101717D02*
X111180Y101717D01*
X111180Y102667D02*
X102180Y102667D01*
X102180Y103617D02*
X111180Y103617D01*
X111180Y104567D02*
X102180Y104567D01*
X102180Y88067D02*
X102180Y78067D01*
X102180Y88067D02*
X111180Y88067D01*
X111180Y78067D01*
X102180Y78067D01*
X102180Y79017D02*
X111180Y79017D01*
X111180Y79967D02*
X102180Y79967D01*
X102180Y80917D02*
X111180Y80917D01*
X111180Y81867D02*
X102180Y81867D01*
X102180Y82817D02*
X111180Y82817D01*
X111180Y83767D02*
X102180Y83767D01*
X102180Y84717D02*
X111180Y84717D01*
X111180Y85667D02*
X102180Y85667D01*
X102180Y86617D02*
X111180Y86617D01*
X111180Y87567D02*
X102180Y87567D01*
D11*
X249216Y93480D02*
X249216Y104520D01*
X249216Y93480D02*
X230176Y93480D01*
X230176Y104520D01*
X249216Y104520D01*
X249216Y94392D02*
X230176Y94392D01*
X230176Y95304D02*
X249216Y95304D01*
X249216Y96216D02*
X230176Y96216D01*
X230176Y97128D02*
X249216Y97128D01*
X249216Y98040D02*
X230176Y98040D01*
X230176Y98952D02*
X249216Y98952D01*
X249216Y99864D02*
X230176Y99864D01*
X230176Y100776D02*
X249216Y100776D01*
X249216Y101688D02*
X230176Y101688D01*
X230176Y102600D02*
X249216Y102600D01*
X249216Y103512D02*
X230176Y103512D01*
X230176Y104424D02*
X249216Y104424D01*
X249216Y149480D02*
X249216Y160520D01*
X249216Y149480D02*
X230176Y149480D01*
X230176Y160520D01*
X249216Y160520D01*
X249216Y150392D02*
X230176Y150392D01*
X230176Y151304D02*
X249216Y151304D01*
X249216Y152216D02*
X230176Y152216D01*
X230176Y153128D02*
X249216Y153128D01*
X249216Y154040D02*
X230176Y154040D01*
X230176Y154952D02*
X249216Y154952D01*
X249216Y155864D02*
X230176Y155864D01*
X230176Y156776D02*
X249216Y156776D01*
X249216Y157688D02*
X230176Y157688D01*
X230176Y158600D02*
X249216Y158600D01*
X249216Y159512D02*
X230176Y159512D01*
X230176Y160424D02*
X249216Y160424D01*
D12*
X209186Y114490D02*
X209186Y109510D01*
X196706Y109510D01*
X196706Y114490D01*
X209186Y114490D01*
X209186Y110479D02*
X196706Y110479D01*
X196706Y111448D02*
X209186Y111448D01*
X209186Y112417D02*
X196706Y112417D01*
X196706Y113386D02*
X209186Y113386D01*
X209186Y114355D02*
X196706Y114355D01*
X209186Y119510D02*
X209186Y124490D01*
X209186Y119510D02*
X196706Y119510D01*
X196706Y124490D01*
X209186Y124490D01*
X209186Y120479D02*
X196706Y120479D01*
X196706Y121448D02*
X209186Y121448D01*
X209186Y122417D02*
X196706Y122417D01*
X196706Y123386D02*
X209186Y123386D01*
X209186Y124355D02*
X196706Y124355D01*
X209186Y129510D02*
X209186Y134490D01*
X209186Y129510D02*
X196706Y129510D01*
X196706Y134490D01*
X209186Y134490D01*
X209186Y130479D02*
X196706Y130479D01*
X196706Y131448D02*
X209186Y131448D01*
X209186Y132417D02*
X196706Y132417D01*
X196706Y133386D02*
X209186Y133386D01*
X209186Y134355D02*
X196706Y134355D01*
X209186Y139510D02*
X209186Y144490D01*
X209186Y139510D02*
X196706Y139510D01*
X196706Y144490D01*
X209186Y144490D01*
X209186Y140479D02*
X196706Y140479D01*
X196706Y141448D02*
X209186Y141448D01*
X209186Y142417D02*
X196706Y142417D01*
X196706Y143386D02*
X209186Y143386D01*
X209186Y144355D02*
X196706Y144355D01*
D11*
X4530Y149480D02*
X4530Y160520D01*
X23570Y160520D01*
X23570Y149480D01*
X4530Y149480D01*
X4530Y150392D02*
X23570Y150392D01*
X23570Y151304D02*
X4530Y151304D01*
X4530Y152216D02*
X23570Y152216D01*
X23570Y153128D02*
X4530Y153128D01*
X4530Y154040D02*
X23570Y154040D01*
X23570Y154952D02*
X4530Y154952D01*
X4530Y155864D02*
X23570Y155864D01*
X23570Y156776D02*
X4530Y156776D01*
X4530Y157688D02*
X23570Y157688D01*
X23570Y158600D02*
X4530Y158600D01*
X4530Y159512D02*
X23570Y159512D01*
X23570Y160424D02*
X4530Y160424D01*
X4530Y104520D02*
X4530Y93480D01*
X4530Y104520D02*
X23570Y104520D01*
X23570Y93480D01*
X4530Y93480D01*
X4530Y94392D02*
X23570Y94392D01*
X23570Y95304D02*
X4530Y95304D01*
X4530Y96216D02*
X23570Y96216D01*
X23570Y97128D02*
X4530Y97128D01*
X4530Y98040D02*
X23570Y98040D01*
X23570Y98952D02*
X4530Y98952D01*
X4530Y99864D02*
X23570Y99864D01*
X23570Y100776D02*
X4530Y100776D01*
X4530Y101688D02*
X23570Y101688D01*
X23570Y102600D02*
X4530Y102600D01*
X4530Y103512D02*
X23570Y103512D01*
X23570Y104424D02*
X4530Y104424D01*
D12*
X44560Y139510D02*
X44560Y144490D01*
X57040Y144490D01*
X57040Y139510D01*
X44560Y139510D01*
X44560Y140479D02*
X57040Y140479D01*
X57040Y141448D02*
X44560Y141448D01*
X44560Y142417D02*
X57040Y142417D01*
X57040Y143386D02*
X44560Y143386D01*
X44560Y144355D02*
X57040Y144355D01*
X44560Y134490D02*
X44560Y129510D01*
X44560Y134490D02*
X57040Y134490D01*
X57040Y129510D01*
X44560Y129510D01*
X44560Y130479D02*
X57040Y130479D01*
X57040Y131448D02*
X44560Y131448D01*
X44560Y132417D02*
X57040Y132417D01*
X57040Y133386D02*
X44560Y133386D01*
X44560Y134355D02*
X57040Y134355D01*
X44560Y124490D02*
X44560Y119510D01*
X44560Y124490D02*
X57040Y124490D01*
X57040Y119510D01*
X44560Y119510D01*
X44560Y120479D02*
X57040Y120479D01*
X57040Y121448D02*
X44560Y121448D01*
X44560Y122417D02*
X57040Y122417D01*
X57040Y123386D02*
X44560Y123386D01*
X44560Y124355D02*
X57040Y124355D01*
X44560Y114490D02*
X44560Y109510D01*
X44560Y114490D02*
X57040Y114490D01*
X57040Y109510D01*
X44560Y109510D01*
X44560Y110479D02*
X57040Y110479D01*
X57040Y111448D02*
X44560Y111448D01*
X44560Y112417D02*
X57040Y112417D01*
X57040Y113386D02*
X44560Y113386D01*
X44560Y114355D02*
X57040Y114355D01*
D13*
X17216Y178626D02*
X10216Y178626D01*
X17216Y178626D02*
X17216Y171626D01*
X10216Y171626D01*
X10216Y178626D01*
X10216Y174476D02*
X17216Y174476D01*
X17216Y177326D02*
X10216Y177326D01*
X10216Y196166D02*
X17216Y196166D01*
X17216Y189166D01*
X10216Y189166D01*
X10216Y196166D01*
X10216Y192016D02*
X17216Y192016D01*
X17216Y194866D02*
X10216Y194866D01*
D10*
X25218Y196888D02*
X25218Y186888D01*
X25218Y196888D02*
X34218Y196888D01*
X34218Y186888D01*
X25218Y186888D01*
X25218Y187838D02*
X34218Y187838D01*
X34218Y188788D02*
X25218Y188788D01*
X25218Y189738D02*
X34218Y189738D01*
X34218Y190688D02*
X25218Y190688D01*
X25218Y191638D02*
X34218Y191638D01*
X34218Y192588D02*
X25218Y192588D01*
X25218Y193538D02*
X34218Y193538D01*
X34218Y194488D02*
X25218Y194488D01*
X25218Y195438D02*
X34218Y195438D01*
X34218Y196388D02*
X25218Y196388D01*
X25218Y179888D02*
X25218Y169888D01*
X25218Y179888D02*
X34218Y179888D01*
X34218Y169888D01*
X25218Y169888D01*
X25218Y170838D02*
X34218Y170838D01*
X34218Y171788D02*
X25218Y171788D01*
X25218Y172738D02*
X34218Y172738D01*
X34218Y173688D02*
X25218Y173688D01*
X25218Y174638D02*
X34218Y174638D01*
X34218Y175588D02*
X25218Y175588D01*
X25218Y176538D02*
X34218Y176538D01*
X34218Y177488D02*
X25218Y177488D01*
X25218Y178438D02*
X34218Y178438D01*
X34218Y179388D02*
X25218Y179388D01*
X177220Y142550D02*
X177220Y132550D01*
X168220Y132550D01*
X168220Y142550D01*
X177220Y142550D01*
X177220Y133500D02*
X168220Y133500D01*
X168220Y134450D02*
X177220Y134450D01*
X177220Y135400D02*
X168220Y135400D01*
X168220Y136350D02*
X177220Y136350D01*
X177220Y137300D02*
X168220Y137300D01*
X168220Y138250D02*
X177220Y138250D01*
X177220Y139200D02*
X168220Y139200D01*
X168220Y140150D02*
X177220Y140150D01*
X177220Y141100D02*
X168220Y141100D01*
X168220Y142050D02*
X177220Y142050D01*
X177220Y149550D02*
X177220Y159550D01*
X177220Y149550D02*
X168220Y149550D01*
X168220Y159550D01*
X177220Y159550D01*
X177220Y150500D02*
X168220Y150500D01*
X168220Y151450D02*
X177220Y151450D01*
X177220Y152400D02*
X168220Y152400D01*
X168220Y153350D02*
X177220Y153350D01*
X177220Y154300D02*
X168220Y154300D01*
X168220Y155250D02*
X177220Y155250D01*
X177220Y156200D02*
X168220Y156200D01*
X168220Y157150D02*
X177220Y157150D01*
X177220Y158100D02*
X168220Y158100D01*
X168220Y159050D02*
X177220Y159050D01*
X177220Y87940D02*
X177220Y77940D01*
X168220Y77940D01*
X168220Y87940D01*
X177220Y87940D01*
X177220Y78890D02*
X168220Y78890D01*
X168220Y79840D02*
X177220Y79840D01*
X177220Y80790D02*
X168220Y80790D01*
X168220Y81740D02*
X177220Y81740D01*
X177220Y82690D02*
X168220Y82690D01*
X168220Y83640D02*
X177220Y83640D01*
X177220Y84590D02*
X168220Y84590D01*
X168220Y85540D02*
X177220Y85540D01*
X177220Y86490D02*
X168220Y86490D01*
X168220Y87440D02*
X177220Y87440D01*
X177220Y94940D02*
X177220Y104940D01*
X177220Y94940D02*
X168220Y94940D01*
X168220Y104940D01*
X177220Y104940D01*
X177220Y95890D02*
X168220Y95890D01*
X168220Y96840D02*
X177220Y96840D01*
X177220Y97790D02*
X168220Y97790D01*
X168220Y98740D02*
X177220Y98740D01*
X177220Y99690D02*
X168220Y99690D01*
X168220Y100640D02*
X177220Y100640D01*
X177220Y101590D02*
X168220Y101590D01*
X168220Y102540D02*
X177220Y102540D01*
X177220Y103490D02*
X168220Y103490D01*
X168220Y104440D02*
X177220Y104440D01*
D12*
X140515Y120490D02*
X136735Y120490D01*
X140515Y120490D02*
X140515Y118510D01*
X136735Y118510D01*
X136735Y120490D01*
X136735Y119479D02*
X140515Y119479D01*
X140515Y120448D02*
X136735Y120448D01*
X136735Y125490D02*
X140515Y125490D01*
X140515Y123510D01*
X136735Y123510D01*
X136735Y125490D01*
X136735Y124479D02*
X140515Y124479D01*
X140515Y125448D02*
X136735Y125448D01*
X136735Y130490D02*
X140515Y130490D01*
X140515Y128510D01*
X136735Y128510D01*
X136735Y130490D01*
X136735Y129479D02*
X140515Y129479D01*
X140515Y130448D02*
X136735Y130448D01*
X136735Y135490D02*
X140515Y135490D01*
X140515Y133510D01*
X136735Y133510D01*
X136735Y135490D01*
X136735Y134479D02*
X140515Y134479D01*
X140515Y135448D02*
X136735Y135448D01*
X117265Y133510D02*
X113485Y133510D01*
X113485Y135490D01*
X117265Y135490D01*
X117265Y133510D01*
X117265Y134479D02*
X113485Y134479D01*
X113485Y135448D02*
X117265Y135448D01*
X117265Y128510D02*
X113485Y128510D01*
X113485Y130490D01*
X117265Y130490D01*
X117265Y128510D01*
X117265Y129479D02*
X113485Y129479D01*
X113485Y130448D02*
X117265Y130448D01*
X117265Y123510D02*
X113485Y123510D01*
X113485Y125490D01*
X117265Y125490D01*
X117265Y123510D01*
X117265Y124479D02*
X113485Y124479D01*
X113485Y125448D02*
X117265Y125448D01*
X117265Y118510D02*
X113485Y118510D01*
X113485Y120490D01*
X117265Y120490D01*
X117265Y118510D01*
X117265Y119479D02*
X113485Y119479D01*
X113485Y120448D02*
X117265Y120448D01*
X131010Y138890D02*
X132990Y138890D01*
X132990Y135110D01*
X131010Y135110D01*
X131010Y138890D01*
X131010Y136079D02*
X132990Y136079D01*
X132990Y137048D02*
X131010Y137048D01*
X131010Y138017D02*
X132990Y138017D01*
X127990Y138890D02*
X126010Y138890D01*
X127990Y138890D02*
X127990Y135110D01*
X126010Y135110D01*
X126010Y138890D01*
X126010Y136079D02*
X127990Y136079D01*
X127990Y137048D02*
X126010Y137048D01*
X126010Y138017D02*
X127990Y138017D01*
X122990Y138890D02*
X121010Y138890D01*
X122990Y138890D02*
X122990Y135110D01*
X121010Y135110D01*
X121010Y138890D01*
X121010Y136079D02*
X122990Y136079D01*
X122990Y137048D02*
X121010Y137048D01*
X121010Y138017D02*
X122990Y138017D01*
X122990Y115110D02*
X121010Y115110D01*
X121010Y118890D01*
X122990Y118890D01*
X122990Y115110D01*
X122990Y116079D02*
X121010Y116079D01*
X121010Y117048D02*
X122990Y117048D01*
X122990Y118017D02*
X121010Y118017D01*
X126010Y115110D02*
X127990Y115110D01*
X126010Y115110D02*
X126010Y118890D01*
X127990Y118890D01*
X127990Y115110D01*
X127990Y116079D02*
X126010Y116079D01*
X126010Y117048D02*
X127990Y117048D01*
X127990Y118017D02*
X126010Y118017D01*
X131010Y115110D02*
X132990Y115110D01*
X131010Y115110D02*
X131010Y118890D01*
X132990Y118890D01*
X132990Y115110D01*
X132990Y116079D02*
X131010Y116079D01*
X131010Y117048D02*
X132990Y117048D01*
X132990Y118017D02*
X131010Y118017D01*
D10*
X141660Y175730D02*
X141660Y185730D01*
X141660Y175730D02*
X132660Y175730D01*
X132660Y185730D01*
X141660Y185730D01*
X141660Y176680D02*
X132660Y176680D01*
X132660Y177630D02*
X141660Y177630D01*
X141660Y178580D02*
X132660Y178580D01*
X132660Y179530D02*
X141660Y179530D01*
X141660Y180480D02*
X132660Y180480D01*
X132660Y181430D02*
X141660Y181430D01*
X141660Y182380D02*
X132660Y182380D01*
X132660Y183330D02*
X141660Y183330D01*
X141660Y184280D02*
X132660Y184280D01*
X132660Y185230D02*
X141660Y185230D01*
X141660Y192730D02*
X141660Y202730D01*
X141660Y192730D02*
X132660Y192730D01*
X132660Y202730D01*
X141660Y202730D01*
X141660Y193680D02*
X132660Y193680D01*
X132660Y194630D02*
X141660Y194630D01*
X141660Y195580D02*
X132660Y195580D01*
X132660Y196530D02*
X141660Y196530D01*
X141660Y197480D02*
X132660Y197480D01*
X132660Y198430D02*
X141660Y198430D01*
X141660Y199380D02*
X132660Y199380D01*
X132660Y200330D02*
X141660Y200330D01*
X141660Y201280D02*
X132660Y201280D01*
X132660Y202230D02*
X141660Y202230D01*
X90860Y185730D02*
X90860Y175730D01*
X81860Y175730D01*
X81860Y185730D01*
X90860Y185730D01*
X90860Y176680D02*
X81860Y176680D01*
X81860Y177630D02*
X90860Y177630D01*
X90860Y178580D02*
X81860Y178580D01*
X81860Y179530D02*
X90860Y179530D01*
X90860Y180480D02*
X81860Y180480D01*
X81860Y181430D02*
X90860Y181430D01*
X90860Y182380D02*
X81860Y182380D01*
X81860Y183330D02*
X90860Y183330D01*
X90860Y184280D02*
X81860Y184280D01*
X81860Y185230D02*
X90860Y185230D01*
X90860Y192730D02*
X90860Y202730D01*
X90860Y192730D02*
X81860Y192730D01*
X81860Y202730D01*
X90860Y202730D01*
X90860Y193680D02*
X81860Y193680D01*
X81860Y194630D02*
X90860Y194630D01*
X90860Y195580D02*
X81860Y195580D01*
X81860Y196530D02*
X90860Y196530D01*
X90860Y197480D02*
X81860Y197480D01*
X81860Y198430D02*
X90860Y198430D01*
X90860Y199380D02*
X81860Y199380D01*
X81860Y200330D02*
X90860Y200330D01*
X90860Y201280D02*
X81860Y201280D01*
X81860Y202230D02*
X90860Y202230D01*
X156900Y185730D02*
X156900Y175730D01*
X147900Y175730D01*
X147900Y185730D01*
X156900Y185730D01*
X156900Y176680D02*
X147900Y176680D01*
X147900Y177630D02*
X156900Y177630D01*
X156900Y178580D02*
X147900Y178580D01*
X147900Y179530D02*
X156900Y179530D01*
X156900Y180480D02*
X147900Y180480D01*
X147900Y181430D02*
X156900Y181430D01*
X156900Y182380D02*
X147900Y182380D01*
X147900Y183330D02*
X156900Y183330D01*
X156900Y184280D02*
X147900Y184280D01*
X147900Y185230D02*
X156900Y185230D01*
X156900Y192730D02*
X156900Y202730D01*
X156900Y192730D02*
X147900Y192730D01*
X147900Y202730D01*
X156900Y202730D01*
X156900Y193680D02*
X147900Y193680D01*
X147900Y194630D02*
X156900Y194630D01*
X156900Y195580D02*
X147900Y195580D01*
X147900Y196530D02*
X156900Y196530D01*
X156900Y197480D02*
X147900Y197480D01*
X147900Y198430D02*
X156900Y198430D01*
X156900Y199380D02*
X147900Y199380D01*
X147900Y200330D02*
X156900Y200330D01*
X156900Y201280D02*
X147900Y201280D01*
X147900Y202230D02*
X156900Y202230D01*
X106100Y185730D02*
X106100Y175730D01*
X97100Y175730D01*
X97100Y185730D01*
X106100Y185730D01*
X106100Y176680D02*
X97100Y176680D01*
X97100Y177630D02*
X106100Y177630D01*
X106100Y178580D02*
X97100Y178580D01*
X97100Y179530D02*
X106100Y179530D01*
X106100Y180480D02*
X97100Y180480D01*
X97100Y181430D02*
X106100Y181430D01*
X106100Y182380D02*
X97100Y182380D01*
X97100Y183330D02*
X106100Y183330D01*
X106100Y184280D02*
X97100Y184280D01*
X97100Y185230D02*
X106100Y185230D01*
X106100Y192730D02*
X106100Y202730D01*
X106100Y192730D02*
X97100Y192730D01*
X97100Y202730D01*
X106100Y202730D01*
X106100Y193680D02*
X97100Y193680D01*
X97100Y194630D02*
X106100Y194630D01*
X106100Y195580D02*
X97100Y195580D01*
X97100Y196530D02*
X106100Y196530D01*
X106100Y197480D02*
X97100Y197480D01*
X97100Y198430D02*
X106100Y198430D01*
X106100Y199380D02*
X97100Y199380D01*
X97100Y200330D02*
X106100Y200330D01*
X106100Y201280D02*
X97100Y201280D01*
X97100Y202230D02*
X106100Y202230D01*
X112340Y202730D02*
X112340Y192730D01*
X112340Y202730D02*
X121340Y202730D01*
X121340Y192730D01*
X112340Y192730D01*
X112340Y193680D02*
X121340Y193680D01*
X121340Y194630D02*
X112340Y194630D01*
X112340Y195580D02*
X121340Y195580D01*
X121340Y196530D02*
X112340Y196530D01*
X112340Y197480D02*
X121340Y197480D01*
X121340Y198430D02*
X112340Y198430D01*
X112340Y199380D02*
X121340Y199380D01*
X121340Y200330D02*
X112340Y200330D01*
X112340Y201280D02*
X121340Y201280D01*
X121340Y202230D02*
X112340Y202230D01*
X112340Y185730D02*
X112340Y175730D01*
X112340Y185730D02*
X121340Y185730D01*
X121340Y175730D01*
X112340Y175730D01*
X112340Y176680D02*
X121340Y176680D01*
X121340Y177630D02*
X112340Y177630D01*
X112340Y178580D02*
X121340Y178580D01*
X121340Y179530D02*
X112340Y179530D01*
X112340Y180480D02*
X121340Y180480D01*
X121340Y181430D02*
X112340Y181430D01*
X112340Y182380D02*
X121340Y182380D01*
X121340Y183330D02*
X112340Y183330D01*
X112340Y184280D02*
X121340Y184280D01*
X121340Y185230D02*
X112340Y185230D01*
X163140Y192730D02*
X163140Y202730D01*
X172140Y202730D01*
X172140Y192730D01*
X163140Y192730D01*
X163140Y193680D02*
X172140Y193680D01*
X172140Y194630D02*
X163140Y194630D01*
X163140Y195580D02*
X172140Y195580D01*
X172140Y196530D02*
X163140Y196530D01*
X163140Y197480D02*
X172140Y197480D01*
X172140Y198430D02*
X163140Y198430D01*
X163140Y199380D02*
X172140Y199380D01*
X172140Y200330D02*
X163140Y200330D01*
X163140Y201280D02*
X172140Y201280D01*
X172140Y202230D02*
X163140Y202230D01*
X163140Y185730D02*
X163140Y175730D01*
X163140Y185730D02*
X172140Y185730D01*
X172140Y175730D01*
X163140Y175730D01*
X163140Y176680D02*
X172140Y176680D01*
X172140Y177630D02*
X163140Y177630D01*
X163140Y178580D02*
X172140Y178580D01*
X172140Y179530D02*
X163140Y179530D01*
X163140Y180480D02*
X172140Y180480D01*
X172140Y181430D02*
X163140Y181430D01*
X163140Y182380D02*
X172140Y182380D01*
X172140Y183330D02*
X163140Y183330D01*
X163140Y184280D02*
X172140Y184280D01*
X172140Y185230D02*
X163140Y185230D01*
M02*
