M48
;GenerationSoftware,Autodesk,EAGLE,9.6.2*%
;CreationDate,2023-03-31T19:27:05Z*%
FMAT,2
ICI,OFF
METRIC,TZ,000.000
T3C0.305
T2C1.016
T1C3.048
%
G90
M71
T1
X152400Y28448
X152400Y100584
X2540Y22860
X2540Y2540
X22860Y2540
X22860Y22860
X28448Y22860
X28448Y2540
X48768Y2540
X48768Y22860
X54356Y22860
X54356Y2540
X74676Y2540
X74676Y22860
X80264Y22860
X80264Y2540
X100584Y2540
X100584Y22860
X106172Y22860
X106172Y2540
X126492Y2540
X126492Y22860
X132080Y22860
X132080Y2540
X152400Y2540
X152400Y22860
X2540Y48768
X2540Y28448
X22860Y28448
X22860Y48768
X28448Y48768
X28448Y28448
X48768Y28448
X48768Y48768
X54356Y48768
X54356Y28448
X74676Y28448
X74676Y48768
X80264Y48768
X80264Y28448
X100584Y28448
X100584Y48768
X106172Y48768
X106172Y28448
X126492Y28448
X126492Y48768
X132080Y48768
X132080Y28448
X152400Y80264
X152400Y48768
X2540Y74676
X2540Y54356
X22860Y54356
X22860Y74676
X28448Y74676
X28448Y54356
X48768Y54356
X48768Y74676
X54356Y74676
X54356Y54356
X74676Y54356
X74676Y74676
X80264Y74676
X80264Y54356
X100584Y54356
X100584Y74676
X106172Y74676
X106172Y54356
X126492Y54356
X126492Y74676
X132080Y74676
X132080Y54356
X152400Y54356
X152400Y74676
X2540Y100584
X2540Y80264
X22860Y80264
X22860Y100584
X28448Y100584
X28448Y80264
X48768Y80264
X48768Y100584
X54356Y100584
X54356Y80264
X74676Y80264
X74676Y100584
X80264Y100584
X80264Y80264
X100584Y80264
X100584Y100584
X106172Y100584
X106172Y80264
X126492Y80264
X126492Y100584
X132080Y100584
X132080Y80264
T2
X84074Y1270
X148590Y101854
X19050Y1270
X16510Y1270
X13970Y1270
X11430Y1270
X8890Y1270
X6350Y1270
X6350Y24130
X8890Y24130
X11430Y24130
X13970Y24130
X16510Y24130
X19050Y24130
X44958Y1270
X42418Y1270
X39878Y1270
X37338Y1270
X34798Y1270
X32258Y1270
X32258Y24130
X34798Y24130
X37338Y24130
X39878Y24130
X42418Y24130
X44958Y24130
X70866Y1270
X68326Y1270
X65786Y1270
X63246Y1270
X60706Y1270
X58166Y1270
X58166Y24130
X60706Y24130
X63246Y24130
X65786Y24130
X68326Y24130
X70866Y24130
X96774Y1270
X94234Y1270
X91694Y1270
X89154Y1270
X86614Y1270
X84074Y24130
X86614Y24130
X89154Y24130
X91694Y24130
X94234Y24130
X96774Y24130
X122682Y1270
X120142Y1270
X117602Y1270
X115062Y1270
X112522Y1270
X109982Y1270
X109982Y24130
X112522Y24130
X115062Y24130
X117602Y24130
X120142Y24130
X122682Y24130
X148590Y1270
X146050Y1270
X143510Y1270
X140970Y1270
X138430Y1270
X135890Y1270
X135890Y24130
X138430Y24130
X140970Y24130
X143510Y24130
X146050Y24130
X148590Y24130
X19050Y27178
X16510Y27178
X13970Y27178
X11430Y27178
X8890Y27178
X6350Y27178
X6350Y50038
X8890Y50038
X11430Y50038
X13970Y50038
X16510Y50038
X19050Y50038
X44958Y27178
X42418Y27178
X39878Y27178
X37338Y27178
X34798Y27178
X32258Y27178
X32258Y50038
X34798Y50038
X37338Y50038
X39878Y50038
X42418Y50038
X44958Y50038
X70866Y27178
X68326Y27178
X65786Y27178
X63246Y27178
X60706Y27178
X58166Y27178
X58166Y50038
X60706Y50038
X63246Y50038
X65786Y50038
X68326Y50038
X70866Y50038
X96774Y27178
X94234Y27178
X91694Y27178
X89154Y27178
X86614Y27178
X84074Y27178
X84074Y50038
X86614Y50038
X89154Y50038
X91694Y50038
X94234Y50038
X96774Y50038
X122682Y27178
X120142Y27178
X117602Y27178
X115062Y27178
X112522Y27178
X109982Y27178
X109982Y50038
X112522Y50038
X115062Y50038
X117602Y50038
X120142Y50038
X122682Y50038
X148590Y27178
X146050Y27178
X143510Y27178
X140970Y27178
X138430Y27178
X135890Y27178
X135890Y50038
X138430Y50038
X140970Y50038
X143510Y50038
X146050Y50038
X148590Y50038
X19050Y53086
X16510Y53086
X13970Y53086
X11430Y53086
X8890Y53086
X6350Y53086
X6350Y75946
X8890Y75946
X11430Y75946
X13970Y75946
X16510Y75946
X19050Y75946
X44958Y53086
X42418Y53086
X39878Y53086
X37338Y53086
X34798Y53086
X32258Y53086
X32258Y75946
X34798Y75946
X37338Y75946
X39878Y75946
X42418Y75946
X44958Y75946
X70866Y53086
X68326Y53086
X65786Y53086
X63246Y53086
X60706Y53086
X58166Y53086
X58166Y75946
X60706Y75946
X63246Y75946
X65786Y75946
X68326Y75946
X70866Y75946
X96774Y53086
X94234Y53086
X91694Y53086
X89154Y53086
X86614Y53086
X84074Y53086
X84074Y75946
X86614Y75946
X89154Y75946
X91694Y75946
X94234Y75946
X96774Y75946
X122682Y53086
X120142Y53086
X117602Y53086
X115062Y53086
X112522Y53086
X109982Y53086
X109982Y75946
X112522Y75946
X115062Y75946
X117602Y75946
X120142Y75946
X122682Y75946
X148590Y53086
X146050Y53086
X143510Y53086
X140970Y53086
X138430Y53086
X135890Y53086
X135890Y75946
X138430Y75946
X140970Y75946
X143510Y75946
X146050Y75946
X148590Y75946
X19050Y78994
X16510Y78994
X13970Y78994
X11430Y78994
X8890Y78994
X6350Y78994
X6350Y101854
X8890Y101854
X11430Y101854
X13970Y101854
X16510Y101854
X19050Y101854
X44958Y78994
X42418Y78994
X39878Y78994
X37338Y78994
X34798Y78994
X32258Y78994
X32258Y101854
X34798Y101854
X37338Y101854
X39878Y101854
X42418Y101854
X44958Y101854
X70866Y78994
X68326Y78994
X65786Y78994
X63246Y78994
X60706Y78994
X58166Y78994
X58166Y101854
X60706Y101854
X63246Y101854
X65786Y101854
X68326Y101854
X70866Y101854
X96774Y78994
X94234Y78994
X91694Y78994
X89154Y78994
X86614Y78994
X84074Y78994
X84074Y101854
X86614Y101854
X89154Y101854
X91694Y101854
X94234Y101854
X96774Y101854
X122682Y78994
X120142Y78994
X117602Y78994
X115062Y78994
X112522Y78994
X109982Y78994
X109982Y101854
X112522Y101854
X115062Y101854
X117602Y101854
X120142Y101854
X122682Y101854
X148590Y78994
X146050Y78994
X143510Y78994
X140970Y78994
X138430Y78994
X135890Y78994
X135890Y101854
X138430Y101854
X140970Y101854
X143510Y101854
X146050Y101854
T3
X137485Y13907
X142240Y7315
X144272Y7287
X131267Y16561
X148463Y13716
X138176Y11282
X138176Y14224
X147955Y10160
X147193Y20955
X141986Y21082
X142240Y19812
X138176Y20955
X17272Y33223
X6477Y40107
X5639Y34950
X9169Y36398
X18466Y35179
X14453Y40132
X18847Y40411
X18212Y31115
X10160Y28143
X4166Y44856
X21565Y37059
X12243Y32588
X10541Y46990
X17145Y42901
X15164Y32588
X7112Y37694
X16104Y36246
X15164Y48997
X7366Y41250
X14478Y29693
X1270Y38608
X1270Y33528
X24130Y33528
X12090Y29693
X23139Y44983
X22860Y38608
X12090Y42164
X12700Y44933
X10719Y41250
X2896Y42240
X6274Y36576
X18466Y46812
X17780Y27889
X15824Y34973
X12776Y31953
X9398Y35433
X7595Y28905
X6452Y34950
X16005Y38478
X19050Y31115
X16510Y42545
X9271Y42799
X12970Y42053
X6350Y44958
X7239Y38481
X7239Y39766
X8887Y30858
X9652Y34036
X21463Y38100
X14732Y41123
X18288Y41148
X10680Y39414
X3810Y42545
X7993Y37848
X7945Y39815
X12700Y33223
X14732Y33195
X1727Y42469
X18923Y39624
X8636Y37190
X8636Y40132
X18415Y36068
X17653Y46863
X12446Y46990
X12700Y45720
X8636Y46863
X43180Y33223
X32385Y40107
X31547Y34950
X35077Y36398
X44374Y35179
X40361Y40132
X44755Y40411
X44120Y31115
X36068Y28143
X30074Y44856
X47473Y37059
X38151Y32588
X36449Y46990
X43053Y42901
X41072Y32588
X33020Y37694
X42012Y36246
X41072Y48997
X33274Y41250
X40386Y29693
X27178Y38608
X27178Y33528
X50038Y33528
X37998Y29693
X49047Y44983
X48768Y38608
X37998Y42164
X38608Y44933
X36627Y41250
X28804Y42240
X32182Y36576
X44374Y46812
X43688Y27889
X41732Y34973
X38684Y31953
X35306Y35433
X33503Y28905
X32360Y34950
X41913Y38478
X44958Y31115
X42418Y42545
X35179Y42799
X38878Y42053
X32258Y44958
X33147Y38481
X33147Y39766
X34795Y30858
X35560Y34036
X47371Y38100
X40640Y41123
X44196Y41148
X36588Y39414
X29718Y42545
X33901Y37848
X33853Y39815
X38608Y33223
X40640Y33195
X27635Y42469
X44831Y39624
X34544Y37190
X34544Y40132
X44323Y36068
X43561Y46863
X38354Y46990
X38608Y45720
X34544Y46863
X69088Y33223
X58293Y40107
X57455Y34950
X60985Y36398
X70282Y35179
X66269Y40132
X70663Y40411
X70028Y31115
X61976Y28143
X55982Y44856
X73381Y37059
X64059Y32588
X62357Y46990
X68961Y42901
X66980Y32588
X58928Y37694
X67920Y36246
X66980Y48997
X59182Y41250
X66294Y29693
X53086Y38608
X53086Y33528
X75946Y33528
X63906Y29693
X74955Y44983
X74676Y38608
X63906Y42164
X64516Y44933
X62535Y41250
X54712Y42240
X58090Y36576
X70282Y46812
X69596Y27889
X67640Y34973
X64592Y31953
X61214Y35433
X59411Y28905
X58268Y34950
X67821Y38478
X70866Y31115
X68326Y42545
X61087Y42799
X64786Y42053
X58166Y44958
X59055Y38481
X59055Y39766
X60703Y30858
X61468Y34036
X73279Y38100
X66548Y41123
X70104Y41148
X62496Y39414
X55626Y42545
X59809Y37848
X59761Y39815
X64516Y33223
X66548Y33195
X53543Y42469
X70739Y39624
X60452Y37190
X60452Y40132
X70231Y36068
X69469Y46863
X64262Y46990
X64516Y45720
X60452Y46863
X94996Y33223
X84201Y40107
X83363Y34950
X86893Y36398
X96190Y35179
X92177Y40132
X96571Y40411
X95936Y31115
X87884Y28143
X81890Y44856
X99289Y37059
X89967Y32588
X88265Y46990
X94869Y42901
X92888Y32588
X84836Y37694
X93828Y36246
X92888Y48997
X85090Y41250
X92202Y29693
X78994Y38608
X78994Y33528
X101854Y33528
X89814Y29693
X100863Y44983
X100584Y38608
X89814Y42164
X90424Y44933
X88443Y41250
X80620Y42240
X83998Y36576
X96190Y46812
X95504Y27889
X93548Y34973
X90500Y31953
X87122Y35433
X85319Y28905
X84176Y34950
X93729Y38478
X96774Y31115
X94234Y42545
X86995Y42799
X90694Y42053
X84074Y44958
X84963Y38481
X84963Y39766
X86611Y30858
X87376Y34036
X99187Y38100
X92456Y41123
X96012Y41148
X88404Y39414
X81534Y42545
X85717Y37848
X85669Y39815
X90424Y33223
X92456Y33195
X79451Y42469
X96647Y39624
X86360Y37190
X86360Y40132
X96139Y36068
X95377Y46863
X90170Y46990
X90424Y45720
X86360Y46863
X120904Y33223
X110109Y40107
X109271Y34950
X112801Y36398
X122098Y35179
X118085Y40132
X122479Y40411
X121844Y31115
X113792Y28143
X107798Y44856
X125197Y37059
X115875Y32588
X114173Y46990
X120777Y42901
X118796Y32588
X110744Y37694
X119736Y36246
X118796Y48997
X110998Y41250
X118110Y29693
X104902Y38608
X104902Y33528
X127762Y33528
X115722Y29693
X126771Y44983
X126492Y38608
X115722Y42164
X116332Y44933
X114351Y41250
X106528Y42240
X109906Y36576
X122098Y46812
X121412Y27889
X119456Y34973
X116408Y31953
X113030Y35433
X111227Y28905
X110084Y34950
X119637Y38478
X122682Y31115
X120142Y42545
X112903Y42799
X116602Y42053
X109982Y44958
X110871Y38481
X110871Y39766
X112519Y30858
X113284Y34036
X125095Y38100
X118364Y41123
X121920Y41148
X114312Y39414
X107442Y42545
X111625Y37848
X111577Y39815
X116332Y33223
X118364Y33195
X105359Y42469
X122555Y39624
X112268Y37190
X112268Y40132
X122047Y36068
X121285Y46863
X116078Y46990
X116332Y45720
X112268Y46863
X146812Y33223
X136017Y40107
X135179Y34950
X138709Y36398
X148006Y35179
X143993Y40132
X148387Y40411
X147752Y31115
X139700Y28143
X133706Y44856
X151105Y37059
X141783Y32588
X140081Y46990
X146685Y42901
X144704Y32588
X136652Y37694
X145644Y36246
X144704Y48997
X136906Y41250
X144018Y29693
X130810Y38608
X130810Y33528
X153670Y33528
X141630Y29693
X152679Y44983
X152400Y38608
X141630Y42164
X142240Y44933
X140259Y41250
X132436Y42240
X135814Y36576
X148006Y46812
X147320Y27889
X145364Y34973
X142316Y31953
X138938Y35433
X137135Y28905
X135992Y34950
X145545Y38478
X148590Y31115
X146050Y42545
X138811Y42799
X142510Y42053
X135890Y44958
X136779Y38481
X136779Y39766
X138427Y30858
X139192Y34036
X151003Y38100
X144272Y41123
X147828Y41148
X140220Y39414
X133350Y42545
X137533Y37848
X137485Y39815
X142240Y33223
X144272Y33195
X131267Y42469
X148463Y39624
X138176Y37190
X138176Y40132
X147955Y36068
X147193Y46863
X141986Y46990
X142240Y45720
X138176Y46863
X17272Y59131
X6477Y66015
X5639Y60858
X9169Y62306
X18466Y61087
X14453Y66040
X18847Y66319
X18212Y57023
X10160Y54051
X4166Y70764
X21565Y62967
X12243Y58496
X10541Y72898
X17145Y68809
X15164Y58496
X7112Y63602
X16104Y62154
X15164Y74905
X7366Y67158
X14478Y55601
X1270Y64516
X1270Y59436
X24130Y59436
X12090Y55601
X23139Y70891
X22860Y64516
X12090Y68072
X12700Y70841
X10719Y67158
X2896Y68148
X6274Y62484
X18466Y72720
X17780Y53797
X15824Y60881
X12776Y57861
X9398Y61341
X7595Y54813
X6452Y60858
X16005Y64386
X19050Y57023
X16510Y68453
X9271Y68707
X12970Y67961
X6350Y70866
X7239Y64389
X7239Y65674
X8887Y56766
X9652Y59944
X21463Y64008
X14732Y67031
X18288Y67056
X10680Y65322
X3810Y68453
X7993Y63756
X7945Y65723
X12700Y59131
X14732Y59103
X1727Y68377
X18923Y65532
X8636Y63098
X8636Y66040
X18415Y61976
X17653Y72771
X12446Y72898
X12700Y71628
X8636Y72771
X43180Y59131
X32385Y66015
X31547Y60858
X35077Y62306
X44374Y61087
X40361Y66040
X44755Y66319
X44120Y57023
X36068Y54051
X30074Y70764
X47473Y62967
X38151Y58496
X36449Y72898
X43053Y68809
X41072Y58496
X33020Y63602
X42012Y62154
X41072Y74905
X33274Y67158
X40386Y55601
X27178Y64516
X27178Y59436
X50038Y59436
X37998Y55601
X49047Y70891
X48768Y64516
X37998Y68072
X38608Y70841
X36627Y67158
X28804Y68148
X32182Y62484
X44374Y72720
X43688Y53797
X41732Y60881
X38684Y57861
X35306Y61341
X33503Y54813
X32360Y60858
X41913Y64386
X44958Y57023
X42418Y68453
X35179Y68707
X38878Y67961
X32258Y70866
X33147Y64389
X33147Y65674
X34795Y56766
X35560Y59944
X47371Y64008
X40640Y67031
X44196Y67056
X36588Y65322
X29718Y68453
X33901Y63756
X33853Y65723
X38608Y59131
X40640Y59103
X27635Y68377
X44831Y65532
X34544Y63098
X34544Y66040
X44323Y61976
X43561Y72771
X38354Y72898
X38608Y71628
X34544Y72771
X69088Y59131
X58293Y66015
X57455Y60858
X60985Y62306
X70282Y61087
X66269Y66040
X70663Y66319
X70028Y57023
X61976Y54051
X55982Y70764
X73381Y62967
X64059Y58496
X62357Y72898
X68961Y68809
X66980Y58496
X58928Y63602
X67920Y62154
X66980Y74905
X59182Y67158
X66294Y55601
X53086Y64516
X53086Y59436
X75946Y59436
X63906Y55601
X74955Y70891
X74676Y64516
X63906Y68072
X64516Y70841
X62535Y67158
X54712Y68148
X58090Y62484
X70282Y72720
X69596Y53797
X67640Y60881
X64592Y57861
X61214Y61341
X59411Y54813
X58268Y60858
X67821Y64386
X70866Y57023
X68326Y68453
X61087Y68707
X64786Y67961
X58166Y70866
X59055Y64389
X59055Y65674
X60703Y56766
X61468Y59944
X73279Y64008
X66548Y67031
X70104Y67056
X62496Y65322
X55626Y68453
X59809Y63756
X59761Y65723
X64516Y59131
X66548Y59103
X53543Y68377
X70739Y65532
X60452Y63098
X99187Y12192
X70231Y61976
X69469Y72771
X64262Y72898
X64516Y71628
X60452Y72771
X94996Y59131
X84201Y66015
X83363Y60858
X86893Y62306
X96190Y61087
X92177Y66040
X96571Y66319
X95936Y57023
X87884Y54051
X81890Y70764
X99289Y62967
X89967Y58496
X88265Y72898
X94869Y68809
X92888Y58496
X84836Y63602
X93828Y62154
X92888Y74905
X85090Y67158
X92202Y55601
X78994Y64516
X78994Y59436
X101854Y59436
X89814Y55601
X100863Y70891
X100584Y64516
X89814Y68072
X90424Y70841
X88443Y67158
X80620Y68148
X83998Y62484
X96190Y72720
X95504Y53797
X93548Y60881
X90500Y57861
X87122Y61341
X85319Y54813
X84176Y60858
X93729Y64386
X96774Y57023
X94234Y68453
X86995Y68707
X90694Y67961
X84074Y70866
X84963Y64389
X84963Y65674
X86611Y56766
X87376Y59944
X99187Y64008
X92456Y67031
X96012Y67056
X88404Y65322
X81534Y68453
X85717Y63756
X85669Y65723
X90424Y59131
X92456Y59103
X79451Y68377
X96647Y65532
X86360Y63098
X86360Y66040
X96139Y61976
X95377Y72771
X90170Y72898
X90424Y71628
X86360Y72771
X120904Y59131
X110109Y66015
X109271Y60858
X112801Y62306
X122098Y61087
X118085Y66040
X122479Y66319
X121844Y57023
X113792Y54051
X107798Y70764
X125197Y62967
X115875Y58496
X114173Y72898
X120777Y68809
X118796Y58496
X110744Y63602
X119736Y62154
X118796Y74905
X110998Y67158
X118110Y55601
X104902Y64516
X104902Y59436
X127762Y59436
X115722Y55601
X126771Y70891
X126492Y64516
X115722Y68072
X116332Y70841
X114351Y67158
X106528Y68148
X109906Y62484
X122098Y72720
X121412Y53797
X119456Y60881
X116408Y57861
X113030Y61341
X111227Y54813
X110084Y60858
X119637Y64386
X122682Y57023
X120142Y68453
X112903Y68707
X116602Y67961
X109982Y70866
X110871Y64389
X110871Y65674
X112519Y56766
X113284Y59944
X125095Y64008
X118364Y67031
X121920Y67056
X114312Y65322
X107442Y68453
X111625Y63756
X111577Y65723
X116332Y59131
X118364Y59103
X105359Y68377
X122555Y65532
X112268Y63098
X112268Y66040
X122047Y61976
X121285Y72771
X116078Y72898
X116332Y71628
X112268Y72771
X146812Y59131
X136017Y66015
X135179Y60858
X138709Y62306
X148006Y61087
X143993Y66040
X148387Y66319
X147752Y57023
X139700Y54051
X133706Y70764
X151105Y62967
X141783Y58496
X140081Y72898
X146685Y68809
X144704Y58496
X136652Y63602
X145644Y62154
X144704Y74905
X136906Y67158
X144018Y55601
X130810Y64516
X130810Y59436
X153670Y59436
X141630Y55601
X152679Y70891
X152400Y64516
X141630Y68072
X142240Y70841
X140259Y67158
X132436Y68148
X135814Y62484
X148006Y72720
X147320Y53797
X145364Y60881
X142316Y57861
X138938Y61341
X137135Y54813
X135992Y60858
X145545Y64386
X148590Y57023
X146050Y68453
X138811Y68707
X142510Y67961
X135890Y70866
X136779Y64389
X136779Y65674
X138427Y56766
X139192Y59944
X151003Y64008
X144272Y67031
X147828Y67056
X140220Y65322
X133350Y68453
X137533Y63756
X137485Y65723
X142240Y59131
X144272Y59103
X131267Y68377
X148463Y65532
X138176Y63098
X138176Y66040
X147955Y61976
X147193Y72771
X141986Y72898
X142240Y71628
X138176Y72771
X17272Y85039
X6477Y91923
X5639Y86766
X9169Y88214
X18466Y86995
X14453Y91948
X18847Y92227
X18212Y82931
X10160Y79959
X4166Y96672
X21565Y88875
X12243Y84404
X10541Y98806
X17145Y94717
X15164Y84404
X7112Y89510
X16104Y88062
X15164Y100813
X7366Y93066
X14478Y81509
X1270Y90424
X1270Y85344
X24130Y85344
X12090Y81509
X23139Y96799
X22860Y90424
X12090Y93980
X12700Y96749
X10719Y93066
X2896Y94056
X6274Y88392
X18466Y98628
X17780Y79705
X15824Y86789
X12776Y83769
X9398Y87249
X7595Y80721
X6452Y86766
X16005Y90294
X19050Y82931
X16510Y94361
X9271Y94615
X12970Y93869
X6350Y96774
X7239Y90297
X7239Y91582
X8887Y82674
X9652Y85852
X21463Y89916
X14732Y92939
X18288Y92964
X10680Y91230
X3810Y94361
X7993Y89664
X7945Y91631
X12700Y85039
X14732Y85011
X1727Y94285
X18923Y91440
X8636Y89006
X8636Y91948
X18415Y87884
X17653Y98679
X12446Y98806
X12700Y97536
X8636Y98679
X43180Y85039
X32385Y91923
X31547Y86766
X35077Y88214
X44374Y86995
X40361Y91948
X44755Y92227
X44120Y82931
X36068Y79959
X30074Y96672
X47473Y88875
X38151Y84404
X36449Y98806
X43053Y94717
X41072Y84404
X33020Y89510
X42012Y88062
X41072Y100813
X33274Y93066
X40386Y81509
X27178Y90424
X27178Y85344
X50038Y85344
X37998Y81509
X49047Y96799
X48768Y90424
X37998Y93980
X38608Y96749
X36627Y93066
X28804Y94056
X32182Y88392
X44374Y98628
X43688Y79705
X41732Y86789
X38684Y83769
X35306Y87249
X33503Y80721
X32360Y86766
X41913Y90294
X44958Y82931
X42418Y94361
X35179Y94615
X38878Y93869
X32258Y96774
X33147Y90297
X33147Y91582
X34795Y82674
X35560Y85852
X47371Y89916
X40640Y92939
X44196Y92964
X36588Y91230
X29718Y94361
X33901Y89664
X33853Y91631
X38608Y85039
X40640Y85011
X27635Y94285
X44831Y91440
X34544Y89006
X34544Y91948
X44323Y87884
X43561Y98679
X38354Y98806
X38608Y97536
X34544Y98679
X69088Y85039
X58293Y91923
X57455Y86766
X60985Y88214
X70282Y86995
X66269Y91948
X70663Y92227
X70028Y82931
X61976Y79959
X55982Y96672
X73381Y88875
X64059Y84404
X62357Y98806
X68961Y94717
X66980Y84404
X58928Y89510
X67920Y88062
X66980Y100813
X59182Y93066
X66294Y81509
X53086Y90424
X53086Y85344
X75946Y85344
X63906Y81509
X74955Y96799
X74676Y90424
X63906Y93980
X64516Y96749
X62535Y93066
X54712Y94056
X58090Y88392
X70282Y98628
X69596Y79705
X67640Y86789
X64592Y83769
X61214Y87249
X59411Y80721
X58268Y86766
X67821Y90294
X70866Y82931
X68326Y94361
X61087Y94615
X64786Y93869
X58166Y96774
X59055Y90297
X59055Y91582
X60703Y82674
X61468Y85852
X73279Y89916
X66548Y92939
X70104Y92964
X62496Y91230
X55626Y94361
X59809Y89664
X59761Y91631
X64516Y85039
X66548Y85011
X53543Y94285
X70739Y91440
X60452Y89006
X60452Y91948
X70231Y87884
X69469Y98679
X64262Y98806
X64516Y97536
X60452Y98679
X94996Y85039
X84201Y91923
X83363Y86766
X86893Y88214
X96190Y86995
X92177Y91948
X96571Y92227
X95936Y82931
X87884Y79959
X81890Y96672
X99289Y88875
X89967Y84404
X88265Y98806
X94869Y94717
X92888Y84404
X84836Y89510
X93828Y88062
X92888Y100813
X85090Y93066
X92202Y81509
X78994Y90424
X78994Y85344
X101854Y85344
X89814Y81509
X100863Y96799
X100584Y90424
X89814Y93980
X90424Y96749
X88443Y93066
X80620Y94056
X83998Y88392
X96190Y98628
X95504Y79705
X93548Y86789
X90500Y83769
X87122Y87249
X85319Y80721
X84176Y86766
X93729Y90294
X96774Y82931
X94234Y94361
X86995Y94615
X90694Y93869
X84074Y96774
X84963Y90297
X84963Y91582
X86611Y82674
X87376Y85852
X99187Y89916
X92456Y92939
X96012Y92964
X88404Y91230
X81534Y94361
X85717Y89664
X85669Y91631
X90424Y85039
X92456Y85011
X79451Y94285
X96647Y91440
X86360Y89006
X86360Y91948
X96139Y87884
X95377Y98679
X90170Y98806
X90424Y97536
X86360Y98679
X120904Y85039
X110109Y91923
X109271Y86766
X112801Y88214
X122098Y86995
X118085Y91948
X122479Y92227
X121844Y82931
X113792Y79959
X107798Y96672
X125197Y88875
X115875Y84404
X114173Y98806
X120777Y94717
X118796Y84404
X110744Y89510
X119736Y88062
X118796Y100813
X110998Y93066
X118110Y81509
X104902Y90424
X104902Y85344
X127762Y85344
X17272Y7315
X126771Y96799
X126492Y90424
X115722Y93980
X116332Y96749
X114351Y93066
X106528Y94056
X109906Y88392
X122098Y98628
X121412Y79705
X119456Y86789
X116408Y83769
X113030Y87249
X111227Y80721
X110084Y86766
X119637Y90294
X122682Y82931
X120142Y94361
X112903Y94615
X116602Y93869
X109982Y96774
X110871Y90297
X110871Y91582
X112519Y82674
X113284Y85852
X125095Y89916
X118364Y92939
X121920Y92964
X114312Y91230
X107442Y94361
X111625Y89664
X111577Y91631
X116332Y85039
X118364Y85011
X105359Y94285
X122555Y91440
X112268Y89006
X112268Y91948
X122047Y87884
X121285Y98679
X116078Y98806
X116332Y97536
X112268Y98679
X146812Y85039
X136017Y91923
X135179Y86766
X138709Y88214
X148006Y86995
X143993Y91948
X148387Y92227
X147752Y82931
X139700Y79959
X133706Y96672
X151105Y88875
X141783Y84404
X140081Y98806
X146685Y94717
X144704Y84404
X136652Y89510
X145644Y88062
X144704Y100813
X136906Y93066
X144018Y81509
X130810Y90424
X130810Y85344
X153670Y85344
X141630Y81509
X152679Y96799
X152400Y90424
X141630Y93980
X142240Y96749
X140259Y93066
X132436Y94056
X135814Y88392
X148006Y98628
X147320Y79705
X145364Y86789
X142316Y83769
X138938Y87249
X137135Y80721
X135992Y86766
X145545Y90294
X148590Y82931
X146050Y94361
X138811Y94615
X142510Y93869
X135890Y96774
X136779Y90297
X136779Y91582
X138427Y82674
X139192Y85852
X151003Y89916
X144272Y92939
X147828Y92964
X140220Y91230
X133350Y94361
X137533Y89664
X137485Y91631
X142240Y85039
X144272Y85011
X131267Y94285
X148463Y91440
X138176Y89006
X138176Y91948
X147955Y87884
X147193Y98679
X141986Y98806
X142240Y97536
X138176Y98679
X6477Y14199
X5639Y9042
X9169Y10490
X18466Y9271
X14453Y14224
X18847Y14503
X18212Y5207
X10160Y2235
X4166Y18948
X21565Y11151
X12243Y6680
X10541Y21082
X17145Y16993
X15164Y6680
X7112Y11786
X16104Y10338
X15164Y23089
X7366Y15342
X14478Y3785
X1270Y12700
X1270Y7620
X24130Y7620
X12090Y3785
X23139Y19075
X22860Y12700
X12090Y16256
X12700Y19025
X10719Y15342
X2896Y16332
X6274Y10668
X18466Y20904
X17780Y1981
X15824Y9065
X12776Y6045
X9398Y9525
X7595Y2997
X6452Y9042
X16005Y12570
X19050Y5207
X16510Y16637
X9271Y16891
X12970Y16145
X6350Y19050
X7239Y12573
X7239Y13858
X8887Y4950
X9652Y8128
X21463Y12192
X14732Y15215
X18288Y15240
X10680Y13506
X3810Y16637
X7993Y11940
X7945Y13907
X12700Y7315
X14732Y7287
X1727Y16561
X18923Y13716
X8636Y11282
X8636Y14224
X18415Y10160
X17653Y20955
X12446Y21082
X12700Y19812
X8636Y20955
X43180Y7315
X32385Y14199
X31547Y9042
X35077Y10490
X44374Y9271
X40361Y14224
X44755Y14503
X44120Y5207
X36068Y2235
X30074Y18948
X47473Y11151
X38151Y6680
X36449Y21082
X43053Y16993
X41072Y6680
X33020Y11786
X42012Y10338
X41072Y23089
X33274Y15342
X40386Y3785
X27178Y12700
X27178Y7620
X50038Y7620
X37998Y3785
X49047Y19075
X48768Y12700
X37998Y16256
X38608Y19025
X36627Y15342
X28804Y16332
X32182Y10668
X44374Y20904
X43688Y1981
X41732Y9065
X38684Y6045
X35306Y9525
X33503Y2997
X32360Y9042
X41913Y12570
X44958Y5207
X42418Y16637
X35179Y16891
X38878Y16145
X32258Y19050
X33147Y12573
X33147Y13858
X34795Y4950
X35560Y8128
X47371Y12192
X40640Y15215
X44196Y15240
X36588Y13506
X29718Y16637
X33901Y11940
X33853Y13907
X38608Y7315
X40640Y7287
X27635Y16561
X44831Y13716
X34544Y11282
X34544Y14224
X44323Y10160
X43561Y20955
X38354Y21082
X38608Y19812
X34544Y20955
X69088Y7315
X58293Y14199
X57455Y9042
X60985Y10490
X70282Y9271
X66269Y14224
X60452Y66040
X70663Y14503
X70028Y5207
X61976Y2235
X55982Y18948
X73381Y11151
X64059Y6680
X62357Y21082
X68961Y16993
X66980Y6680
X58928Y11786
X67920Y10338
X66980Y23089
X59182Y15342
X66294Y3785
X53086Y12700
X53086Y7620
X75946Y7620
X63906Y3785
X74955Y19075
X74676Y12700
X63906Y16256
X64516Y19025
X62535Y15342
X54712Y16332
X58090Y10668
X70282Y20904
X69596Y1981
X67640Y9065
X64592Y6045
X61214Y9525
X59411Y2997
X58268Y9042
X67821Y12570
X70866Y5207
X68326Y16637
X61087Y16891
X64786Y16145
X58166Y19050
X59055Y12573
X59055Y13858
X60703Y4950
X61468Y8128
X73279Y12192
X66548Y15215
X70104Y15240
X62496Y13506
X55626Y16637
X59809Y11940
X59761Y13907
X64516Y7315
X66548Y7287
X53543Y16561
X70739Y13716
X60452Y11282
X60452Y14224
X70231Y10160
X69469Y20955
X64262Y21082
X64516Y19812
X60452Y20955
X94996Y7315
X84201Y14199
X83363Y9042
X86893Y10490
X96190Y9271
X92177Y14224
X96571Y14503
X95936Y5207
X87884Y2235
X81890Y18948
X99289Y11151
X89967Y6680
X88265Y21082
X94869Y16993
X92888Y6680
X84836Y11786
X93828Y10338
X92888Y23089
X85090Y15342
X92202Y3785
X78994Y12700
X78994Y7620
X101854Y7620
X89814Y3785
X100863Y19075
X100584Y12700
X89814Y16256
X90424Y19025
X88443Y15342
X80620Y16332
X83998Y10668
X96190Y20904
X95504Y1981
X93548Y9065
X90500Y6045
X87122Y9525
X85319Y2997
X84176Y9042
X93729Y12570
X96774Y5207
X94234Y16637
X86995Y16891
X90694Y16145
X84074Y19050
X84963Y12573
X84963Y13858
X86611Y4950
X87376Y8128
X92456Y15215
X96012Y15240
X88404Y13506
X81534Y16637
X85717Y11940
X85669Y13907
X90424Y7315
X92456Y7287
X79451Y16561
X96647Y13716
X86360Y11282
X86360Y14224
X96139Y10160
X95377Y20955
X90170Y21082
X90424Y19812
X86360Y20955
X120904Y7315
X110109Y14199
X109271Y9042
X112801Y10490
X122098Y9271
X118085Y14224
X122479Y14503
X121844Y5207
X113792Y2235
X107798Y18948
X125197Y11151
X115875Y6680
X114173Y21082
X120777Y16993
X118796Y6680
X110744Y11786
X119736Y10338
X118796Y23089
X110998Y15342
X118110Y3785
X104902Y12700
X104902Y7620
X127762Y7620
X115722Y3785
X126771Y19075
X126492Y12700
X115722Y16256
X116332Y19025
X114351Y15342
X106528Y16332
X109906Y10668
X122098Y20904
X121412Y1981
X119456Y9065
X116408Y6045
X113030Y9525
X111227Y2997
X110084Y9042
X119637Y12570
X122682Y5207
X120142Y16637
X112903Y16891
X116602Y16145
X109982Y19050
X110871Y12573
X110871Y13858
X112519Y4950
X113284Y8128
X125095Y12192
X118364Y15215
X121920Y15240
X114312Y13506
X107442Y16637
X111625Y11940
X111577Y13907
X116332Y7315
X118364Y7287
X105359Y16561
X122555Y13716
X112268Y11282
X112268Y14224
X122047Y10160
X121285Y20955
X116078Y21082
X116332Y19812
X112268Y20955
X146812Y7315
X136017Y14199
X135179Y9042
X138709Y10490
X148006Y9271
X143993Y14224
X148387Y14503
X147752Y5207
X139700Y2235
X133706Y18948
X151105Y11151
X141783Y6680
X140081Y21082
X146685Y16993
X144704Y6680
X136652Y11786
X145644Y10338
X144704Y23089
X136906Y15342
X144018Y3785
X130810Y12700
X130810Y7620
X153670Y7620
X141630Y3785
X152679Y19075
X152400Y12700
X141630Y16256
X142240Y19025
X140259Y15342
X132436Y16332
X135814Y10668
X148006Y20904
X147320Y1981
X145364Y9065
X142316Y6045
X138938Y9525
X137135Y2997
X135992Y9042
X145545Y12570
X148590Y5207
X146050Y16637
X138811Y16891
X142510Y16145
X135890Y19050
X136779Y12573
X136779Y13858
X138427Y4950
X139192Y8128
X151003Y12192
X144272Y15215
X147828Y15240
X140220Y13506
X133350Y16637
X137533Y11940
X115722Y81509
M30