G04 EAGLE Gerber RS-274X export*
G75*
%MOMM*%
%FSLAX34Y34*%
%LPD*%
%INSilkscreen Top*%
%IPPOS*%
%AMOC8*
5,1,8,0,0,1.08239X$1,22.5*%
G01*
%ADD10C,0.152400*%
%ADD11C,0.203200*%
%ADD12C,0.560987*%

G36*
X46217Y5887D02*
X46217Y5887D01*
X46215Y5890D01*
X46219Y5892D01*
X46319Y6492D01*
X46316Y6497D01*
X46319Y6500D01*
X46319Y19400D01*
X46283Y19447D01*
X46280Y19445D01*
X46278Y19449D01*
X45678Y19549D01*
X45673Y19546D01*
X45670Y19549D01*
X4270Y19549D01*
X4264Y19545D01*
X4260Y19548D01*
X3760Y19448D01*
X3721Y19404D01*
X3733Y19393D01*
X3726Y19378D01*
X7015Y12700D01*
X6726Y12122D01*
X3726Y6122D01*
X3737Y6064D01*
X3749Y6066D01*
X3752Y6054D01*
X4252Y5854D01*
X4265Y5858D01*
X4270Y5851D01*
X46170Y5851D01*
X46217Y5887D01*
G37*
G36*
X45617Y56687D02*
X45617Y56687D01*
X45612Y56694D01*
X45619Y56700D01*
X45619Y70200D01*
X45583Y70247D01*
X45580Y70245D01*
X45578Y70249D01*
X44978Y70349D01*
X44973Y70346D01*
X44970Y70349D01*
X11170Y70349D01*
X11163Y70344D01*
X11154Y70347D01*
X11150Y70334D01*
X11123Y70313D01*
X11128Y70307D01*
X11127Y70306D01*
X11137Y70294D01*
X11136Y70293D01*
X11110Y70329D01*
X11078Y70339D01*
X11070Y70349D01*
X7770Y70349D01*
X7723Y70313D01*
X7726Y70309D01*
X7723Y70306D01*
X7725Y70303D01*
X7721Y70300D01*
X7721Y56800D01*
X7757Y56753D01*
X7760Y56755D01*
X7762Y56751D01*
X8362Y56651D01*
X8367Y56654D01*
X8370Y56651D01*
X45570Y56651D01*
X45617Y56687D01*
G37*
G36*
X74731Y4500D02*
X74731Y4500D01*
X74735Y4499D01*
X75218Y4546D01*
X75233Y4558D01*
X75253Y4561D01*
X75262Y4581D01*
X75271Y4588D01*
X75269Y4597D01*
X75274Y4609D01*
X75274Y7257D01*
X75268Y7266D01*
X75271Y7277D01*
X75251Y7293D01*
X75237Y7314D01*
X75226Y7313D01*
X75218Y7320D01*
X75175Y7305D01*
X75170Y7304D01*
X75170Y7303D01*
X75169Y7303D01*
X74837Y6994D01*
X74398Y6729D01*
X73905Y6591D01*
X73391Y6578D01*
X72880Y6652D01*
X72397Y6827D01*
X71966Y7105D01*
X71608Y7472D01*
X71335Y7909D01*
X71149Y8391D01*
X71043Y8899D01*
X71006Y9418D01*
X71046Y9937D01*
X71160Y10444D01*
X71357Y10921D01*
X71643Y11349D01*
X72015Y11704D01*
X72458Y11965D01*
X72949Y12121D01*
X73464Y12173D01*
X73977Y12132D01*
X74464Y11972D01*
X75177Y11513D01*
X75183Y11513D01*
X75185Y11509D01*
X75215Y11513D01*
X75245Y11513D01*
X75248Y11518D01*
X75253Y11519D01*
X75274Y11566D01*
X75274Y12043D01*
X75664Y12116D01*
X76701Y12116D01*
X76916Y11995D01*
X76927Y11995D01*
X76941Y11987D01*
X77003Y11981D01*
X77003Y11975D01*
X76993Y11953D01*
X76993Y4572D01*
X77006Y4553D01*
X77009Y4531D01*
X77025Y4523D01*
X77030Y4515D01*
X77040Y4516D01*
X77056Y4509D01*
X93997Y4500D01*
X94000Y4502D01*
X94004Y4501D01*
X95055Y4625D01*
X95059Y4628D01*
X95066Y4627D01*
X95572Y4784D01*
X95573Y4786D01*
X95576Y4785D01*
X96067Y4977D01*
X96069Y4980D01*
X96074Y4981D01*
X96540Y5233D01*
X96541Y5236D01*
X96546Y5237D01*
X96978Y5540D01*
X96979Y5542D01*
X96982Y5543D01*
X97390Y5880D01*
X97392Y5884D01*
X97397Y5887D01*
X97747Y6283D01*
X97747Y6284D01*
X97749Y6285D01*
X98080Y6698D01*
X98081Y6703D01*
X98086Y6707D01*
X98339Y7173D01*
X98339Y7174D01*
X98341Y7176D01*
X98565Y7653D01*
X98565Y7657D01*
X98568Y7661D01*
X98725Y8167D01*
X98725Y8170D01*
X98727Y8173D01*
X98833Y8689D01*
X98832Y8692D01*
X98834Y8696D01*
X98887Y9223D01*
X98886Y9226D01*
X98888Y9231D01*
X98874Y9758D01*
X98873Y9760D01*
X98874Y9762D01*
X98820Y10290D01*
X98818Y10293D01*
X98819Y10299D01*
X98686Y10810D01*
X98685Y10811D01*
X98685Y10813D01*
X98528Y11318D01*
X98524Y11322D01*
X98523Y11329D01*
X98274Y11796D01*
X98273Y11797D01*
X98272Y11799D01*
X98004Y12253D01*
X98000Y12255D01*
X98000Y12258D01*
X97999Y12259D01*
X97998Y12261D01*
X97661Y12670D01*
X97659Y12671D01*
X97657Y12674D01*
X97290Y13052D01*
X97287Y13052D01*
X97285Y13056D01*
X96876Y13394D01*
X96872Y13394D01*
X96869Y13398D01*
X96423Y13679D01*
X96421Y13679D01*
X96419Y13681D01*
X95954Y13934D01*
X95948Y13933D01*
X95943Y13938D01*
X94933Y14253D01*
X94928Y14252D01*
X94921Y14256D01*
X94394Y14309D01*
X93988Y14350D01*
X93985Y14348D01*
X93982Y14350D01*
X73852Y14350D01*
X73850Y14349D01*
X73847Y14350D01*
X72792Y14258D01*
X72788Y14255D01*
X72779Y14256D01*
X71767Y13949D01*
X71764Y13945D01*
X71756Y13945D01*
X71290Y13692D01*
X71289Y13690D01*
X71287Y13690D01*
X70838Y13413D01*
X70836Y13409D01*
X70831Y13408D01*
X70422Y13071D01*
X70421Y13068D01*
X70418Y13067D01*
X70047Y12692D01*
X70046Y12689D01*
X70043Y12688D01*
X69706Y12279D01*
X69705Y12275D01*
X69700Y12272D01*
X69428Y11819D01*
X69428Y11818D01*
X69427Y11817D01*
X69174Y11351D01*
X69174Y11345D01*
X69169Y11339D01*
X68873Y10324D01*
X68875Y10319D01*
X68871Y10312D01*
X68818Y9785D01*
X68819Y9783D01*
X68818Y9781D01*
X68799Y9254D01*
X68801Y9251D01*
X68800Y9246D01*
X68853Y8719D01*
X68854Y8716D01*
X68854Y8713D01*
X68955Y8196D01*
X68957Y8193D01*
X68957Y8189D01*
X69114Y7683D01*
X69117Y7681D01*
X69117Y7676D01*
X69337Y7196D01*
X69339Y7195D01*
X69339Y7193D01*
X69592Y6727D01*
X69596Y6725D01*
X69598Y6718D01*
X69926Y6303D01*
X69927Y6303D01*
X69927Y6301D01*
X69948Y6277D01*
X70003Y6214D01*
X70057Y6152D01*
X70111Y6089D01*
X70166Y6026D01*
X70220Y5963D01*
X70274Y5902D01*
X70275Y5901D01*
X70279Y5899D01*
X70281Y5894D01*
X70690Y5557D01*
X70692Y5557D01*
X70693Y5555D01*
X71123Y5248D01*
X71126Y5248D01*
X71129Y5244D01*
X71595Y4992D01*
X71598Y4992D01*
X71601Y4988D01*
X72091Y4792D01*
X72093Y4793D01*
X72096Y4791D01*
X72601Y4634D01*
X72606Y4635D01*
X72611Y4631D01*
X73134Y4556D01*
X73135Y4557D01*
X73136Y4556D01*
X73663Y4503D01*
X73666Y4504D01*
X73669Y4503D01*
X74729Y4499D01*
X74731Y4500D01*
G37*
%LPC*%
G36*
X33673Y58849D02*
X33673Y58849D01*
X32990Y58947D01*
X32616Y59227D01*
X32519Y59903D01*
X32519Y67396D01*
X32615Y67970D01*
X33084Y68251D01*
X36366Y68251D01*
X36959Y68152D01*
X37652Y67954D01*
X38247Y67657D01*
X38741Y67360D01*
X39335Y66865D01*
X39732Y66369D01*
X40128Y65873D01*
X40424Y65282D01*
X40621Y64593D01*
X40621Y62607D01*
X40424Y61918D01*
X40127Y61323D01*
X39830Y60829D01*
X39335Y60235D01*
X38841Y59840D01*
X38245Y59443D01*
X37651Y59146D01*
X37059Y58948D01*
X36367Y58849D01*
X33673Y58849D01*
G37*
%LPD*%
%LPC*%
G36*
X22590Y58849D02*
X22590Y58849D01*
X22216Y59224D01*
X22119Y59804D01*
X22119Y67296D01*
X22215Y67871D01*
X22785Y68251D01*
X23462Y68251D01*
X24041Y68058D01*
X24531Y67469D01*
X27331Y63770D01*
X27931Y62970D01*
X27936Y62969D01*
X27935Y62965D01*
X28135Y62765D01*
X28149Y62763D01*
X28157Y62753D01*
X28163Y62758D01*
X28170Y62758D01*
X28173Y62760D01*
X28194Y62757D01*
X28197Y62778D01*
X28217Y62794D01*
X28215Y62797D01*
X28219Y62800D01*
X28219Y67580D01*
X28890Y68251D01*
X29656Y68251D01*
X30130Y67966D01*
X30322Y67488D01*
X30421Y66697D01*
X30421Y60000D01*
X30457Y59953D01*
X30463Y59957D01*
X30468Y59951D01*
X30499Y59949D01*
X30470Y59949D01*
X30423Y59913D01*
X30425Y59910D01*
X30421Y59908D01*
X30324Y59324D01*
X29947Y58947D01*
X29167Y58849D01*
X28590Y58849D01*
X28007Y59432D01*
X24409Y64230D01*
X24393Y64234D01*
X24383Y64247D01*
X24373Y64240D01*
X24352Y64246D01*
X24344Y64218D01*
X24321Y64200D01*
X24321Y59514D01*
X24037Y59041D01*
X23462Y58849D01*
X22590Y58849D01*
G37*
%LPD*%
%LPC*%
G36*
X15890Y8049D02*
X15890Y8049D01*
X15516Y8424D01*
X15419Y9004D01*
X15419Y16496D01*
X15516Y17073D01*
X15987Y17451D01*
X16762Y17451D01*
X17343Y17257D01*
X17832Y16768D01*
X20530Y12971D01*
X20531Y12971D01*
X20531Y12970D01*
X21131Y12170D01*
X21136Y12169D01*
X21135Y12165D01*
X21335Y11965D01*
X21349Y11963D01*
X21357Y11953D01*
X21364Y11958D01*
X21370Y11958D01*
X21373Y11960D01*
X21394Y11957D01*
X21397Y11978D01*
X21417Y11994D01*
X21415Y11997D01*
X21419Y12000D01*
X21419Y16778D01*
X22189Y17451D01*
X22858Y17451D01*
X23431Y17164D01*
X23621Y16691D01*
X23621Y9203D01*
X23523Y8520D01*
X23243Y8146D01*
X22467Y8049D01*
X21793Y8049D01*
X21308Y8631D01*
X17609Y13330D01*
X17593Y13335D01*
X17583Y13347D01*
X17573Y13340D01*
X17551Y13346D01*
X17544Y13317D01*
X17521Y13300D01*
X17521Y8709D01*
X17333Y8240D01*
X16762Y8049D01*
X15890Y8049D01*
G37*
%LPD*%
%LPC*%
G36*
X15973Y58849D02*
X15973Y58849D01*
X15278Y58949D01*
X14685Y59047D01*
X14095Y59343D01*
X13501Y59738D01*
X12507Y60733D01*
X12112Y61227D01*
X11816Y61818D01*
X11618Y62511D01*
X11519Y63104D01*
X11519Y63797D01*
X11718Y65189D01*
X11915Y65778D01*
X12310Y66371D01*
X12707Y66867D01*
X13203Y67363D01*
X13697Y67758D01*
X14292Y68056D01*
X14885Y68352D01*
X15577Y68451D01*
X15578Y68452D01*
X15578Y68451D01*
X16171Y68550D01*
X16863Y68451D01*
X17559Y68352D01*
X18151Y68154D01*
X18745Y67857D01*
X19329Y67468D01*
X19517Y66904D01*
X19229Y66327D01*
X18743Y65745D01*
X18276Y65651D01*
X16991Y66245D01*
X16981Y66243D01*
X16978Y66249D01*
X16378Y66349D01*
X16368Y66343D01*
X16363Y66349D01*
X15663Y66249D01*
X15659Y66245D01*
X15656Y66247D01*
X14956Y66047D01*
X14948Y66036D01*
X14939Y66038D01*
X14439Y65638D01*
X14437Y65631D01*
X14432Y65631D01*
X14032Y65131D01*
X14031Y65117D01*
X14023Y65114D01*
X13823Y64414D01*
X13825Y64409D01*
X13821Y64407D01*
X13721Y63707D01*
X13726Y63698D01*
X13721Y63693D01*
X13821Y62993D01*
X13826Y62988D01*
X13823Y62984D01*
X14023Y62384D01*
X14034Y62377D01*
X14032Y62369D01*
X14432Y61869D01*
X14439Y61867D01*
X14438Y61862D01*
X15038Y61362D01*
X15052Y61362D01*
X15054Y61353D01*
X15654Y61153D01*
X15660Y61155D01*
X15662Y61151D01*
X16262Y61051D01*
X16267Y61054D01*
X16270Y61051D01*
X16970Y61051D01*
X16983Y61060D01*
X16992Y61056D01*
X17592Y61356D01*
X17611Y61393D01*
X17619Y61400D01*
X17619Y62700D01*
X17583Y62747D01*
X17578Y62743D01*
X17574Y62749D01*
X16192Y62848D01*
X15819Y63220D01*
X15819Y63892D01*
X16009Y64461D01*
X16578Y64651D01*
X18763Y64651D01*
X19441Y64457D01*
X19723Y64081D01*
X19821Y63397D01*
X19821Y60708D01*
X19627Y60127D01*
X19140Y59639D01*
X18647Y59343D01*
X18055Y59047D01*
X17463Y58949D01*
X16667Y58849D01*
X15973Y58849D01*
G37*
%LPD*%
G36*
X64936Y31355D02*
X64936Y31355D01*
X64940Y31352D01*
X65440Y31452D01*
X65453Y31467D01*
X65465Y31465D01*
X65765Y31765D01*
X65766Y31777D01*
X65771Y31781D01*
X65768Y31786D01*
X65779Y31792D01*
X65879Y32392D01*
X65875Y32399D01*
X65879Y32402D01*
X65779Y34401D01*
X65779Y34900D01*
X65771Y34911D01*
X65776Y34918D01*
X65576Y35418D01*
X65573Y35420D01*
X65574Y35422D01*
X65374Y35822D01*
X65368Y35825D01*
X65369Y35830D01*
X64769Y36630D01*
X64764Y36631D01*
X64765Y36635D01*
X64365Y37035D01*
X64351Y37037D01*
X64348Y37046D01*
X63850Y37245D01*
X63452Y37444D01*
X63449Y37443D01*
X63448Y37446D01*
X62948Y37646D01*
X62935Y37642D01*
X62930Y37649D01*
X61430Y37649D01*
X61419Y37641D01*
X61412Y37646D01*
X60412Y37246D01*
X60407Y37238D01*
X60400Y37239D01*
X59600Y36639D01*
X59598Y36630D01*
X59591Y36630D01*
X58991Y35830D01*
X58991Y35820D01*
X58984Y35818D01*
X58784Y35318D01*
X58786Y35312D01*
X58782Y35310D01*
X58582Y34310D01*
X58585Y34303D01*
X58581Y34300D01*
X58581Y31900D01*
X58593Y31884D01*
X58589Y31873D01*
X58789Y31573D01*
X58806Y31567D01*
X58808Y31556D01*
X59208Y31356D01*
X59224Y31359D01*
X59230Y31351D01*
X64930Y31351D01*
X64936Y31355D01*
G37*
G36*
X64936Y15655D02*
X64936Y15655D01*
X64940Y15652D01*
X65440Y15752D01*
X65453Y15767D01*
X65465Y15765D01*
X65765Y16065D01*
X65766Y16077D01*
X65771Y16081D01*
X65768Y16086D01*
X65779Y16092D01*
X65879Y16692D01*
X65870Y16709D01*
X65876Y16718D01*
X65676Y17218D01*
X65654Y17231D01*
X65652Y17244D01*
X65252Y17444D01*
X65236Y17441D01*
X65230Y17449D01*
X61849Y17449D01*
X61863Y17463D01*
X63660Y18861D01*
X63663Y18870D01*
X63669Y18870D01*
X63969Y19270D01*
X63969Y19279D01*
X63974Y19282D01*
X63969Y19288D01*
X63969Y19292D01*
X63979Y19300D01*
X63979Y19800D01*
X63966Y19818D01*
X63969Y19830D01*
X63669Y20230D01*
X63660Y20232D01*
X63660Y20239D01*
X61778Y21651D01*
X65230Y21651D01*
X65241Y21659D01*
X65245Y21659D01*
X65252Y21656D01*
X65652Y21856D01*
X65665Y21882D01*
X65672Y21887D01*
X65678Y21890D01*
X65778Y22390D01*
X65775Y22397D01*
X65779Y22400D01*
X65779Y22900D01*
X65770Y22913D01*
X65774Y22922D01*
X65574Y23322D01*
X65546Y23336D01*
X65540Y23348D01*
X65040Y23448D01*
X65033Y23445D01*
X65030Y23449D01*
X59330Y23449D01*
X59323Y23444D01*
X59318Y23448D01*
X58918Y23348D01*
X58906Y23333D01*
X58895Y23335D01*
X58595Y23035D01*
X58592Y23009D01*
X58583Y23002D01*
X58581Y23000D01*
X58581Y22400D01*
X58589Y22389D01*
X58584Y22382D01*
X58784Y21882D01*
X58799Y21873D01*
X58799Y21862D01*
X59899Y20962D01*
X61391Y19768D01*
X61568Y19415D01*
X58800Y17339D01*
X58795Y17321D01*
X58784Y17318D01*
X58584Y16818D01*
X58588Y16805D01*
X58581Y16800D01*
X58581Y16200D01*
X58593Y16184D01*
X58589Y16173D01*
X58789Y15873D01*
X58809Y15866D01*
X58812Y15854D01*
X59312Y15654D01*
X59325Y15658D01*
X59330Y15651D01*
X64930Y15651D01*
X64936Y15655D01*
G37*
%LPC*%
G36*
X29387Y8049D02*
X29387Y8049D01*
X28919Y8424D01*
X28919Y15100D01*
X28911Y15111D01*
X28916Y15118D01*
X28716Y15618D01*
X28675Y15643D01*
X28670Y15649D01*
X26573Y15649D01*
X25890Y15747D01*
X25516Y16027D01*
X25419Y16707D01*
X25376Y16749D01*
X25373Y16745D01*
X25370Y16749D01*
X25346Y16749D01*
X25373Y16751D01*
X25409Y16782D01*
X25417Y16784D01*
X25607Y17356D01*
X26273Y17451D01*
X33953Y17451D01*
X34421Y17076D01*
X34421Y16408D01*
X34231Y15839D01*
X33662Y15649D01*
X31570Y15649D01*
X31564Y15645D01*
X31560Y15648D01*
X31060Y15548D01*
X31021Y15504D01*
X31023Y15502D01*
X31021Y15500D01*
X31021Y8712D01*
X30737Y8145D01*
X30067Y8049D01*
X29387Y8049D01*
G37*
%LPD*%
G36*
X59343Y65863D02*
X59343Y65863D01*
X59355Y65858D01*
X59855Y66158D01*
X59858Y66164D01*
X59863Y66163D01*
X61761Y67862D01*
X62126Y68136D01*
X63996Y66364D01*
X64000Y66364D01*
X64000Y66361D01*
X64400Y66061D01*
X64407Y66061D01*
X64408Y66056D01*
X64808Y65856D01*
X64840Y65862D01*
X64852Y65856D01*
X65252Y66056D01*
X65257Y66066D01*
X65265Y66065D01*
X65665Y66465D01*
X65666Y66476D01*
X65667Y66477D01*
X65674Y66478D01*
X65874Y66878D01*
X65866Y66919D01*
X65869Y66930D01*
X65569Y67330D01*
X65564Y67331D01*
X65565Y67335D01*
X65165Y67735D01*
X65162Y67735D01*
X65162Y67737D01*
X63663Y69036D01*
X63303Y69397D01*
X65662Y71362D01*
X65665Y71376D01*
X65674Y71378D01*
X65874Y71778D01*
X65871Y71795D01*
X65872Y71797D01*
X65870Y71800D01*
X65868Y71810D01*
X65874Y71822D01*
X65674Y72222D01*
X65667Y72225D01*
X65668Y72231D01*
X65268Y72731D01*
X65247Y72736D01*
X65242Y72748D01*
X64842Y72848D01*
X64834Y72844D01*
X64818Y72844D01*
X64816Y72843D01*
X64812Y72846D01*
X64312Y72646D01*
X64305Y72635D01*
X64297Y72636D01*
X62031Y70567D01*
X59864Y72636D01*
X59851Y72637D01*
X59848Y72646D01*
X59348Y72846D01*
X59343Y72844D01*
X59322Y72844D01*
X59318Y72848D01*
X58918Y72748D01*
X58904Y72730D01*
X58892Y72731D01*
X58492Y72231D01*
X58491Y72223D01*
X58486Y72222D01*
X58286Y71822D01*
X58292Y71790D01*
X58286Y71778D01*
X58486Y71378D01*
X58496Y71373D01*
X58495Y71365D01*
X58895Y70965D01*
X58899Y70965D01*
X58899Y70962D01*
X60494Y69666D01*
X60763Y69308D01*
X58898Y67738D01*
X58898Y67735D01*
X58895Y67735D01*
X58495Y67335D01*
X58494Y67323D01*
X58486Y67322D01*
X58286Y66922D01*
X58290Y66900D01*
X58289Y66898D01*
X58291Y66895D01*
X58291Y66893D01*
X58284Y66882D01*
X58484Y66382D01*
X58500Y66373D01*
X58499Y66362D01*
X58999Y65962D01*
X59012Y65961D01*
X59014Y65953D01*
X59314Y65853D01*
X59343Y65863D01*
G37*
%LPC*%
G36*
X79595Y6635D02*
X79595Y6635D01*
X79323Y6934D01*
X77537Y11912D01*
X77531Y11917D01*
X77531Y11925D01*
X77505Y11942D01*
X77519Y11939D01*
X77539Y11960D01*
X77550Y11966D01*
X77550Y11971D01*
X77555Y11977D01*
X77602Y12116D01*
X79106Y12116D01*
X79291Y11721D01*
X80190Y8678D01*
X80199Y8670D01*
X80199Y8669D01*
X80200Y8662D01*
X80204Y8660D01*
X80212Y8645D01*
X80361Y8534D01*
X80393Y8532D01*
X80425Y8527D01*
X80427Y8529D01*
X80429Y8529D01*
X80432Y8536D01*
X80459Y8567D01*
X81478Y12086D01*
X81937Y12116D01*
X82968Y12116D01*
X83236Y11836D01*
X84124Y8801D01*
X84126Y8798D01*
X84126Y8794D01*
X84275Y8437D01*
X84287Y8429D01*
X84292Y8414D01*
X84313Y8411D01*
X84331Y8399D01*
X84344Y8407D01*
X84359Y8404D01*
X84379Y8428D01*
X84389Y8434D01*
X84389Y8439D01*
X84393Y8444D01*
X85434Y11971D01*
X85804Y12116D01*
X86839Y12116D01*
X87043Y12030D01*
X87052Y12032D01*
X87059Y12029D01*
X87067Y12029D01*
X87076Y12026D01*
X87084Y12027D01*
X87080Y12024D01*
X85305Y7093D01*
X85024Y6635D01*
X83506Y6635D01*
X83292Y6996D01*
X82358Y10026D01*
X82345Y10037D01*
X82341Y10053D01*
X82321Y10057D01*
X82306Y10070D01*
X82290Y10062D01*
X82274Y10066D01*
X82255Y10046D01*
X82244Y10040D01*
X82243Y10033D01*
X82238Y10028D01*
X82081Y9574D01*
X82081Y9573D01*
X82080Y9572D01*
X81294Y7047D01*
X81115Y6635D01*
X79595Y6635D01*
G37*
%LPD*%
G36*
X63436Y24755D02*
X63436Y24755D01*
X63440Y24752D01*
X63940Y24852D01*
X63944Y24857D01*
X63948Y24854D01*
X64448Y25054D01*
X64450Y25057D01*
X64452Y25056D01*
X64852Y25256D01*
X64855Y25262D01*
X64860Y25261D01*
X65260Y25561D01*
X65264Y25576D01*
X65274Y25578D01*
X65674Y26378D01*
X65672Y26389D01*
X65679Y26392D01*
X65779Y26992D01*
X65878Y27490D01*
X65872Y27503D01*
X65878Y27510D01*
X65778Y28010D01*
X65773Y28014D01*
X65776Y28018D01*
X65576Y28518D01*
X65568Y28523D01*
X65569Y28530D01*
X64969Y29330D01*
X64956Y29333D01*
X64955Y29342D01*
X64455Y29642D01*
X64445Y29641D01*
X64442Y29648D01*
X64042Y29748D01*
X64040Y29747D01*
X64040Y29748D01*
X63540Y29848D01*
X63533Y29845D01*
X63530Y29849D01*
X63330Y29849D01*
X63323Y29844D01*
X63318Y29848D01*
X62918Y29748D01*
X62911Y29740D01*
X62905Y29742D01*
X62405Y29442D01*
X62403Y29439D01*
X62400Y29439D01*
X62000Y29139D01*
X61998Y29130D01*
X61991Y29130D01*
X61691Y28730D01*
X61691Y28720D01*
X61684Y28718D01*
X61484Y28218D01*
X61485Y28214D01*
X61482Y28212D01*
X61483Y28210D01*
X61482Y28210D01*
X61382Y27710D01*
X61385Y27703D01*
X61381Y27700D01*
X61381Y27200D01*
X61386Y27193D01*
X61382Y27188D01*
X61482Y26788D01*
X61525Y26754D01*
X61257Y26843D01*
X60867Y27232D01*
X60573Y27624D01*
X60377Y28114D01*
X60279Y28605D01*
X60279Y29100D01*
X60266Y29118D01*
X60269Y29130D01*
X59969Y29530D01*
X59945Y29536D01*
X59940Y29548D01*
X59440Y29648D01*
X59427Y29642D01*
X59420Y29648D01*
X58920Y29548D01*
X58907Y29533D01*
X58895Y29535D01*
X58595Y29235D01*
X58592Y29215D01*
X58582Y29210D01*
X58482Y28710D01*
X58484Y28705D01*
X58483Y28704D01*
X58484Y28702D01*
X58481Y28700D01*
X58481Y28100D01*
X58485Y28094D01*
X58482Y28090D01*
X58582Y27590D01*
X58587Y27586D01*
X58584Y27582D01*
X58784Y27082D01*
X58787Y27080D01*
X58786Y27078D01*
X58986Y26678D01*
X58992Y26675D01*
X58991Y26670D01*
X59291Y26270D01*
X59296Y26269D01*
X59295Y26265D01*
X59995Y25565D01*
X60007Y25564D01*
X60008Y25556D01*
X60808Y25156D01*
X60811Y25157D01*
X60812Y25154D01*
X61312Y24954D01*
X61318Y24956D01*
X61320Y24952D01*
X62320Y24752D01*
X62327Y24755D01*
X62330Y24751D01*
X63430Y24751D01*
X63436Y24755D01*
G37*
G36*
X63436Y59455D02*
X63436Y59455D01*
X63440Y59452D01*
X63940Y59552D01*
X63944Y59557D01*
X63948Y59554D01*
X64448Y59754D01*
X64450Y59757D01*
X64452Y59756D01*
X64852Y59956D01*
X64855Y59962D01*
X64860Y59961D01*
X65260Y60261D01*
X65264Y60276D01*
X65274Y60278D01*
X65674Y61078D01*
X65672Y61089D01*
X65679Y61092D01*
X65779Y61692D01*
X65878Y62190D01*
X65872Y62203D01*
X65878Y62210D01*
X65778Y62710D01*
X65773Y62714D01*
X65776Y62718D01*
X65576Y63218D01*
X65568Y63223D01*
X65569Y63230D01*
X64969Y64030D01*
X64951Y64035D01*
X64948Y64046D01*
X64450Y64245D01*
X64052Y64444D01*
X64043Y64442D01*
X64040Y64448D01*
X63540Y64548D01*
X63533Y64545D01*
X63530Y64549D01*
X63330Y64549D01*
X63323Y64544D01*
X63318Y64548D01*
X62918Y64448D01*
X62911Y64440D01*
X62905Y64442D01*
X62405Y64142D01*
X62403Y64139D01*
X62400Y64139D01*
X62000Y63839D01*
X61998Y63830D01*
X61991Y63830D01*
X61691Y63430D01*
X61691Y63420D01*
X61684Y63418D01*
X61484Y62918D01*
X61485Y62914D01*
X61482Y62912D01*
X61483Y62910D01*
X61482Y62910D01*
X61382Y62410D01*
X61385Y62403D01*
X61381Y62400D01*
X61381Y61900D01*
X61385Y61894D01*
X61382Y61890D01*
X61465Y61474D01*
X61257Y61543D01*
X60867Y61932D01*
X60573Y62324D01*
X60377Y62814D01*
X60279Y63305D01*
X60279Y63800D01*
X60266Y63818D01*
X60269Y63830D01*
X59969Y64230D01*
X59945Y64236D01*
X59940Y64248D01*
X59440Y64348D01*
X59427Y64342D01*
X59420Y64348D01*
X58920Y64248D01*
X58907Y64233D01*
X58895Y64235D01*
X58595Y63935D01*
X58592Y63915D01*
X58582Y63910D01*
X58482Y63410D01*
X58484Y63405D01*
X58483Y63404D01*
X58484Y63402D01*
X58481Y63400D01*
X58481Y62800D01*
X58485Y62794D01*
X58482Y62790D01*
X58582Y62290D01*
X58587Y62286D01*
X58584Y62282D01*
X58784Y61782D01*
X58787Y61780D01*
X58786Y61778D01*
X58986Y61378D01*
X58992Y61375D01*
X58991Y61370D01*
X59291Y60970D01*
X59296Y60969D01*
X59295Y60965D01*
X59995Y60265D01*
X60007Y60264D01*
X60008Y60256D01*
X60808Y59856D01*
X60811Y59857D01*
X60812Y59854D01*
X61312Y59654D01*
X61318Y59656D01*
X61320Y59652D01*
X62320Y59452D01*
X62327Y59455D01*
X62330Y59451D01*
X63430Y59451D01*
X63436Y59455D01*
G37*
G36*
X64240Y8862D02*
X64240Y8862D01*
X64252Y8856D01*
X64652Y9056D01*
X64655Y9062D01*
X64660Y9061D01*
X65060Y9361D01*
X65063Y9374D01*
X65072Y9375D01*
X65371Y9872D01*
X65669Y10270D01*
X65669Y10286D01*
X65678Y10290D01*
X65878Y11290D01*
X65874Y11299D01*
X65875Y11300D01*
X65872Y11303D01*
X65878Y11310D01*
X65578Y12810D01*
X65567Y12820D01*
X65569Y12830D01*
X64969Y13630D01*
X64956Y13633D01*
X64955Y13642D01*
X64455Y13942D01*
X64445Y13941D01*
X64442Y13948D01*
X64042Y14048D01*
X64040Y14047D01*
X64040Y14048D01*
X63540Y14148D01*
X63528Y14143D01*
X63522Y14149D01*
X62922Y14049D01*
X62921Y14048D01*
X62920Y14048D01*
X62420Y13948D01*
X62410Y13937D01*
X62400Y13939D01*
X62000Y13639D01*
X61998Y13630D01*
X61991Y13630D01*
X61691Y13230D01*
X61691Y13223D01*
X61686Y13222D01*
X61486Y12822D01*
X61488Y12813D01*
X61482Y12810D01*
X61382Y12312D01*
X61083Y11316D01*
X60894Y10843D01*
X60446Y10753D01*
X60175Y11024D01*
X60080Y11500D01*
X60176Y11979D01*
X60469Y12370D01*
X60469Y12379D01*
X60475Y12383D01*
X60472Y12387D01*
X60478Y12390D01*
X60578Y12890D01*
X60566Y12916D01*
X60569Y12930D01*
X60269Y13330D01*
X60256Y13333D01*
X60255Y13342D01*
X59755Y13642D01*
X59737Y13640D01*
X59730Y13649D01*
X59430Y13649D01*
X59409Y13633D01*
X59395Y13635D01*
X58695Y12935D01*
X58693Y12921D01*
X58684Y12918D01*
X58484Y12418D01*
X58486Y12413D01*
X58482Y12410D01*
X58382Y11910D01*
X58385Y11903D01*
X58381Y11900D01*
X58381Y10800D01*
X58389Y10789D01*
X58384Y10782D01*
X58584Y10282D01*
X58587Y10280D01*
X58586Y10278D01*
X58786Y9878D01*
X58792Y9875D01*
X58791Y9870D01*
X59091Y9470D01*
X59100Y9468D01*
X59100Y9461D01*
X59500Y9161D01*
X59516Y9161D01*
X59520Y9152D01*
X60520Y8952D01*
X60527Y8955D01*
X60530Y8951D01*
X61030Y8951D01*
X61041Y8959D01*
X61048Y8954D01*
X61548Y9154D01*
X61553Y9162D01*
X61560Y9161D01*
X61960Y9461D01*
X61962Y9470D01*
X61969Y9470D01*
X62569Y10270D01*
X62569Y10286D01*
X62578Y10290D01*
X62677Y10786D01*
X62876Y11282D01*
X62874Y11288D01*
X62878Y11290D01*
X62977Y11784D01*
X63163Y12156D01*
X63620Y12248D01*
X63890Y12068D01*
X64081Y11591D01*
X64081Y11116D01*
X63791Y10730D01*
X63392Y10231D01*
X63391Y10223D01*
X63386Y10222D01*
X63186Y9822D01*
X63190Y9800D01*
X63189Y9800D01*
X63190Y9799D01*
X63192Y9790D01*
X63186Y9778D01*
X63386Y9378D01*
X63396Y9373D01*
X63395Y9365D01*
X63795Y8965D01*
X63814Y8963D01*
X63818Y8952D01*
X64218Y8852D01*
X64240Y8862D01*
G37*
G36*
X64246Y38964D02*
X64246Y38964D01*
X64260Y38961D01*
X65060Y39561D01*
X65062Y39570D01*
X65069Y39570D01*
X65669Y40370D01*
X65669Y40386D01*
X65678Y40390D01*
X65878Y41390D01*
X65874Y41399D01*
X65875Y41400D01*
X65873Y41402D01*
X65879Y41408D01*
X65779Y42008D01*
X65776Y42010D01*
X65778Y42012D01*
X65678Y42411D01*
X65578Y42910D01*
X65567Y42920D01*
X65569Y42930D01*
X64969Y43730D01*
X64956Y43733D01*
X64955Y43742D01*
X64455Y44042D01*
X64445Y44041D01*
X64442Y44048D01*
X64042Y44148D01*
X64040Y44147D01*
X64040Y44148D01*
X63540Y44248D01*
X63533Y44245D01*
X63530Y44249D01*
X62930Y44249D01*
X62919Y44241D01*
X62912Y44246D01*
X62412Y44046D01*
X62407Y44038D01*
X62400Y44039D01*
X62000Y43739D01*
X61998Y43730D01*
X61991Y43730D01*
X61691Y43330D01*
X61691Y43323D01*
X61686Y43322D01*
X61486Y42922D01*
X61488Y42913D01*
X61482Y42910D01*
X61382Y42412D01*
X61084Y41418D01*
X60897Y41044D01*
X60446Y40953D01*
X60175Y41224D01*
X60080Y41699D01*
X60176Y42081D01*
X60472Y42575D01*
X60472Y42580D01*
X60475Y42582D01*
X60472Y42586D01*
X60478Y42588D01*
X60578Y42988D01*
X60566Y43016D01*
X60569Y43030D01*
X60269Y43430D01*
X60256Y43433D01*
X60255Y43442D01*
X59755Y43742D01*
X59737Y43740D01*
X59730Y43749D01*
X59430Y43749D01*
X59412Y43736D01*
X59400Y43739D01*
X59000Y43439D01*
X58998Y43430D01*
X58991Y43430D01*
X58691Y43030D01*
X58691Y43020D01*
X58684Y43018D01*
X58484Y42518D01*
X58486Y42513D01*
X58482Y42510D01*
X58382Y42010D01*
X58385Y42003D01*
X58381Y42000D01*
X58381Y40900D01*
X58389Y40889D01*
X58384Y40882D01*
X58584Y40382D01*
X58587Y40380D01*
X58586Y40378D01*
X58786Y39978D01*
X58796Y39973D01*
X58795Y39965D01*
X59095Y39665D01*
X59100Y39664D01*
X59100Y39661D01*
X59500Y39361D01*
X59510Y39361D01*
X59512Y39354D01*
X60012Y39154D01*
X60018Y39156D01*
X60020Y39152D01*
X60520Y39052D01*
X60533Y39058D01*
X60540Y39052D01*
X61540Y39252D01*
X61550Y39263D01*
X61560Y39261D01*
X61960Y39561D01*
X61962Y39570D01*
X61969Y39570D01*
X62569Y40370D01*
X62569Y40386D01*
X62578Y40390D01*
X62677Y40886D01*
X62876Y41382D01*
X62874Y41388D01*
X62878Y41390D01*
X62977Y41884D01*
X63166Y42261D01*
X63618Y42442D01*
X63889Y42171D01*
X64081Y41788D01*
X64081Y41216D01*
X63793Y40832D01*
X63395Y40435D01*
X63394Y40423D01*
X63386Y40422D01*
X63186Y40022D01*
X63190Y40000D01*
X63189Y39998D01*
X63191Y39995D01*
X63191Y39993D01*
X63184Y39982D01*
X63384Y39482D01*
X63396Y39474D01*
X63395Y39465D01*
X63795Y39065D01*
X63814Y39063D01*
X63818Y39052D01*
X64218Y38952D01*
X64246Y38964D01*
G37*
%LPC*%
G36*
X39674Y8049D02*
X39674Y8049D01*
X39101Y8145D01*
X38819Y8614D01*
X38819Y13400D01*
X38787Y13443D01*
X38786Y13447D01*
X38486Y13547D01*
X38462Y13539D01*
X38451Y13545D01*
X37765Y13251D01*
X37297Y13345D01*
X36810Y13929D01*
X36512Y14425D01*
X36497Y14431D01*
X36496Y14442D01*
X36467Y14460D01*
X36504Y14464D01*
X36503Y14474D01*
X36512Y14475D01*
X36809Y14969D01*
X38802Y16862D01*
X39196Y17158D01*
X39782Y17451D01*
X40358Y17451D01*
X40925Y17167D01*
X41021Y16497D01*
X41021Y9004D01*
X40924Y8424D01*
X40550Y8049D01*
X39674Y8049D01*
G37*
%LPD*%
G36*
X59742Y45652D02*
X59742Y45652D01*
X59747Y45658D01*
X59752Y45656D01*
X65252Y48356D01*
X65255Y48362D01*
X65260Y48361D01*
X65660Y48661D01*
X65665Y48679D01*
X65676Y48682D01*
X65876Y49182D01*
X65870Y49201D01*
X65878Y49210D01*
X65778Y49710D01*
X65767Y49720D01*
X65769Y49730D01*
X65469Y50130D01*
X65451Y50135D01*
X65448Y50146D01*
X64950Y50345D01*
X59952Y52844D01*
X59943Y52842D01*
X59940Y52848D01*
X59440Y52948D01*
X59426Y52942D01*
X59418Y52948D01*
X59018Y52848D01*
X59003Y52830D01*
X58991Y52830D01*
X58691Y52430D01*
X58691Y52420D01*
X58684Y52418D01*
X58484Y51918D01*
X58485Y51918D01*
X58484Y51917D01*
X58485Y51917D01*
X58491Y51893D01*
X58484Y51882D01*
X58684Y51382D01*
X58707Y51368D01*
X58710Y51355D01*
X63245Y49285D01*
X63202Y49241D01*
X59210Y47445D01*
X59207Y47440D01*
X59203Y47441D01*
X58903Y47241D01*
X58899Y47230D01*
X58891Y47230D01*
X58591Y46830D01*
X58591Y46808D01*
X58581Y46800D01*
X58581Y46400D01*
X58590Y46387D01*
X58586Y46378D01*
X58886Y45778D01*
X58906Y45768D01*
X58908Y45756D01*
X59308Y45556D01*
X59332Y45560D01*
X59342Y45552D01*
X59742Y45652D01*
G37*
%LPC*%
G36*
X11587Y8049D02*
X11587Y8049D01*
X11119Y8424D01*
X11119Y17075D01*
X11500Y17361D01*
X11512Y17404D01*
X11526Y17377D01*
X11571Y17356D01*
X11576Y17351D01*
X12366Y17450D01*
X13033Y17259D01*
X13222Y16787D01*
X13321Y16097D01*
X13321Y9400D01*
X13357Y9353D01*
X13359Y9354D01*
X13360Y9352D01*
X13377Y9348D01*
X13375Y9348D01*
X13370Y9348D01*
X13356Y9337D01*
X13325Y9320D01*
X13328Y9316D01*
X13322Y9312D01*
X13324Y9309D01*
X13321Y9308D01*
X13222Y8712D01*
X13033Y8144D01*
X12367Y8049D01*
X11587Y8049D01*
G37*
%LPD*%
G36*
X64836Y2355D02*
X64836Y2355D01*
X64840Y2352D01*
X65340Y2452D01*
X65349Y2462D01*
X65357Y2459D01*
X65657Y2659D01*
X65663Y2677D01*
X65667Y2679D01*
X65676Y2682D01*
X65876Y3182D01*
X65872Y3195D01*
X65879Y3200D01*
X65879Y6800D01*
X65875Y6806D01*
X65878Y6810D01*
X65778Y7310D01*
X65755Y7331D01*
X65752Y7344D01*
X65352Y7544D01*
X65336Y7541D01*
X65330Y7549D01*
X64730Y7549D01*
X64709Y7533D01*
X64695Y7535D01*
X64395Y7235D01*
X64392Y7215D01*
X64382Y7210D01*
X64282Y6710D01*
X64285Y6703D01*
X64281Y6700D01*
X64281Y4249D01*
X59330Y4249D01*
X59319Y4241D01*
X59312Y4246D01*
X58812Y4046D01*
X58799Y4024D01*
X58786Y4022D01*
X58586Y3622D01*
X58589Y3606D01*
X58581Y3600D01*
X58581Y3000D01*
X58590Y2987D01*
X58586Y2978D01*
X58786Y2578D01*
X58806Y2568D01*
X58808Y2556D01*
X59208Y2356D01*
X59224Y2359D01*
X59230Y2351D01*
X64830Y2351D01*
X64836Y2355D01*
G37*
G36*
X36883Y61060D02*
X36883Y61060D01*
X36892Y61056D01*
X37092Y61156D01*
X37097Y61166D01*
X37105Y61165D01*
X38105Y62165D01*
X38106Y62177D01*
X38114Y62178D01*
X38414Y62778D01*
X38412Y62789D01*
X38419Y62793D01*
X38519Y63493D01*
X38515Y63500D01*
X38516Y63500D01*
X38514Y63502D01*
X38519Y63507D01*
X38419Y64207D01*
X38411Y64215D01*
X38414Y64222D01*
X38114Y64822D01*
X38107Y64825D01*
X38108Y64831D01*
X37708Y65331D01*
X37701Y65333D01*
X37701Y65338D01*
X37201Y65738D01*
X37193Y65739D01*
X37192Y65744D01*
X36592Y66044D01*
X36576Y66041D01*
X36570Y66049D01*
X35170Y66049D01*
X35152Y66036D01*
X35140Y66039D01*
X34740Y65739D01*
X34732Y65708D01*
X34721Y65700D01*
X34721Y61700D01*
X34724Y61695D01*
X34721Y61692D01*
X34821Y61092D01*
X34865Y61051D01*
X34868Y61054D01*
X34870Y61051D01*
X36870Y61051D01*
X36883Y61060D01*
G37*
G36*
X61040Y54462D02*
X61040Y54462D01*
X61052Y54456D01*
X61452Y54656D01*
X61457Y54666D01*
X61465Y54665D01*
X61865Y55065D01*
X61866Y55076D01*
X61868Y55078D01*
X61867Y55080D01*
X61869Y55092D01*
X61879Y55100D01*
X61879Y55500D01*
X61871Y55511D01*
X61876Y55518D01*
X61693Y55976D01*
X61842Y56051D01*
X64830Y56051D01*
X64836Y56055D01*
X64840Y56052D01*
X65340Y56152D01*
X65349Y56162D01*
X65357Y56159D01*
X65657Y56359D01*
X65665Y56380D01*
X65677Y56384D01*
X65877Y56984D01*
X65873Y56996D01*
X65875Y56998D01*
X65873Y57002D01*
X65879Y57008D01*
X65779Y57608D01*
X65758Y57627D01*
X65757Y57641D01*
X65457Y57841D01*
X65444Y57840D01*
X65440Y57848D01*
X64940Y57948D01*
X64938Y57948D01*
X64931Y57948D01*
X64930Y57949D01*
X59330Y57949D01*
X59328Y57948D01*
X59321Y57948D01*
X59320Y57948D01*
X58820Y57848D01*
X58803Y57828D01*
X58797Y57824D01*
X58786Y57822D01*
X58586Y57422D01*
X58586Y57420D01*
X58585Y57419D01*
X58587Y57417D01*
X58589Y57406D01*
X58581Y57400D01*
X58581Y56900D01*
X58589Y56889D01*
X58584Y56882D01*
X58784Y56382D01*
X58800Y56372D01*
X58800Y56361D01*
X59197Y56063D01*
X60194Y54967D01*
X60195Y54967D01*
X60195Y54965D01*
X60595Y54565D01*
X60614Y54563D01*
X60618Y54552D01*
X61018Y54452D01*
X61040Y54462D01*
G37*
%LPC*%
G36*
X94298Y6642D02*
X94298Y6642D01*
X93784Y6730D01*
X93312Y6915D01*
X92875Y7192D01*
X92513Y7543D01*
X92231Y7976D01*
X92038Y8444D01*
X91947Y8956D01*
X91898Y9467D01*
X92078Y10490D01*
X92348Y10925D01*
X92686Y11352D01*
X92688Y11382D01*
X92696Y11410D01*
X92692Y11415D01*
X92692Y11418D01*
X92723Y11424D01*
X93487Y11934D01*
X93985Y12050D01*
X94501Y12140D01*
X94965Y12161D01*
X95011Y11743D01*
X95011Y10750D01*
X94645Y10749D01*
X94636Y10744D01*
X94621Y10744D01*
X94143Y10547D01*
X94137Y10537D01*
X94118Y10528D01*
X93793Y10124D01*
X93792Y10114D01*
X93785Y10109D01*
X93785Y10106D01*
X93782Y10102D01*
X93641Y9599D01*
X93643Y9591D01*
X93638Y9580D01*
X93650Y9056D01*
X93654Y9050D01*
X93653Y9038D01*
X93818Y8543D01*
X93826Y8537D01*
X93826Y8536D01*
X93827Y8536D01*
X93832Y8520D01*
X93932Y8411D01*
X93990Y8348D01*
X94162Y8160D01*
X94182Y8138D01*
X94193Y8135D01*
X94208Y8121D01*
X94698Y7958D01*
X95011Y7816D01*
X95011Y6821D01*
X94789Y6579D01*
X94298Y6642D01*
G37*
%LPD*%
%LPC*%
G36*
X87710Y6635D02*
X87710Y6635D01*
X87678Y6673D01*
X87626Y6736D01*
X87503Y6884D01*
X87503Y12053D01*
X87488Y12076D01*
X87484Y12088D01*
X87571Y12101D01*
X87950Y12116D01*
X88983Y12116D01*
X89142Y11958D01*
X89146Y11957D01*
X89148Y11953D01*
X89199Y11941D01*
X89224Y11947D01*
X89221Y11940D01*
X89213Y11931D01*
X89215Y11926D01*
X89212Y11920D01*
X89212Y6635D01*
X87710Y6635D01*
G37*
%LPD*%
%LPC*%
G36*
X89960Y6635D02*
X89960Y6635D01*
X89710Y6841D01*
X89720Y12013D01*
X89704Y12038D01*
X89700Y12048D01*
X89782Y12065D01*
X90111Y12116D01*
X91147Y12116D01*
X91343Y11983D01*
X91348Y11983D01*
X91354Y11977D01*
X91429Y11945D01*
X91429Y11944D01*
X91409Y11900D01*
X91419Y6719D01*
X90991Y6635D01*
X89960Y6635D01*
G37*
%LPD*%
%LPC*%
G36*
X60645Y33249D02*
X60645Y33249D01*
X60379Y33426D01*
X60379Y33896D01*
X60478Y34490D01*
X60575Y34878D01*
X60867Y35268D01*
X61254Y35655D01*
X61740Y35752D01*
X62235Y35851D01*
X62718Y35851D01*
X63101Y35659D01*
X63495Y35265D01*
X63500Y35264D01*
X63500Y35261D01*
X63891Y34968D01*
X63981Y34788D01*
X63981Y33338D01*
X63624Y33249D01*
X60645Y33249D01*
G37*
%LPD*%
G36*
X74461Y7981D02*
X74461Y7981D01*
X74469Y7988D01*
X74487Y7991D01*
X74907Y8282D01*
X74912Y8292D01*
X74926Y8303D01*
X75179Y8751D01*
X75179Y8752D01*
X75180Y8753D01*
X75178Y8761D01*
X75186Y8773D01*
X75265Y9282D01*
X75262Y9289D01*
X75265Y9299D01*
X75205Y9808D01*
X75200Y9815D01*
X75200Y9827D01*
X74990Y10291D01*
X74982Y10297D01*
X74975Y10312D01*
X74598Y10652D01*
X74587Y10654D01*
X74572Y10666D01*
X74080Y10798D01*
X74070Y10795D01*
X74054Y10799D01*
X73549Y10718D01*
X73541Y10711D01*
X73523Y10707D01*
X73102Y10417D01*
X73098Y10407D01*
X73084Y10396D01*
X72830Y9949D01*
X72830Y9940D01*
X72827Y9936D01*
X72826Y9934D01*
X72826Y9933D01*
X72822Y9927D01*
X72744Y9418D01*
X72747Y9411D01*
X72743Y9401D01*
X72804Y8892D01*
X72809Y8885D01*
X72809Y8873D01*
X73020Y8409D01*
X73029Y8404D01*
X73035Y8388D01*
X73413Y8049D01*
X73424Y8048D01*
X73439Y8036D01*
X73931Y7903D01*
X73940Y7906D01*
X73957Y7901D01*
X74461Y7981D01*
G37*
%LPC*%
G36*
X63258Y61445D02*
X63258Y61445D01*
X62983Y61812D01*
X63076Y62279D01*
X63355Y62651D01*
X63810Y62651D01*
X64086Y62375D01*
X64180Y61999D01*
X64086Y61533D01*
X63723Y61352D01*
X63258Y61445D01*
G37*
%LPD*%
%LPC*%
G36*
X63258Y26745D02*
X63258Y26745D01*
X62983Y27112D01*
X63076Y27579D01*
X63355Y27951D01*
X63810Y27951D01*
X64086Y27675D01*
X64180Y27299D01*
X64086Y26833D01*
X63723Y26652D01*
X63258Y26745D01*
G37*
%LPD*%
%LPC*%
G36*
X61530Y26752D02*
X61530Y26752D01*
X61534Y26757D01*
X61538Y26754D01*
X61531Y26752D01*
X61530Y26752D01*
G37*
%LPD*%
D10*
X112776Y72898D02*
X112776Y65278D01*
D11*
X185700Y53100D02*
X185700Y23100D01*
X159700Y8100D02*
X143200Y8100D01*
X143200Y60600D02*
X143200Y68100D01*
X159700Y68100D01*
X143200Y15600D02*
X143200Y8100D01*
X135684Y13100D02*
X135686Y13163D01*
X135692Y13226D01*
X135702Y13289D01*
X135715Y13350D01*
X135733Y13411D01*
X135754Y13470D01*
X135779Y13529D01*
X135807Y13585D01*
X135839Y13640D01*
X135874Y13692D01*
X135913Y13742D01*
X135954Y13790D01*
X135999Y13835D01*
X136046Y13877D01*
X136095Y13916D01*
X136147Y13952D01*
X136201Y13985D01*
X136257Y14014D01*
X136315Y14040D01*
X136374Y14062D01*
X136434Y14081D01*
X136496Y14095D01*
X136558Y14106D01*
X136621Y14113D01*
X136684Y14116D01*
X136747Y14115D01*
X136810Y14110D01*
X136873Y14101D01*
X136935Y14088D01*
X136996Y14072D01*
X137056Y14052D01*
X137114Y14028D01*
X137171Y14000D01*
X137226Y13969D01*
X137279Y13935D01*
X137330Y13897D01*
X137378Y13856D01*
X137424Y13813D01*
X137467Y13766D01*
X137507Y13717D01*
X137544Y13666D01*
X137577Y13613D01*
X137607Y13557D01*
X137634Y13500D01*
X137657Y13441D01*
X137676Y13381D01*
X137692Y13319D01*
X137704Y13257D01*
X137712Y13195D01*
X137716Y13132D01*
X137716Y13068D01*
X137712Y13005D01*
X137704Y12943D01*
X137692Y12881D01*
X137676Y12819D01*
X137657Y12759D01*
X137634Y12700D01*
X137607Y12643D01*
X137577Y12587D01*
X137544Y12534D01*
X137507Y12483D01*
X137467Y12434D01*
X137424Y12387D01*
X137378Y12344D01*
X137330Y12303D01*
X137279Y12265D01*
X137226Y12231D01*
X137171Y12200D01*
X137114Y12172D01*
X137056Y12148D01*
X136996Y12128D01*
X136935Y12112D01*
X136873Y12099D01*
X136810Y12090D01*
X136747Y12085D01*
X136684Y12084D01*
X136621Y12087D01*
X136558Y12094D01*
X136496Y12105D01*
X136434Y12119D01*
X136374Y12138D01*
X136315Y12160D01*
X136257Y12186D01*
X136201Y12215D01*
X136147Y12248D01*
X136095Y12284D01*
X136046Y12323D01*
X135999Y12365D01*
X135954Y12410D01*
X135913Y12458D01*
X135874Y12508D01*
X135839Y12560D01*
X135807Y12615D01*
X135779Y12671D01*
X135754Y12730D01*
X135733Y12789D01*
X135715Y12850D01*
X135702Y12911D01*
X135692Y12974D01*
X135686Y13037D01*
X135684Y13100D01*
D12*
X113900Y21910D03*
D10*
X111050Y24700D02*
X106150Y24700D01*
X111050Y24700D02*
X111050Y29600D01*
X110850Y46400D02*
X110850Y51300D01*
X105950Y51300D01*
X84450Y51300D02*
X79550Y51300D01*
X79550Y46400D01*
X79450Y29600D02*
X79450Y24700D01*
X84350Y24700D01*
M02*
