M48
;GenerationSoftware,Autodesk,EAGLE,9.6.2*%
;CreationDate,2022-12-14T17:52:20Z*%
FMAT,2
ICI,OFF
METRIC,TZ,000.000
T4C0.300
T3C0.305
T2C0.700
T1C3.048
%
G90
M71
T1
X2540Y3810
T2
X5080Y1270
X5080Y6350
T3
X17018Y5588
X17272Y4763
X17272Y2794
T4
X14935Y6909
X14046Y1473
X9906Y686
X6223Y5385
X16002Y940
X17399Y3607
X7493Y3480
X16459Y4750
X9525Y3810
X8712Y6223
X10541Y2265
X10566Y1222
X11153Y2565
X11375Y5080
X7595Y5080
X15850Y3759
X11308Y6045
X13411Y6045
X13107Y1652
X11278Y6909
X12395Y1844
X11989Y5817
M30