G04 EAGLE Gerber RS-274X export*
G75*
%MOMM*%
%FSLAX34Y34*%
%LPD*%
%INSilkscreen Bottom*%
%IPPOS*%
%AMOC8*
5,1,8,0,0,1.08239X$1,22.5*%
G01*
%ADD10C,0.254000*%
%ADD11C,0.152400*%
%ADD12C,0.203200*%

G36*
X46217Y5887D02*
X46217Y5887D01*
X46215Y5890D01*
X46219Y5892D01*
X46319Y6492D01*
X46316Y6497D01*
X46319Y6500D01*
X46319Y19400D01*
X46283Y19447D01*
X46280Y19445D01*
X46278Y19449D01*
X45678Y19549D01*
X45673Y19546D01*
X45670Y19549D01*
X4270Y19549D01*
X4264Y19545D01*
X4260Y19548D01*
X3760Y19448D01*
X3721Y19404D01*
X3733Y19393D01*
X3726Y19378D01*
X7015Y12700D01*
X6726Y12122D01*
X3726Y6122D01*
X3737Y6064D01*
X3746Y6065D01*
X3748Y6056D01*
X4148Y5856D01*
X4164Y5859D01*
X4170Y5851D01*
X46170Y5851D01*
X46217Y5887D01*
G37*
G36*
X44975Y56654D02*
X44975Y56654D01*
X44978Y56651D01*
X45578Y56751D01*
X45619Y56795D01*
X45616Y56798D01*
X45619Y56800D01*
X45619Y70300D01*
X45583Y70347D01*
X45576Y70342D01*
X45570Y70349D01*
X42270Y70349D01*
X42244Y70329D01*
X42230Y70329D01*
X42209Y70300D01*
X42208Y70331D01*
X42184Y70330D01*
X42170Y70349D01*
X8370Y70349D01*
X8365Y70346D01*
X8362Y70349D01*
X7762Y70249D01*
X7725Y70210D01*
X7723Y70208D01*
X7723Y70207D01*
X7721Y70205D01*
X7724Y70203D01*
X7721Y70200D01*
X7721Y56700D01*
X7757Y56653D01*
X7764Y56658D01*
X7770Y56651D01*
X44970Y56651D01*
X44975Y56654D01*
G37*
G36*
X164537Y26971D02*
X164537Y26971D01*
X164538Y26972D01*
X164538Y26971D01*
X165138Y27071D01*
X165837Y27171D01*
X165845Y27179D01*
X165852Y27176D01*
X167652Y28076D01*
X167654Y28080D01*
X167657Y28079D01*
X168257Y28479D01*
X168260Y28486D01*
X168265Y28485D01*
X168765Y28985D01*
X168765Y28989D01*
X168768Y28989D01*
X169568Y29989D01*
X169569Y29997D01*
X169574Y29998D01*
X170174Y31198D01*
X170173Y31205D01*
X170177Y31206D01*
X170215Y31339D01*
X170229Y31388D01*
X170272Y31536D01*
X170314Y31684D01*
X170328Y31733D01*
X170370Y31881D01*
X170377Y31906D01*
X170412Y32029D01*
X170426Y32078D01*
X170469Y32226D01*
X170511Y32373D01*
X170525Y32423D01*
X170567Y32570D01*
X170577Y32606D01*
X170576Y32610D01*
X170579Y32612D01*
X170679Y33212D01*
X170676Y33217D01*
X170679Y33220D01*
X170679Y58120D01*
X170676Y58124D01*
X170679Y58127D01*
X170579Y58827D01*
X170578Y58828D01*
X170579Y58828D01*
X170479Y59428D01*
X170472Y59434D01*
X170475Y59439D01*
X170176Y60138D01*
X169977Y60736D01*
X169969Y60741D01*
X169971Y60747D01*
X169572Y61346D01*
X169272Y61845D01*
X169264Y61849D01*
X169265Y61855D01*
X168265Y62855D01*
X168261Y62855D01*
X168261Y62858D01*
X167761Y63258D01*
X167757Y63259D01*
X167757Y63261D01*
X167157Y63661D01*
X167153Y63661D01*
X167152Y63664D01*
X166552Y63964D01*
X166547Y63963D01*
X166546Y63967D01*
X165946Y64167D01*
X165944Y64166D01*
X165944Y64167D01*
X165244Y64367D01*
X165240Y64366D01*
X165238Y64369D01*
X164638Y64469D01*
X164637Y64468D01*
X164637Y64469D01*
X163937Y64569D01*
X163928Y64564D01*
X163923Y64569D01*
X162523Y64369D01*
X162522Y64368D01*
X162522Y64369D01*
X161922Y64269D01*
X161918Y64264D01*
X161914Y64267D01*
X161314Y64067D01*
X161313Y64064D01*
X161311Y64065D01*
X160611Y63765D01*
X160606Y63757D01*
X160599Y63758D01*
X160101Y63360D01*
X159503Y62961D01*
X159502Y62958D01*
X159499Y62958D01*
X158999Y62558D01*
X158997Y62551D01*
X158992Y62551D01*
X158592Y62051D01*
X158591Y62047D01*
X158589Y62047D01*
X158190Y61449D01*
X157792Y60951D01*
X157791Y60941D01*
X157785Y60939D01*
X157485Y60239D01*
X157486Y60236D01*
X157483Y60236D01*
X157283Y59636D01*
X157283Y59635D01*
X157284Y59634D01*
X157283Y59634D01*
X157269Y59586D01*
X157227Y59438D01*
X157213Y59389D01*
X157171Y59241D01*
X157128Y59094D01*
X157114Y59044D01*
X157083Y58934D01*
X157086Y58924D01*
X157081Y58920D01*
X157081Y58323D01*
X156981Y57627D01*
X156984Y57622D01*
X156981Y57620D01*
X156981Y33220D01*
X156984Y33215D01*
X156981Y33212D01*
X157081Y32612D01*
X157085Y32609D01*
X157083Y32606D01*
X157283Y31906D01*
X157284Y31905D01*
X157283Y31904D01*
X157483Y31304D01*
X157486Y31303D01*
X157485Y31301D01*
X157785Y30601D01*
X157787Y30599D01*
X157786Y30598D01*
X158086Y29998D01*
X158093Y29995D01*
X158092Y29989D01*
X158892Y28989D01*
X158896Y28988D01*
X158895Y28985D01*
X159395Y28485D01*
X159402Y28484D01*
X159403Y28479D01*
X160003Y28079D01*
X160007Y28079D01*
X160008Y28076D01*
X161808Y27176D01*
X161819Y27178D01*
X161823Y27171D01*
X162522Y27071D01*
X163122Y26971D01*
X163123Y26972D01*
X163123Y26971D01*
X163823Y26871D01*
X163832Y26876D01*
X163837Y26871D01*
X164537Y26971D01*
G37*
G36*
X174818Y3487D02*
X174818Y3487D01*
X174884Y3493D01*
X174902Y3504D01*
X174923Y3508D01*
X175008Y3568D01*
X175032Y3583D01*
X175035Y3587D01*
X175040Y3591D01*
X177240Y5891D01*
X177248Y5905D01*
X177261Y5915D01*
X177292Y5979D01*
X177328Y6040D01*
X177329Y6056D01*
X177336Y6070D01*
X177335Y6142D01*
X177341Y6213D01*
X177335Y6227D01*
X177334Y6244D01*
X177277Y6369D01*
X177275Y6373D01*
X177275Y6374D01*
X175407Y8989D01*
X175409Y8999D01*
X175418Y9013D01*
X175429Y9071D01*
X175438Y9091D01*
X175438Y9113D01*
X175444Y9147D01*
X175445Y9152D01*
X175445Y9153D01*
X175445Y9164D01*
X175478Y9229D01*
X175534Y9285D01*
X175545Y9303D01*
X175557Y9312D01*
X175565Y9331D01*
X175605Y9384D01*
X175678Y9529D01*
X175734Y9585D01*
X175774Y9650D01*
X175818Y9713D01*
X175820Y9724D01*
X175825Y9732D01*
X175829Y9767D01*
X175845Y9853D01*
X175845Y9903D01*
X175874Y9950D01*
X175918Y10013D01*
X175920Y10024D01*
X175925Y10032D01*
X175929Y10067D01*
X175945Y10153D01*
X175945Y10264D01*
X175978Y10329D01*
X176034Y10385D01*
X176074Y10450D01*
X176118Y10513D01*
X176120Y10524D01*
X176125Y10532D01*
X176129Y10567D01*
X176135Y10601D01*
X176138Y10608D01*
X176138Y10616D01*
X176145Y10653D01*
X176145Y10703D01*
X176174Y10750D01*
X176218Y10813D01*
X176220Y10824D01*
X176225Y10832D01*
X176229Y10867D01*
X176245Y10953D01*
X176245Y11064D01*
X176274Y11121D01*
X179530Y11679D01*
X179548Y11687D01*
X179567Y11688D01*
X179627Y11720D01*
X179689Y11747D01*
X179702Y11761D01*
X179719Y11771D01*
X179758Y11826D01*
X179802Y11878D01*
X179807Y11897D01*
X179818Y11913D01*
X179840Y12023D01*
X179845Y12046D01*
X179844Y12049D01*
X179845Y12053D01*
X179845Y15253D01*
X179841Y15272D01*
X179843Y15291D01*
X179832Y15325D01*
X179831Y15332D01*
X179826Y15342D01*
X179821Y15356D01*
X179806Y15422D01*
X179793Y15437D01*
X179787Y15455D01*
X179739Y15503D01*
X179696Y15555D01*
X179678Y15563D01*
X179664Y15577D01*
X179558Y15616D01*
X179538Y15626D01*
X179534Y15626D01*
X179530Y15627D01*
X176318Y16178D01*
X176307Y16216D01*
X176306Y16222D01*
X176305Y16222D01*
X176305Y16223D01*
X176245Y16343D01*
X176245Y16353D01*
X176242Y16369D01*
X176244Y16385D01*
X176224Y16454D01*
X176224Y16470D01*
X176216Y16484D01*
X176207Y16516D01*
X176206Y16522D01*
X176205Y16522D01*
X176205Y16523D01*
X176145Y16643D01*
X176145Y16653D01*
X176142Y16669D01*
X176144Y16685D01*
X176107Y16816D01*
X176106Y16822D01*
X176105Y16822D01*
X176105Y16823D01*
X175945Y17143D01*
X175945Y17153D01*
X175942Y17169D01*
X175944Y17185D01*
X175907Y17316D01*
X175906Y17322D01*
X175905Y17322D01*
X175905Y17323D01*
X175805Y17523D01*
X175782Y17550D01*
X175745Y17605D01*
X175745Y17653D01*
X175728Y17728D01*
X175714Y17803D01*
X175708Y17813D01*
X175706Y17822D01*
X175683Y17849D01*
X175634Y17921D01*
X175578Y17978D01*
X175505Y18123D01*
X175482Y18150D01*
X175445Y18205D01*
X175445Y18253D01*
X175428Y18328D01*
X175424Y18349D01*
X177278Y21038D01*
X177284Y21054D01*
X177296Y21066D01*
X177316Y21134D01*
X177341Y21199D01*
X177340Y21216D01*
X177345Y21232D01*
X177332Y21302D01*
X177326Y21371D01*
X177317Y21386D01*
X177314Y21403D01*
X177243Y21509D01*
X177236Y21519D01*
X177235Y21520D01*
X177234Y21521D01*
X175034Y23721D01*
X175020Y23730D01*
X175009Y23744D01*
X174947Y23776D01*
X174887Y23813D01*
X174870Y23814D01*
X174855Y23822D01*
X174785Y23822D01*
X174715Y23829D01*
X174699Y23823D01*
X174682Y23823D01*
X174564Y23771D01*
X174553Y23767D01*
X174552Y23766D01*
X174551Y23765D01*
X171852Y21904D01*
X171834Y21921D01*
X171769Y21962D01*
X171707Y22005D01*
X171695Y22008D01*
X171687Y22013D01*
X171652Y22016D01*
X171566Y22032D01*
X171516Y22032D01*
X171504Y22040D01*
X171436Y22092D01*
X171291Y22165D01*
X171234Y22221D01*
X171169Y22262D01*
X171107Y22305D01*
X171095Y22308D01*
X171087Y22313D01*
X171052Y22316D01*
X170966Y22332D01*
X170916Y22332D01*
X170904Y22340D01*
X170836Y22392D01*
X170636Y22492D01*
X170620Y22496D01*
X170607Y22505D01*
X170473Y22531D01*
X170467Y22532D01*
X170466Y22532D01*
X170456Y22532D01*
X170336Y22592D01*
X170320Y22596D01*
X170307Y22605D01*
X170173Y22631D01*
X170167Y22632D01*
X170166Y22632D01*
X170116Y22632D01*
X170069Y22662D01*
X170007Y22705D01*
X169995Y22708D01*
X169987Y22713D01*
X169952Y22716D01*
X169866Y22732D01*
X169756Y22732D01*
X169698Y22761D01*
X169140Y26017D01*
X169132Y26035D01*
X169131Y26055D01*
X169099Y26114D01*
X169072Y26177D01*
X169058Y26189D01*
X169048Y26206D01*
X168993Y26245D01*
X168941Y26290D01*
X168922Y26294D01*
X168907Y26305D01*
X168796Y26327D01*
X168774Y26332D01*
X168770Y26332D01*
X168766Y26332D01*
X165566Y26332D01*
X165547Y26328D01*
X165528Y26331D01*
X165464Y26308D01*
X165398Y26293D01*
X165383Y26281D01*
X165364Y26274D01*
X165317Y26226D01*
X165264Y26183D01*
X165256Y26165D01*
X165243Y26151D01*
X165203Y26045D01*
X165194Y26025D01*
X165194Y26021D01*
X165192Y26017D01*
X164642Y22805D01*
X164603Y22794D01*
X164598Y22793D01*
X164597Y22793D01*
X164596Y22792D01*
X164476Y22732D01*
X164466Y22732D01*
X164450Y22729D01*
X164434Y22731D01*
X164303Y22694D01*
X164298Y22693D01*
X164297Y22693D01*
X164296Y22692D01*
X164176Y22632D01*
X164166Y22632D01*
X164150Y22629D01*
X164134Y22631D01*
X164003Y22594D01*
X163998Y22593D01*
X163997Y22593D01*
X163996Y22592D01*
X163876Y22532D01*
X163766Y22532D01*
X163692Y22515D01*
X163616Y22502D01*
X163607Y22495D01*
X163598Y22493D01*
X163570Y22470D01*
X163498Y22421D01*
X163441Y22365D01*
X163376Y22332D01*
X163366Y22332D01*
X163350Y22329D01*
X163334Y22331D01*
X163203Y22294D01*
X163198Y22293D01*
X163197Y22293D01*
X163196Y22292D01*
X162996Y22192D01*
X162969Y22169D01*
X162898Y22121D01*
X162841Y22065D01*
X162776Y22032D01*
X162766Y22032D01*
X162750Y22029D01*
X162734Y22031D01*
X162603Y21994D01*
X162598Y21993D01*
X162597Y21993D01*
X162596Y21992D01*
X162455Y21922D01*
X159781Y23765D01*
X159769Y23770D01*
X159760Y23779D01*
X159689Y23802D01*
X159620Y23829D01*
X159607Y23827D01*
X159595Y23831D01*
X159522Y23820D01*
X159448Y23814D01*
X159437Y23807D01*
X159424Y23805D01*
X159304Y23727D01*
X157004Y21527D01*
X156990Y21506D01*
X156970Y21490D01*
X156943Y21434D01*
X156909Y21382D01*
X156906Y21357D01*
X156895Y21334D01*
X156896Y21272D01*
X156889Y21210D01*
X156898Y21186D01*
X156898Y21160D01*
X156936Y21081D01*
X156947Y21048D01*
X156954Y21041D01*
X156959Y21031D01*
X158894Y18358D01*
X158854Y18278D01*
X158798Y18221D01*
X158758Y18157D01*
X158714Y18094D01*
X158712Y18082D01*
X158707Y18074D01*
X158703Y18039D01*
X158687Y17953D01*
X158687Y17903D01*
X158679Y17891D01*
X158627Y17823D01*
X158554Y17678D01*
X158498Y17621D01*
X158458Y17557D01*
X158414Y17494D01*
X158412Y17482D01*
X158407Y17474D01*
X158403Y17439D01*
X158387Y17353D01*
X158387Y17303D01*
X158358Y17257D01*
X158314Y17194D01*
X158312Y17182D01*
X158307Y17174D01*
X158303Y17139D01*
X158287Y17053D01*
X158287Y16943D01*
X158254Y16878D01*
X158198Y16821D01*
X158158Y16757D01*
X158114Y16694D01*
X158112Y16682D01*
X158107Y16674D01*
X158103Y16639D01*
X158087Y16553D01*
X158087Y16503D01*
X158058Y16457D01*
X158014Y16394D01*
X158012Y16382D01*
X158007Y16374D01*
X158003Y16339D01*
X157987Y16253D01*
X157987Y16174D01*
X154704Y15627D01*
X154685Y15619D01*
X154665Y15619D01*
X154606Y15587D01*
X154544Y15561D01*
X154531Y15545D01*
X154513Y15536D01*
X154475Y15481D01*
X154431Y15430D01*
X154425Y15410D01*
X154414Y15394D01*
X154398Y15313D01*
X154394Y15302D01*
X154394Y15291D01*
X154393Y15287D01*
X154387Y15263D01*
X154388Y15258D01*
X154387Y15253D01*
X154387Y12053D01*
X154391Y12034D01*
X154389Y12015D01*
X154411Y11951D01*
X154426Y11885D01*
X154439Y11870D01*
X154445Y11851D01*
X154493Y11804D01*
X154536Y11751D01*
X154554Y11743D01*
X154568Y11730D01*
X154674Y11690D01*
X154694Y11681D01*
X154698Y11681D01*
X154702Y11679D01*
X157990Y11116D01*
X158025Y10990D01*
X158026Y10985D01*
X158027Y10984D01*
X158087Y10864D01*
X158087Y10853D01*
X158090Y10837D01*
X158088Y10821D01*
X158125Y10690D01*
X158126Y10685D01*
X158127Y10684D01*
X158187Y10564D01*
X158187Y10553D01*
X158190Y10537D01*
X158188Y10521D01*
X158225Y10390D01*
X158226Y10385D01*
X158227Y10384D01*
X158387Y10064D01*
X158387Y10053D01*
X158390Y10037D01*
X158388Y10021D01*
X158425Y9890D01*
X158426Y9885D01*
X158427Y9884D01*
X158527Y9684D01*
X158550Y9656D01*
X158598Y9585D01*
X158654Y9529D01*
X158687Y9464D01*
X158687Y9453D01*
X158690Y9437D01*
X158688Y9421D01*
X158725Y9290D01*
X158726Y9285D01*
X158727Y9284D01*
X158827Y9084D01*
X158850Y9056D01*
X158898Y8985D01*
X158908Y8975D01*
X156963Y6381D01*
X156953Y6358D01*
X156936Y6340D01*
X156918Y6280D01*
X156893Y6222D01*
X156894Y6198D01*
X156887Y6174D01*
X156898Y6112D01*
X156901Y6049D01*
X156913Y6028D01*
X156918Y6004D01*
X156969Y5928D01*
X156985Y5898D01*
X156992Y5893D01*
X156998Y5885D01*
X159298Y3585D01*
X159312Y3576D01*
X159323Y3562D01*
X159385Y3531D01*
X159445Y3494D01*
X159462Y3492D01*
X159477Y3484D01*
X159548Y3484D01*
X159617Y3477D01*
X159633Y3484D01*
X159650Y3483D01*
X159768Y3535D01*
X159779Y3539D01*
X159780Y3540D01*
X159781Y3541D01*
X162480Y5402D01*
X162498Y5385D01*
X162563Y5345D01*
X162625Y5301D01*
X162637Y5299D01*
X162645Y5294D01*
X162680Y5290D01*
X162695Y5288D01*
X162698Y5285D01*
X162763Y5245D01*
X162825Y5201D01*
X162837Y5199D01*
X162845Y5194D01*
X162880Y5190D01*
X162966Y5174D01*
X163016Y5174D01*
X163063Y5145D01*
X163125Y5101D01*
X163137Y5099D01*
X163145Y5094D01*
X163180Y5090D01*
X163195Y5088D01*
X163198Y5085D01*
X163263Y5045D01*
X163325Y5001D01*
X163337Y4999D01*
X163345Y4994D01*
X163380Y4990D01*
X163395Y4988D01*
X163398Y4985D01*
X163463Y4945D01*
X163525Y4901D01*
X163537Y4899D01*
X163545Y4894D01*
X163580Y4890D01*
X163609Y4885D01*
X163636Y4851D01*
X163655Y4843D01*
X163670Y4829D01*
X163733Y4808D01*
X163794Y4781D01*
X163815Y4782D01*
X163834Y4775D01*
X163900Y4785D01*
X163967Y4788D01*
X163985Y4798D01*
X164005Y4800D01*
X164060Y4839D01*
X164119Y4871D01*
X164131Y4887D01*
X164147Y4899D01*
X164204Y4992D01*
X164218Y5013D01*
X164219Y5017D01*
X164222Y5021D01*
X166222Y10421D01*
X166226Y10452D01*
X166238Y10480D01*
X166236Y10537D01*
X166243Y10593D01*
X166233Y10622D01*
X166232Y10653D01*
X166205Y10703D01*
X166186Y10757D01*
X166164Y10778D01*
X166149Y10805D01*
X166089Y10851D01*
X166062Y10878D01*
X166049Y10882D01*
X166036Y10892D01*
X165491Y11165D01*
X165334Y11321D01*
X165304Y11340D01*
X165236Y11392D01*
X165091Y11465D01*
X164778Y11778D01*
X164705Y11923D01*
X164682Y11950D01*
X164634Y12021D01*
X164478Y12178D01*
X164417Y12299D01*
X164326Y12573D01*
X164314Y12593D01*
X164305Y12623D01*
X164245Y12743D01*
X164245Y12853D01*
X164237Y12888D01*
X164226Y12973D01*
X164145Y13215D01*
X164145Y13992D01*
X164226Y14233D01*
X164229Y14269D01*
X164245Y14353D01*
X164245Y14538D01*
X164382Y14743D01*
X164395Y14778D01*
X164426Y14833D01*
X164510Y15085D01*
X164861Y15612D01*
X165208Y15958D01*
X165734Y16309D01*
X165986Y16393D01*
X166004Y16405D01*
X166018Y16408D01*
X166031Y16418D01*
X166076Y16438D01*
X166281Y16574D01*
X166466Y16574D01*
X166501Y16582D01*
X166586Y16593D01*
X166828Y16674D01*
X167419Y16674D01*
X167774Y16585D01*
X167810Y16585D01*
X167866Y16574D01*
X168051Y16574D01*
X168256Y16438D01*
X168291Y16425D01*
X168340Y16397D01*
X168342Y16395D01*
X168343Y16395D01*
X168346Y16393D01*
X168598Y16309D01*
X168825Y16158D01*
X168998Y15985D01*
X169024Y15969D01*
X169056Y15938D01*
X169325Y15758D01*
X169471Y15612D01*
X169822Y15085D01*
X170187Y13992D01*
X170187Y13515D01*
X170106Y13273D01*
X170103Y13237D01*
X170087Y13153D01*
X170087Y12943D01*
X169927Y12623D01*
X169921Y12600D01*
X169906Y12573D01*
X169815Y12299D01*
X169654Y11978D01*
X169498Y11821D01*
X169479Y11791D01*
X169427Y11723D01*
X169354Y11578D01*
X169241Y11465D01*
X169096Y11392D01*
X169069Y11369D01*
X168998Y11321D01*
X168841Y11165D01*
X168520Y11004D01*
X168246Y10913D01*
X168197Y10883D01*
X168144Y10861D01*
X168124Y10838D01*
X168099Y10822D01*
X168068Y10773D01*
X168031Y10730D01*
X168023Y10701D01*
X168007Y10676D01*
X168001Y10618D01*
X167987Y10563D01*
X167993Y10529D01*
X167990Y10503D01*
X168002Y10472D01*
X168010Y10421D01*
X170010Y5021D01*
X170036Y4983D01*
X170052Y4940D01*
X170083Y4912D01*
X170106Y4877D01*
X170146Y4854D01*
X170179Y4823D01*
X170219Y4811D01*
X170256Y4790D01*
X170301Y4787D01*
X170345Y4775D01*
X170386Y4782D01*
X170428Y4779D01*
X170471Y4797D01*
X170516Y4805D01*
X170557Y4833D01*
X170588Y4846D01*
X170605Y4865D01*
X170618Y4874D01*
X170666Y4874D01*
X170740Y4891D01*
X170816Y4905D01*
X170825Y4911D01*
X170834Y4913D01*
X170862Y4936D01*
X170934Y4985D01*
X170941Y4991D01*
X171016Y5005D01*
X171025Y5011D01*
X171034Y5013D01*
X171062Y5036D01*
X171134Y5085D01*
X171141Y5091D01*
X171216Y5105D01*
X171225Y5111D01*
X171234Y5113D01*
X171262Y5136D01*
X171334Y5185D01*
X171341Y5191D01*
X171416Y5205D01*
X171425Y5211D01*
X171434Y5213D01*
X171462Y5236D01*
X171534Y5285D01*
X171541Y5291D01*
X171616Y5305D01*
X171625Y5311D01*
X171634Y5313D01*
X171662Y5336D01*
X171734Y5385D01*
X171741Y5391D01*
X171816Y5405D01*
X171825Y5411D01*
X171834Y5413D01*
X171835Y5414D01*
X174551Y3541D01*
X174571Y3533D01*
X174587Y3519D01*
X174650Y3502D01*
X174712Y3478D01*
X174733Y3480D01*
X174754Y3474D01*
X174818Y3487D01*
G37*
G36*
X86212Y58355D02*
X86212Y58355D01*
X86216Y58352D01*
X86716Y58452D01*
X86744Y58484D01*
X86746Y58485D01*
X86746Y58486D01*
X86755Y58496D01*
X86753Y58498D01*
X86755Y58500D01*
X86755Y68100D01*
X86751Y68106D01*
X86754Y68110D01*
X86654Y68610D01*
X86610Y68649D01*
X86608Y68647D01*
X86606Y68649D01*
X62306Y68649D01*
X62300Y68645D01*
X62296Y68648D01*
X61296Y68448D01*
X61292Y68443D01*
X61288Y68446D01*
X60788Y68246D01*
X60786Y68243D01*
X60784Y68244D01*
X60386Y68045D01*
X59888Y67846D01*
X59883Y67838D01*
X59876Y67839D01*
X59476Y67539D01*
X59475Y67534D01*
X59471Y67535D01*
X58771Y66835D01*
X58770Y66826D01*
X58764Y66825D01*
X58465Y66328D01*
X58167Y65930D01*
X58167Y65923D01*
X58162Y65922D01*
X57962Y65522D01*
X57963Y65519D01*
X57960Y65518D01*
X57760Y65018D01*
X57761Y65015D01*
X57758Y65013D01*
X57760Y65011D01*
X57758Y65010D01*
X57558Y64010D01*
X57561Y64003D01*
X57557Y64000D01*
X57557Y63000D01*
X57561Y62994D01*
X57558Y62990D01*
X57758Y61990D01*
X57763Y61986D01*
X57760Y61982D01*
X58160Y60982D01*
X58168Y60977D01*
X58167Y60970D01*
X58767Y60170D01*
X58772Y60169D01*
X58771Y60165D01*
X59471Y59465D01*
X59480Y59464D01*
X59481Y59458D01*
X59981Y59158D01*
X59984Y59158D01*
X59984Y59156D01*
X60384Y58956D01*
X60387Y58957D01*
X60388Y58954D01*
X60886Y58755D01*
X61284Y58556D01*
X61293Y58558D01*
X61296Y58552D01*
X62296Y58352D01*
X62303Y58355D01*
X62306Y58351D01*
X86206Y58351D01*
X86212Y58355D01*
G37*
G36*
X111937Y21012D02*
X111937Y21012D01*
X111963Y21013D01*
X112017Y21043D01*
X112075Y21065D01*
X112092Y21084D01*
X112115Y21096D01*
X112150Y21147D01*
X112192Y21192D01*
X112200Y21217D01*
X112215Y21238D01*
X112231Y21322D01*
X112242Y21358D01*
X112240Y21368D01*
X112242Y21380D01*
X112242Y35080D01*
X112238Y35100D01*
X112239Y35127D01*
X112139Y35927D01*
X112131Y35951D01*
X112128Y35984D01*
X111928Y36684D01*
X111909Y36718D01*
X111888Y36776D01*
X111288Y37776D01*
X111268Y37796D01*
X111200Y37877D01*
X110700Y38277D01*
X110695Y38279D01*
X110690Y38284D01*
X110290Y38584D01*
X110255Y38599D01*
X110203Y38633D01*
X109703Y38833D01*
X109674Y38837D01*
X109637Y38853D01*
X109137Y38953D01*
X109131Y38953D01*
X109125Y38955D01*
X108525Y39055D01*
X108498Y39053D01*
X108462Y39060D01*
X107262Y39060D01*
X107247Y39057D01*
X107232Y39059D01*
X107100Y39022D01*
X107093Y39021D01*
X107093Y39020D01*
X107092Y39020D01*
X106716Y38832D01*
X106692Y38820D01*
X106673Y38804D01*
X106649Y38795D01*
X106607Y38749D01*
X106559Y38709D01*
X106549Y38687D01*
X106532Y38668D01*
X106514Y38608D01*
X106488Y38551D01*
X106490Y38526D01*
X106482Y38502D01*
X106493Y38440D01*
X106496Y38378D01*
X106508Y38356D01*
X106512Y38331D01*
X106561Y38258D01*
X106579Y38226D01*
X106587Y38221D01*
X106593Y38211D01*
X106693Y38111D01*
X106725Y38091D01*
X106792Y38040D01*
X107192Y37840D01*
X107215Y37834D01*
X107242Y37819D01*
X107457Y37748D01*
X107930Y37275D01*
X107982Y37118D01*
X107982Y36842D01*
X107917Y36649D01*
X107767Y36422D01*
X107248Y35904D01*
X106853Y35746D01*
X106424Y35660D01*
X105709Y35660D01*
X105018Y35833D01*
X104522Y36164D01*
X104201Y36565D01*
X104042Y37042D01*
X104042Y37611D01*
X104289Y38269D01*
X104931Y38911D01*
X104936Y38920D01*
X104946Y38927D01*
X105746Y39827D01*
X105747Y39829D01*
X105748Y39830D01*
X106448Y40630D01*
X106464Y40659D01*
X106494Y40695D01*
X106994Y41595D01*
X107005Y41633D01*
X107033Y41698D01*
X107233Y42598D01*
X107233Y42600D01*
X107234Y42602D01*
X107233Y42631D01*
X107242Y42680D01*
X107242Y43480D01*
X107234Y43517D01*
X107223Y43600D01*
X106923Y44500D01*
X106904Y44531D01*
X106884Y44582D01*
X106384Y45382D01*
X106363Y45403D01*
X106295Y45480D01*
X105395Y46180D01*
X105371Y46191D01*
X105344Y46214D01*
X104244Y46814D01*
X104225Y46819D01*
X104211Y46829D01*
X104178Y46836D01*
X104130Y46854D01*
X103030Y47054D01*
X103001Y47053D01*
X102962Y47060D01*
X101962Y47060D01*
X101929Y47053D01*
X101880Y47051D01*
X100980Y46851D01*
X100947Y46835D01*
X100892Y46820D01*
X100886Y46817D01*
X100126Y46437D01*
X99492Y46120D01*
X99470Y46102D01*
X99434Y46084D01*
X99034Y45784D01*
X99019Y45766D01*
X98993Y45749D01*
X98893Y45649D01*
X98880Y45627D01*
X98860Y45611D01*
X98834Y45554D01*
X98802Y45502D01*
X98799Y45476D01*
X98789Y45452D01*
X98791Y45391D01*
X98785Y45329D01*
X98794Y45305D01*
X98795Y45279D01*
X98825Y45225D01*
X98847Y45167D01*
X98866Y45150D01*
X98878Y45127D01*
X98929Y45092D01*
X98974Y45050D01*
X98999Y45042D01*
X99020Y45027D01*
X99104Y45011D01*
X99140Y45000D01*
X99150Y45002D01*
X99162Y45000D01*
X99262Y45000D01*
X99277Y45003D01*
X99292Y45001D01*
X99424Y45038D01*
X99431Y45039D01*
X99431Y45040D01*
X99432Y45040D01*
X99552Y45100D01*
X100015Y45100D01*
X100370Y45011D01*
X100378Y45011D01*
X100387Y45007D01*
X100838Y44917D01*
X101161Y44755D01*
X101482Y44515D01*
X101633Y44289D01*
X101710Y44134D01*
X101782Y43918D01*
X101782Y43427D01*
X101709Y43136D01*
X101367Y42622D01*
X100812Y42068D01*
X100442Y41791D01*
X100171Y41610D01*
X99939Y41494D01*
X99829Y41439D01*
X99115Y41260D01*
X98924Y41260D01*
X98767Y41312D01*
X98575Y41505D01*
X98514Y41626D01*
X98442Y41842D01*
X98442Y42680D01*
X98430Y42731D01*
X98429Y42775D01*
X98421Y42789D01*
X98417Y42816D01*
X98407Y42831D01*
X98403Y42849D01*
X98361Y42900D01*
X98346Y42927D01*
X98338Y42932D01*
X98320Y42960D01*
X98304Y42969D01*
X98293Y42982D01*
X98229Y43011D01*
X98217Y43018D01*
X98204Y43027D01*
X98200Y43028D01*
X98169Y43045D01*
X98151Y43046D01*
X98134Y43053D01*
X98078Y43051D01*
X98062Y43054D01*
X98052Y43054D01*
X98042Y43052D01*
X97996Y43054D01*
X97977Y43047D01*
X97961Y43047D01*
X97927Y43028D01*
X97906Y43020D01*
X97884Y43015D01*
X97876Y43008D01*
X97860Y43002D01*
X97060Y42502D01*
X97033Y42475D01*
X96978Y42433D01*
X96178Y41533D01*
X96165Y41510D01*
X96141Y41484D01*
X95441Y40384D01*
X95429Y40350D01*
X95401Y40300D01*
X94901Y38800D01*
X94899Y38778D01*
X94888Y38750D01*
X94588Y37150D01*
X94590Y37114D01*
X94582Y37058D01*
X94682Y35358D01*
X94691Y35327D01*
X94694Y35283D01*
X95194Y33383D01*
X95212Y33351D01*
X95230Y33295D01*
X96230Y31495D01*
X96247Y31477D01*
X96262Y31447D01*
X96962Y30547D01*
X96978Y30533D01*
X96993Y30511D01*
X97793Y29711D01*
X97803Y29705D01*
X97812Y29694D01*
X98612Y28994D01*
X98637Y28980D01*
X98666Y28954D01*
X99666Y28354D01*
X99691Y28346D01*
X99721Y28327D01*
X100721Y27927D01*
X100740Y27924D01*
X100762Y27913D01*
X101862Y27613D01*
X101879Y27613D01*
X101900Y27605D01*
X103100Y27405D01*
X103126Y27407D01*
X103162Y27400D01*
X105031Y27400D01*
X105528Y27317D01*
X106426Y26778D01*
X107383Y25822D01*
X108573Y24433D01*
X108584Y24425D01*
X108593Y24411D01*
X109781Y23223D01*
X110270Y22637D01*
X110282Y22627D01*
X110293Y22611D01*
X110760Y22144D01*
X111036Y21684D01*
X111061Y21658D01*
X111093Y21611D01*
X111593Y21111D01*
X111615Y21098D01*
X111631Y21078D01*
X111688Y21052D01*
X111740Y21020D01*
X111766Y21017D01*
X111790Y21007D01*
X111851Y21009D01*
X111913Y21003D01*
X111937Y21012D01*
G37*
G36*
X132036Y55455D02*
X132036Y55455D01*
X132040Y55452D01*
X132540Y55552D01*
X132568Y55584D01*
X132570Y55585D01*
X132570Y55586D01*
X132579Y55596D01*
X132577Y55598D01*
X132579Y55600D01*
X132579Y58800D01*
X132559Y58827D01*
X132558Y58840D01*
X132530Y58861D01*
X132561Y58862D01*
X132560Y58886D01*
X132579Y58900D01*
X132579Y68400D01*
X132576Y68405D01*
X132579Y68408D01*
X132479Y69008D01*
X132379Y69707D01*
X132374Y69712D01*
X132377Y69716D01*
X132177Y70315D01*
X131977Y71014D01*
X131969Y71020D01*
X131971Y71027D01*
X131572Y71626D01*
X131272Y72125D01*
X131267Y72127D01*
X131268Y72132D01*
X130768Y72732D01*
X130764Y72732D01*
X130765Y72735D01*
X130365Y73135D01*
X130361Y73135D01*
X130362Y73138D01*
X129762Y73638D01*
X129761Y73638D01*
X129261Y74038D01*
X129253Y74039D01*
X129252Y74044D01*
X128652Y74344D01*
X128647Y74343D01*
X128646Y74347D01*
X128046Y74547D01*
X128044Y74546D01*
X128044Y74547D01*
X127344Y74747D01*
X127339Y74746D01*
X127337Y74749D01*
X126638Y74849D01*
X126038Y74949D01*
X126033Y74946D01*
X126030Y74949D01*
X125330Y74949D01*
X125326Y74946D01*
X125323Y74949D01*
X123923Y74749D01*
X123918Y74744D01*
X123914Y74747D01*
X123314Y74547D01*
X123311Y74542D01*
X123308Y74544D01*
X122108Y73944D01*
X122106Y73940D01*
X122103Y73941D01*
X121503Y73541D01*
X121500Y73534D01*
X121495Y73535D01*
X120995Y73035D01*
X120995Y73031D01*
X120992Y73031D01*
X120593Y72533D01*
X120095Y72035D01*
X120094Y72023D01*
X120086Y72022D01*
X119186Y70222D01*
X119188Y70211D01*
X119181Y70207D01*
X119081Y69508D01*
X118981Y68908D01*
X118982Y68907D01*
X118981Y68907D01*
X118881Y68207D01*
X118884Y68202D01*
X118881Y68200D01*
X118881Y56000D01*
X118889Y55989D01*
X118884Y55982D01*
X119084Y55482D01*
X119125Y55457D01*
X119130Y55451D01*
X132030Y55451D01*
X132036Y55455D01*
G37*
G36*
X125967Y4021D02*
X125967Y4021D01*
X125972Y4026D01*
X125976Y4023D01*
X126575Y4223D01*
X127274Y4423D01*
X127278Y4428D01*
X127282Y4426D01*
X127882Y4726D01*
X127885Y4733D01*
X127891Y4732D01*
X128389Y5130D01*
X128987Y5529D01*
X128990Y5536D01*
X128995Y5535D01*
X129495Y6035D01*
X129495Y6039D01*
X129498Y6039D01*
X129898Y6539D01*
X129899Y6543D01*
X129901Y6543D01*
X130301Y7143D01*
X130301Y7147D01*
X130304Y7148D01*
X130904Y8348D01*
X130903Y8353D01*
X130907Y8354D01*
X131107Y8954D01*
X131105Y8961D01*
X131109Y8963D01*
X131309Y10363D01*
X131306Y10368D01*
X131309Y10370D01*
X131309Y20170D01*
X131298Y20185D01*
X131302Y20195D01*
X131002Y20695D01*
X130968Y20709D01*
X130960Y20719D01*
X118060Y20719D01*
X118052Y20713D01*
X118042Y20706D01*
X118030Y20709D01*
X117630Y20409D01*
X117625Y20392D01*
X117613Y20382D01*
X117618Y20375D01*
X117611Y20370D01*
X117611Y10870D01*
X117619Y10859D01*
X117618Y10844D01*
X117631Y10843D01*
X117644Y10826D01*
X117623Y10803D01*
X117622Y10785D01*
X117613Y10778D01*
X117616Y10774D01*
X117611Y10770D01*
X117611Y10170D01*
X117614Y10166D01*
X117611Y10163D01*
X117711Y9463D01*
X117715Y9459D01*
X117713Y9456D01*
X117913Y8756D01*
X117914Y8755D01*
X117913Y8754D01*
X118113Y8154D01*
X118118Y8151D01*
X118116Y8148D01*
X118716Y6948D01*
X118720Y6946D01*
X118719Y6943D01*
X119119Y6343D01*
X119126Y6340D01*
X119125Y6335D01*
X119625Y5835D01*
X119629Y5835D01*
X119629Y5832D01*
X120129Y5432D01*
X120133Y5431D01*
X120133Y5429D01*
X120731Y5030D01*
X121229Y4632D01*
X121239Y4631D01*
X121241Y4625D01*
X121941Y4325D01*
X121944Y4326D01*
X121944Y4323D01*
X122544Y4123D01*
X122551Y4125D01*
X122553Y4121D01*
X123252Y4021D01*
X123852Y3921D01*
X123853Y3922D01*
X123853Y3921D01*
X124553Y3821D01*
X124562Y3826D01*
X124567Y3821D01*
X125967Y4021D01*
G37*
%LPC*%
G36*
X16973Y58849D02*
X16973Y58849D01*
X16281Y58948D01*
X15689Y59146D01*
X15095Y59443D01*
X14499Y59840D01*
X14005Y60235D01*
X13510Y60829D01*
X13213Y61323D01*
X12916Y61918D01*
X12719Y62607D01*
X12719Y64593D01*
X12726Y64616D01*
X12740Y64665D01*
X12782Y64813D01*
X12824Y64961D01*
X12838Y65010D01*
X12881Y65158D01*
X12916Y65282D01*
X13212Y65873D01*
X13608Y66369D01*
X14005Y66865D01*
X14599Y67360D01*
X15093Y67657D01*
X15688Y67954D01*
X16381Y68152D01*
X16974Y68251D01*
X20256Y68251D01*
X20725Y67970D01*
X20821Y67396D01*
X20821Y59903D01*
X20724Y59227D01*
X20351Y58947D01*
X19667Y58849D01*
X16973Y58849D01*
G37*
%LPD*%
%LPC*%
G36*
X125033Y59249D02*
X125033Y59249D01*
X124338Y59349D01*
X123745Y59447D01*
X122553Y60043D01*
X122061Y60339D01*
X121572Y60828D01*
X121276Y61518D01*
X121079Y62108D01*
X121079Y63492D01*
X121276Y64081D01*
X121572Y64673D01*
X121965Y65165D01*
X122457Y65558D01*
X123049Y65854D01*
X124241Y66252D01*
X124933Y66351D01*
X127122Y66351D01*
X127714Y66153D01*
X127716Y66154D01*
X127716Y66153D01*
X128415Y65953D01*
X129008Y65755D01*
X129601Y65360D01*
X130093Y64966D01*
X130485Y64378D01*
X130682Y63789D01*
X130781Y63097D01*
X130781Y62403D01*
X130682Y61715D01*
X130387Y61123D01*
X130088Y60625D01*
X130094Y60566D01*
X130101Y60567D01*
X130102Y60560D01*
X130131Y60539D01*
X130113Y60539D01*
X130105Y60542D01*
X129107Y59943D01*
X128512Y59646D01*
X127819Y59448D01*
X127222Y59349D01*
X126527Y59249D01*
X125033Y59249D01*
G37*
%LPD*%
%LPC*%
G36*
X24173Y58849D02*
X24173Y58849D01*
X23393Y58947D01*
X23016Y59324D01*
X22919Y59908D01*
X22875Y59949D01*
X22873Y59946D01*
X22870Y59949D01*
X22841Y59949D01*
X22872Y59951D01*
X22918Y59989D01*
X22913Y59995D01*
X22919Y60000D01*
X22919Y66697D01*
X23018Y67488D01*
X23210Y67966D01*
X23684Y68251D01*
X24450Y68251D01*
X25121Y67580D01*
X25121Y62800D01*
X25129Y62789D01*
X25127Y62776D01*
X25140Y62774D01*
X25157Y62753D01*
X25168Y62761D01*
X25170Y62758D01*
X25177Y62758D01*
X25190Y62767D01*
X25205Y62765D01*
X25405Y62965D01*
X25406Y62970D01*
X25409Y62970D01*
X26009Y63770D01*
X28809Y67469D01*
X29299Y68058D01*
X29878Y68251D01*
X30555Y68251D01*
X31125Y67871D01*
X31221Y67296D01*
X31221Y59804D01*
X31124Y59224D01*
X30750Y58849D01*
X29878Y58849D01*
X29303Y59041D01*
X29019Y59514D01*
X29019Y64200D01*
X29009Y64213D01*
X29009Y64230D01*
X28997Y64230D01*
X28983Y64247D01*
X28967Y64235D01*
X28959Y64235D01*
X28952Y64230D01*
X28931Y64230D01*
X25333Y59432D01*
X24750Y58849D01*
X24173Y58849D01*
G37*
%LPD*%
%LPC*%
G36*
X30873Y8049D02*
X30873Y8049D01*
X30097Y8146D01*
X29817Y8520D01*
X29719Y9203D01*
X29719Y16691D01*
X29909Y17164D01*
X30482Y17451D01*
X31152Y17451D01*
X31921Y16778D01*
X31921Y12000D01*
X31929Y11989D01*
X31927Y11976D01*
X31940Y11974D01*
X31957Y11953D01*
X31968Y11961D01*
X31970Y11958D01*
X31977Y11958D01*
X31990Y11967D01*
X32005Y11965D01*
X32205Y12165D01*
X32206Y12170D01*
X32209Y12170D01*
X32809Y12970D01*
X32809Y12971D01*
X32810Y12971D01*
X35508Y16768D01*
X35997Y17257D01*
X36578Y17451D01*
X37353Y17451D01*
X37825Y17073D01*
X37921Y16496D01*
X37921Y9004D01*
X37824Y8424D01*
X37450Y8049D01*
X36578Y8049D01*
X36007Y8240D01*
X35819Y8709D01*
X35819Y13300D01*
X35810Y13313D01*
X35810Y13329D01*
X35797Y13329D01*
X35783Y13347D01*
X35769Y13337D01*
X35760Y13337D01*
X35751Y13330D01*
X35731Y13330D01*
X32032Y8632D01*
X31547Y8049D01*
X30873Y8049D01*
G37*
%LPD*%
G36*
X65576Y11963D02*
X65576Y11963D01*
X65583Y11974D01*
X65592Y11972D01*
X66192Y12472D01*
X66195Y12486D01*
X66195Y12489D01*
X66206Y12492D01*
X66406Y12992D01*
X66399Y13015D01*
X66407Y13026D01*
X66207Y13626D01*
X66196Y13633D01*
X66198Y13642D01*
X65698Y14242D01*
X65696Y14242D01*
X65696Y14243D01*
X63425Y16712D01*
X63798Y17178D01*
X66096Y19677D01*
X66097Y19687D01*
X66104Y19688D01*
X66404Y20288D01*
X66400Y20310D01*
X66408Y20320D01*
X66308Y20820D01*
X66293Y20833D01*
X66295Y20845D01*
X65695Y21445D01*
X65679Y21447D01*
X65676Y21457D01*
X65076Y21657D01*
X65053Y21649D01*
X65042Y21656D01*
X64542Y21456D01*
X64536Y21446D01*
X64528Y21448D01*
X63928Y20948D01*
X63927Y20942D01*
X63922Y20942D01*
X61761Y18388D01*
X61398Y18841D01*
X61396Y18841D01*
X61397Y18843D01*
X59598Y20842D01*
X59098Y21442D01*
X59079Y21446D01*
X59076Y21457D01*
X58476Y21657D01*
X58453Y21649D01*
X58442Y21656D01*
X57942Y21456D01*
X57936Y21446D01*
X57928Y21448D01*
X57328Y20948D01*
X57324Y20929D01*
X57313Y20926D01*
X57113Y20326D01*
X57122Y20300D01*
X57116Y20288D01*
X57416Y19688D01*
X57425Y19683D01*
X57424Y19676D01*
X60193Y16710D01*
X57924Y14244D01*
X57425Y13745D01*
X57424Y13733D01*
X57416Y13732D01*
X57116Y13132D01*
X57121Y13104D01*
X57120Y13104D01*
X57121Y13103D01*
X57114Y13092D01*
X57314Y12592D01*
X57326Y12584D01*
X57325Y12575D01*
X57925Y11975D01*
X57939Y11973D01*
X57942Y11964D01*
X58442Y11764D01*
X58465Y11771D01*
X58476Y11763D01*
X59076Y11963D01*
X59086Y11978D01*
X59097Y11978D01*
X61763Y15038D01*
X62124Y14677D01*
X63923Y12578D01*
X64422Y11978D01*
X64439Y11975D01*
X64442Y11964D01*
X64942Y11764D01*
X64965Y11771D01*
X64976Y11763D01*
X65576Y11963D01*
G37*
%LPC*%
G36*
X36673Y58849D02*
X36673Y58849D01*
X35877Y58949D01*
X35285Y59047D01*
X34693Y59343D01*
X34201Y59639D01*
X33713Y60127D01*
X33519Y60708D01*
X33519Y63397D01*
X33617Y64081D01*
X33900Y64457D01*
X34577Y64651D01*
X36762Y64651D01*
X37331Y64461D01*
X37521Y63892D01*
X37521Y63220D01*
X37148Y62848D01*
X35767Y62749D01*
X35722Y62710D01*
X35727Y62704D01*
X35721Y62700D01*
X35721Y61400D01*
X35746Y61367D01*
X35748Y61356D01*
X36348Y61056D01*
X36364Y61059D01*
X36370Y61051D01*
X37070Y61051D01*
X37075Y61054D01*
X37078Y61051D01*
X37678Y61151D01*
X37682Y61156D01*
X37686Y61153D01*
X38286Y61353D01*
X38293Y61364D01*
X38302Y61362D01*
X38902Y61862D01*
X38903Y61869D01*
X38908Y61869D01*
X39308Y62369D01*
X39309Y62382D01*
X39317Y62384D01*
X39517Y62984D01*
X39515Y62989D01*
X39518Y62991D01*
X39517Y62992D01*
X39519Y62993D01*
X39619Y63693D01*
X39614Y63702D01*
X39619Y63707D01*
X39519Y64407D01*
X39515Y64411D01*
X39517Y64414D01*
X39317Y65114D01*
X39306Y65122D01*
X39308Y65131D01*
X38908Y65631D01*
X38901Y65633D01*
X38901Y65638D01*
X38401Y66038D01*
X38387Y66039D01*
X38384Y66047D01*
X37684Y66247D01*
X37679Y66246D01*
X37677Y66249D01*
X36977Y66349D01*
X36967Y66343D01*
X36962Y66349D01*
X36362Y66249D01*
X36355Y66242D01*
X36349Y66245D01*
X35064Y65651D01*
X34597Y65745D01*
X34112Y66327D01*
X33823Y66904D01*
X34011Y67468D01*
X34595Y67857D01*
X35189Y68154D01*
X35781Y68352D01*
X36477Y68451D01*
X37169Y68550D01*
X37762Y68451D01*
X37763Y68452D01*
X37763Y68451D01*
X38455Y68352D01*
X39048Y68056D01*
X39643Y67758D01*
X40137Y67363D01*
X40633Y66867D01*
X41030Y66371D01*
X41425Y65778D01*
X41622Y65189D01*
X41821Y63797D01*
X41821Y63104D01*
X41722Y62511D01*
X41712Y62476D01*
X41670Y62328D01*
X41627Y62180D01*
X41613Y62131D01*
X41571Y61983D01*
X41529Y61835D01*
X41524Y61818D01*
X41228Y61227D01*
X40833Y60733D01*
X39839Y59738D01*
X39245Y59343D01*
X38655Y59047D01*
X38062Y58949D01*
X37367Y58849D01*
X36673Y58849D01*
G37*
%LPD*%
G36*
X83979Y45300D02*
X83979Y45300D01*
X83989Y45296D01*
X84489Y45596D01*
X84497Y45614D01*
X84508Y45616D01*
X84808Y46216D01*
X84804Y46236D01*
X84813Y46245D01*
X84713Y46945D01*
X84701Y46957D01*
X84704Y46967D01*
X80824Y52339D01*
X80990Y52589D01*
X84364Y52589D01*
X84385Y52605D01*
X84399Y52603D01*
X84799Y53003D01*
X84803Y53030D01*
X84813Y53038D01*
X84813Y53938D01*
X84810Y53943D01*
X84813Y53946D01*
X84713Y54546D01*
X84689Y54569D01*
X84686Y54582D01*
X84086Y54882D01*
X84070Y54879D01*
X84064Y54887D01*
X78664Y54887D01*
X78659Y54884D01*
X78656Y54887D01*
X78056Y54787D01*
X78046Y54776D01*
X78037Y54779D01*
X77437Y54379D01*
X77429Y54358D01*
X77417Y54354D01*
X77217Y53754D01*
X77224Y53734D01*
X77217Y53724D01*
X77417Y53024D01*
X77427Y53017D01*
X77424Y53009D01*
X81281Y47668D01*
X80958Y47587D01*
X78264Y47587D01*
X78260Y47584D01*
X78257Y47587D01*
X77557Y47487D01*
X77539Y47468D01*
X77526Y47469D01*
X77126Y46969D01*
X77125Y46950D01*
X77115Y46945D01*
X77015Y46245D01*
X77023Y46231D01*
X77017Y46222D01*
X77217Y45622D01*
X77237Y45609D01*
X77239Y45596D01*
X77739Y45296D01*
X77757Y45298D01*
X77764Y45289D01*
X83964Y45289D01*
X83979Y45300D01*
G37*
%LPC*%
G36*
X164742Y38469D02*
X164742Y38469D01*
X164371Y38654D01*
X164179Y39327D01*
X164179Y40200D01*
X164553Y40574D01*
X165237Y40671D01*
X165238Y40672D01*
X165238Y40671D01*
X165838Y40771D01*
X165853Y40787D01*
X165865Y40785D01*
X166365Y41285D01*
X166368Y41307D01*
X166379Y41313D01*
X166479Y42013D01*
X166471Y42027D01*
X166477Y42036D01*
X166277Y42636D01*
X166260Y42647D01*
X166261Y42658D01*
X165761Y43058D01*
X165738Y43059D01*
X165730Y43069D01*
X165130Y43069D01*
X165117Y43060D01*
X165108Y43064D01*
X164508Y42764D01*
X164505Y42757D01*
X164499Y42758D01*
X163999Y42358D01*
X163997Y42351D01*
X163992Y42352D01*
X163492Y41752D01*
X163492Y41746D01*
X163488Y41745D01*
X163188Y41245D01*
X163187Y41245D01*
X162488Y40046D01*
X162093Y39454D01*
X161601Y39060D01*
X161008Y38665D01*
X160426Y38471D01*
X159848Y38567D01*
X159276Y38949D01*
X159179Y39623D01*
X159179Y45012D01*
X159369Y45581D01*
X159935Y45770D01*
X160714Y45672D01*
X161189Y45387D01*
X161381Y44812D01*
X161381Y42420D01*
X161392Y42406D01*
X161393Y42388D01*
X161405Y42389D01*
X161417Y42373D01*
X161432Y42384D01*
X161439Y42384D01*
X161448Y42391D01*
X161471Y42393D01*
X161671Y42693D01*
X161671Y42695D01*
X161672Y42695D01*
X161972Y43194D01*
X162369Y43790D01*
X162865Y44385D01*
X163357Y44778D01*
X163949Y45074D01*
X164541Y45272D01*
X165230Y45370D01*
X165919Y45272D01*
X166511Y45074D01*
X167105Y44777D01*
X167696Y44383D01*
X168090Y43891D01*
X168485Y43298D01*
X168681Y42712D01*
X168681Y41327D01*
X168663Y41265D01*
X168621Y41117D01*
X168607Y41068D01*
X168565Y40920D01*
X168522Y40773D01*
X168508Y40723D01*
X168483Y40635D01*
X168286Y40044D01*
X167896Y39557D01*
X167303Y39161D01*
X166708Y38765D01*
X166118Y38568D01*
X165526Y38469D01*
X164742Y38469D01*
G37*
%LPD*%
%LPC*%
G36*
X72511Y59949D02*
X72511Y59949D01*
X72025Y60046D01*
X71746Y60233D01*
X71557Y60705D01*
X71652Y61276D01*
X71930Y61555D01*
X72411Y61651D01*
X74906Y61651D01*
X74912Y61655D01*
X74916Y61652D01*
X75416Y61752D01*
X75455Y61796D01*
X75453Y61798D01*
X75455Y61800D01*
X75455Y62300D01*
X75443Y62316D01*
X75447Y62327D01*
X75247Y62627D01*
X75214Y62639D01*
X75206Y62649D01*
X73710Y62649D01*
X73124Y62747D01*
X72844Y62934D01*
X72655Y63312D01*
X72655Y63980D01*
X72930Y64255D01*
X73411Y64351D01*
X75406Y64351D01*
X75453Y64387D01*
X75449Y64392D01*
X75453Y64395D01*
X75452Y64397D01*
X75455Y64400D01*
X75455Y65400D01*
X75419Y65447D01*
X75412Y65442D01*
X75406Y65449D01*
X71836Y65449D01*
X71653Y65815D01*
X71557Y66395D01*
X71745Y66864D01*
X72118Y67051D01*
X76686Y67051D01*
X76961Y66776D01*
X77057Y66295D01*
X77057Y60700D01*
X77093Y60653D01*
X77099Y60657D01*
X77103Y60651D01*
X78603Y60551D01*
X78652Y60584D01*
X78650Y60588D01*
X78654Y60590D01*
X78750Y61070D01*
X79024Y61253D01*
X79610Y61351D01*
X82006Y61351D01*
X82053Y61387D01*
X82051Y61389D01*
X82053Y61391D01*
X82050Y61396D01*
X82055Y61400D01*
X82055Y66494D01*
X82148Y66864D01*
X82615Y67051D01*
X83206Y67051D01*
X83236Y67073D01*
X83248Y67075D01*
X83266Y67104D01*
X83272Y67064D01*
X83278Y67065D01*
X83279Y67059D01*
X83562Y66870D01*
X83657Y66395D01*
X83657Y60320D01*
X83382Y60046D01*
X82802Y59949D01*
X79218Y59949D01*
X78843Y60137D01*
X78650Y60522D01*
X78616Y60539D01*
X78609Y60549D01*
X77109Y60649D01*
X77060Y60616D01*
X77062Y60613D01*
X77058Y60612D01*
X76963Y60230D01*
X76688Y60047D01*
X76102Y59949D01*
X72511Y59949D01*
G37*
%LPD*%
%LPC*%
G36*
X163833Y47869D02*
X163833Y47869D01*
X163137Y47969D01*
X162445Y48068D01*
X161852Y48364D01*
X161257Y48662D01*
X160763Y49057D01*
X160268Y49551D01*
X159873Y50145D01*
X159576Y50739D01*
X159377Y51335D01*
X159179Y52027D01*
X159179Y53317D01*
X159278Y54007D01*
X159574Y54698D01*
X159870Y55192D01*
X160259Y55678D01*
X160828Y55867D01*
X161502Y55578D01*
X161985Y55096D01*
X162078Y54630D01*
X161689Y54047D01*
X161690Y54040D01*
X161684Y54038D01*
X161484Y53538D01*
X161486Y53532D01*
X161482Y53528D01*
X161481Y53528D01*
X161381Y52928D01*
X161384Y52923D01*
X161381Y52920D01*
X161381Y52220D01*
X161388Y52211D01*
X161383Y52204D01*
X161583Y51604D01*
X161591Y51599D01*
X161589Y51593D01*
X161989Y50993D01*
X161996Y50990D01*
X161995Y50985D01*
X162495Y50485D01*
X162507Y50484D01*
X162508Y50476D01*
X163108Y50176D01*
X163119Y50178D01*
X163122Y50171D01*
X163722Y50071D01*
X163727Y50074D01*
X163730Y50071D01*
X164530Y50071D01*
X164539Y50078D01*
X164546Y50073D01*
X165146Y50273D01*
X165151Y50281D01*
X165157Y50279D01*
X165757Y50679D01*
X165761Y50689D01*
X165768Y50689D01*
X166168Y51189D01*
X166169Y51199D01*
X166175Y51201D01*
X166475Y51901D01*
X166473Y51909D01*
X166479Y51912D01*
X166579Y52512D01*
X166576Y52516D01*
X166577Y52517D01*
X166576Y52518D01*
X166579Y52520D01*
X166579Y53220D01*
X166572Y53229D01*
X166577Y53236D01*
X166377Y53836D01*
X166371Y53840D01*
X166373Y53844D01*
X165976Y54539D01*
X165883Y54911D01*
X166266Y55485D01*
X166845Y55871D01*
X167413Y55871D01*
X167893Y55486D01*
X168285Y54898D01*
X168483Y54305D01*
X168682Y53610D01*
X168781Y52917D01*
X168781Y52323D01*
X168682Y51631D01*
X168484Y51038D01*
X168185Y50341D01*
X167889Y49749D01*
X166999Y48858D01*
X166405Y48463D01*
X165812Y48166D01*
X165119Y47968D01*
X164526Y47869D01*
X163833Y47869D01*
G37*
%LPD*%
%LPC*%
G36*
X67008Y60049D02*
X67008Y60049D01*
X67007Y60048D01*
X67006Y60049D01*
X66518Y60049D01*
X66128Y60244D01*
X66125Y60243D01*
X66124Y60246D01*
X65630Y60443D01*
X65236Y60739D01*
X64841Y61035D01*
X64547Y61428D01*
X64249Y61923D01*
X64053Y62316D01*
X63855Y63305D01*
X63855Y63795D01*
X63954Y64290D01*
X64053Y64786D01*
X64249Y65276D01*
X64545Y65670D01*
X64841Y66065D01*
X65234Y66359D01*
X65729Y66657D01*
X66122Y66853D01*
X67111Y67051D01*
X69494Y67051D01*
X69862Y66867D01*
X69957Y66395D01*
X69957Y60805D01*
X69860Y60319D01*
X69677Y60045D01*
X69103Y59949D01*
X67008Y60049D01*
G37*
%LPD*%
G36*
X93818Y11005D02*
X93818Y11005D01*
X93824Y11001D01*
X94524Y11201D01*
X94543Y11226D01*
X94556Y11230D01*
X94756Y11730D01*
X94752Y11743D01*
X94759Y11748D01*
X94759Y14536D01*
X95053Y15123D01*
X97351Y18520D01*
X97351Y18521D01*
X97751Y19121D01*
X97750Y19141D01*
X97759Y19148D01*
X97759Y19748D01*
X97745Y19766D01*
X97748Y19779D01*
X97348Y20279D01*
X97336Y20282D01*
X97334Y20291D01*
X96634Y20691D01*
X96611Y20688D01*
X96602Y20697D01*
X96002Y20597D01*
X95985Y20578D01*
X95972Y20579D01*
X95572Y20079D01*
X95571Y20075D01*
X95569Y20075D01*
X93678Y17189D01*
X93430Y17107D01*
X91551Y19975D01*
X91151Y20575D01*
X91126Y20584D01*
X91120Y20596D01*
X90620Y20696D01*
X90601Y20687D01*
X90591Y20693D01*
X89891Y20393D01*
X89884Y20382D01*
X89875Y20383D01*
X89375Y19883D01*
X89372Y19863D01*
X89362Y19858D01*
X89262Y19358D01*
X89272Y19336D01*
X89267Y19324D01*
X89667Y18624D01*
X89670Y18623D01*
X89669Y18621D01*
X92263Y14730D01*
X92361Y14045D01*
X92361Y11948D01*
X92364Y11943D01*
X92361Y11940D01*
X92461Y11340D01*
X92486Y11317D01*
X92488Y11304D01*
X93088Y11004D01*
X93104Y11007D01*
X93110Y10999D01*
X93810Y10999D01*
X93818Y11005D01*
G37*
%LPC*%
G36*
X23273Y8049D02*
X23273Y8049D01*
X22603Y8145D01*
X22319Y8712D01*
X22319Y15500D01*
X22283Y15547D01*
X22281Y15546D01*
X22280Y15548D01*
X21780Y15648D01*
X21773Y15645D01*
X21770Y15649D01*
X19678Y15649D01*
X19109Y15839D01*
X18919Y16408D01*
X18919Y17076D01*
X19387Y17451D01*
X27067Y17451D01*
X27733Y17356D01*
X27923Y16784D01*
X27963Y16757D01*
X27967Y16751D01*
X27994Y16749D01*
X27970Y16749D01*
X27923Y16713D01*
X27926Y16709D01*
X27921Y16707D01*
X27824Y16027D01*
X27451Y15747D01*
X26767Y15649D01*
X24670Y15649D01*
X24632Y15620D01*
X24624Y15618D01*
X24424Y15118D01*
X24428Y15105D01*
X24421Y15100D01*
X24421Y8424D01*
X23953Y8049D01*
X23273Y8049D01*
G37*
%LPD*%
%LPC*%
G36*
X12790Y8049D02*
X12790Y8049D01*
X12416Y8424D01*
X12319Y9004D01*
X12319Y16497D01*
X12415Y17167D01*
X12982Y17451D01*
X13558Y17451D01*
X14144Y17158D01*
X14538Y16862D01*
X16531Y14969D01*
X16828Y14475D01*
X16869Y14458D01*
X16844Y14442D01*
X16838Y14426D01*
X16828Y14425D01*
X16530Y13929D01*
X16043Y13345D01*
X15575Y13251D01*
X14889Y13545D01*
X14865Y13539D01*
X14854Y13547D01*
X14554Y13447D01*
X14524Y13403D01*
X14521Y13400D01*
X14521Y8614D01*
X14240Y8145D01*
X13666Y8049D01*
X12790Y8049D01*
G37*
%LPD*%
%LPC*%
G36*
X125786Y11113D02*
X125786Y11113D01*
X125202Y11599D01*
X125012Y12170D01*
X125207Y12754D01*
X125206Y12757D01*
X125208Y12758D01*
X125308Y13158D01*
X125284Y13213D01*
X125270Y13207D01*
X125260Y13219D01*
X120469Y13219D01*
X120000Y13407D01*
X119809Y13978D01*
X119809Y14853D01*
X120187Y15325D01*
X120764Y15421D01*
X128257Y15421D01*
X128927Y15325D01*
X129211Y14758D01*
X129211Y14182D01*
X128917Y13595D01*
X128721Y13301D01*
X126828Y11308D01*
X126254Y10925D01*
X125786Y11113D01*
G37*
%LPD*%
%LPC*%
G36*
X159839Y34369D02*
X159839Y34369D01*
X159370Y34557D01*
X159179Y35128D01*
X159179Y36004D01*
X159460Y36378D01*
X160046Y36573D01*
X160061Y36596D01*
X160078Y36609D01*
X160082Y36627D01*
X160109Y36575D01*
X160122Y36582D01*
X160130Y36571D01*
X167527Y36571D01*
X168200Y36475D01*
X168482Y36004D01*
X168580Y35224D01*
X168561Y35158D01*
X168519Y35010D01*
X168505Y34961D01*
X168463Y34813D01*
X168420Y34666D01*
X168406Y34616D01*
X168389Y34557D01*
X167921Y34369D01*
X159839Y34369D01*
G37*
%LPD*%
%LPC*%
G36*
X40973Y8049D02*
X40973Y8049D01*
X40307Y8144D01*
X40118Y8712D01*
X40019Y9308D01*
X39975Y9349D01*
X39972Y9345D01*
X39970Y9348D01*
X39964Y9348D01*
X39963Y9348D01*
X39980Y9352D01*
X40019Y9396D01*
X40017Y9398D01*
X40019Y9400D01*
X40019Y16097D01*
X40118Y16787D01*
X40307Y17259D01*
X40974Y17450D01*
X41764Y17351D01*
X41807Y17376D01*
X41814Y17377D01*
X41829Y17406D01*
X41838Y17363D01*
X41840Y17364D01*
X41840Y17361D01*
X42221Y17075D01*
X42221Y8424D01*
X41753Y8049D01*
X40973Y8049D01*
G37*
%LPD*%
G36*
X18517Y61087D02*
X18517Y61087D01*
X18515Y61090D01*
X18519Y61092D01*
X18619Y61692D01*
X18616Y61697D01*
X18619Y61700D01*
X18619Y65700D01*
X18600Y65726D01*
X18600Y65739D01*
X18200Y66039D01*
X18178Y66039D01*
X18170Y66049D01*
X16770Y66049D01*
X16757Y66040D01*
X16748Y66044D01*
X16148Y65744D01*
X16145Y65737D01*
X16139Y65738D01*
X15639Y65338D01*
X15637Y65331D01*
X15632Y65331D01*
X15232Y64831D01*
X15231Y64823D01*
X15226Y64822D01*
X14926Y64222D01*
X14927Y64218D01*
X14924Y64216D01*
X14928Y64211D01*
X14921Y64207D01*
X14821Y63507D01*
X14826Y63498D01*
X14821Y63493D01*
X14921Y62793D01*
X14929Y62785D01*
X14926Y62778D01*
X15226Y62178D01*
X15236Y62173D01*
X15235Y62165D01*
X16235Y61165D01*
X16247Y61164D01*
X16248Y61156D01*
X16448Y61056D01*
X16464Y61059D01*
X16470Y61051D01*
X18470Y61051D01*
X18517Y61087D01*
G37*
G36*
X126434Y61454D02*
X126434Y61454D01*
X126436Y61451D01*
X127236Y61551D01*
X127240Y61555D01*
X127244Y61553D01*
X127944Y61753D01*
X127954Y61767D01*
X127965Y61765D01*
X128365Y62165D01*
X128366Y62176D01*
X128367Y62176D01*
X128367Y62177D01*
X128374Y62178D01*
X128574Y62578D01*
X128571Y62594D01*
X128579Y62600D01*
X128579Y63100D01*
X128570Y63113D01*
X128574Y63122D01*
X128374Y63522D01*
X128361Y63529D01*
X128361Y63538D01*
X127861Y63938D01*
X127847Y63939D01*
X127844Y63947D01*
X127144Y64147D01*
X127134Y64144D01*
X127130Y64149D01*
X125230Y64149D01*
X125226Y64146D01*
X125224Y64149D01*
X124424Y64049D01*
X124415Y64040D01*
X124408Y64044D01*
X123808Y63744D01*
X123805Y63738D01*
X123800Y63739D01*
X123400Y63439D01*
X123394Y63415D01*
X123382Y63410D01*
X123282Y62910D01*
X123285Y62903D01*
X123281Y62900D01*
X123281Y62700D01*
X123285Y62694D01*
X123282Y62690D01*
X123382Y62190D01*
X123400Y62174D01*
X123400Y62161D01*
X123800Y61861D01*
X123809Y61861D01*
X123811Y61855D01*
X124511Y61555D01*
X124520Y61557D01*
X124524Y61551D01*
X125324Y61451D01*
X125328Y61453D01*
X125330Y61451D01*
X126430Y61451D01*
X126434Y61454D01*
G37*
G36*
X68253Y61687D02*
X68253Y61687D01*
X68253Y61688D01*
X68254Y61688D01*
X68354Y62088D01*
X68350Y62096D01*
X68355Y62100D01*
X68355Y65200D01*
X68334Y65228D01*
X68333Y65241D01*
X68033Y65441D01*
X68018Y65440D01*
X68015Y65443D01*
X68011Y65443D01*
X68006Y65449D01*
X67506Y65449D01*
X67500Y65445D01*
X67496Y65448D01*
X66496Y65248D01*
X66486Y65237D01*
X66476Y65239D01*
X66076Y64939D01*
X66074Y64930D01*
X66067Y64930D01*
X65767Y64530D01*
X65767Y64523D01*
X65764Y64521D01*
X65765Y64520D01*
X65760Y64518D01*
X65560Y64018D01*
X65562Y64012D01*
X65558Y64010D01*
X65458Y63510D01*
X65464Y63497D01*
X65458Y63490D01*
X65558Y62990D01*
X65563Y62986D01*
X65560Y62982D01*
X65760Y62482D01*
X65772Y62474D01*
X65771Y62465D01*
X66471Y61765D01*
X66483Y61764D01*
X66484Y61756D01*
X66684Y61656D01*
X66700Y61659D01*
X66706Y61651D01*
X68206Y61651D01*
X68253Y61687D01*
G37*
D10*
X52070Y31718D02*
X71120Y31718D01*
X66040Y36798D02*
X65890Y36796D01*
X65741Y36790D01*
X65592Y36780D01*
X65443Y36767D01*
X65294Y36749D01*
X65146Y36728D01*
X64999Y36702D01*
X64852Y36673D01*
X64706Y36640D01*
X64561Y36603D01*
X64417Y36563D01*
X64274Y36518D01*
X64132Y36470D01*
X63992Y36418D01*
X63853Y36363D01*
X63716Y36304D01*
X63580Y36241D01*
X63445Y36175D01*
X63313Y36105D01*
X63183Y36032D01*
X63054Y35956D01*
X62927Y35876D01*
X62803Y35793D01*
X62681Y35707D01*
X62561Y35617D01*
X62443Y35524D01*
X62328Y35429D01*
X62216Y35330D01*
X62106Y35229D01*
X61999Y35124D01*
X61894Y35017D01*
X61793Y34907D01*
X61694Y34795D01*
X61599Y34680D01*
X61506Y34562D01*
X61416Y34442D01*
X61330Y34320D01*
X61247Y34196D01*
X61167Y34069D01*
X61091Y33940D01*
X61018Y33810D01*
X60948Y33678D01*
X60882Y33543D01*
X60819Y33407D01*
X60760Y33270D01*
X60705Y33131D01*
X60653Y32991D01*
X60605Y32849D01*
X60560Y32706D01*
X60520Y32562D01*
X60483Y32417D01*
X60450Y32271D01*
X60421Y32124D01*
X60395Y31977D01*
X60374Y31829D01*
X60356Y31680D01*
X60343Y31531D01*
X60333Y31382D01*
X60327Y31233D01*
X60325Y31083D01*
X60327Y30933D01*
X60333Y30784D01*
X60343Y30635D01*
X60356Y30486D01*
X60374Y30337D01*
X60395Y30189D01*
X60421Y30042D01*
X60450Y29895D01*
X60483Y29749D01*
X60520Y29604D01*
X60560Y29460D01*
X60605Y29317D01*
X60653Y29175D01*
X60705Y29035D01*
X60760Y28896D01*
X60819Y28759D01*
X60882Y28623D01*
X60948Y28488D01*
X61018Y28356D01*
X61091Y28225D01*
X61167Y28097D01*
X61247Y27970D01*
X61330Y27846D01*
X61416Y27724D01*
X61506Y27604D01*
X61599Y27486D01*
X61694Y27371D01*
X61793Y27259D01*
X61894Y27149D01*
X61999Y27042D01*
X62106Y26937D01*
X62216Y26836D01*
X62328Y26737D01*
X62443Y26642D01*
X62561Y26549D01*
X62681Y26459D01*
X62803Y26373D01*
X62927Y26290D01*
X63054Y26210D01*
X63183Y26134D01*
X63313Y26061D01*
X63445Y25991D01*
X63580Y25925D01*
X63716Y25862D01*
X63853Y25803D01*
X63992Y25748D01*
X64132Y25696D01*
X64274Y25648D01*
X64417Y25603D01*
X64561Y25563D01*
X64706Y25526D01*
X64852Y25493D01*
X64999Y25464D01*
X65146Y25438D01*
X65294Y25417D01*
X65443Y25399D01*
X65592Y25386D01*
X65741Y25376D01*
X65890Y25370D01*
X66040Y25368D01*
X63500Y24098D01*
X66040Y25368D02*
X64770Y27908D01*
X54610Y34258D02*
X52070Y31718D01*
X54610Y29178D01*
X80169Y23051D02*
X80169Y5271D01*
X73819Y19241D02*
X73821Y19083D01*
X73827Y18924D01*
X73837Y18766D01*
X73851Y18609D01*
X73868Y18451D01*
X73890Y18295D01*
X73915Y18138D01*
X73945Y17983D01*
X73978Y17828D01*
X74015Y17674D01*
X74056Y17521D01*
X74101Y17369D01*
X74150Y17219D01*
X74202Y17069D01*
X74258Y16921D01*
X74318Y16774D01*
X74381Y16629D01*
X74448Y16486D01*
X74518Y16344D01*
X74592Y16204D01*
X74670Y16066D01*
X74751Y15930D01*
X74835Y15796D01*
X74922Y15664D01*
X75013Y15534D01*
X75107Y15407D01*
X75204Y15282D01*
X75305Y15159D01*
X75408Y15039D01*
X75514Y14922D01*
X75623Y14807D01*
X75735Y14695D01*
X75850Y14586D01*
X75967Y14480D01*
X76087Y14377D01*
X76210Y14276D01*
X76335Y14179D01*
X76462Y14085D01*
X76592Y13994D01*
X76724Y13907D01*
X76858Y13823D01*
X76994Y13742D01*
X77132Y13664D01*
X77272Y13590D01*
X77414Y13520D01*
X77557Y13453D01*
X77702Y13390D01*
X77849Y13330D01*
X77997Y13274D01*
X78147Y13222D01*
X78297Y13173D01*
X78449Y13128D01*
X78602Y13087D01*
X78756Y13050D01*
X78911Y13017D01*
X79066Y12987D01*
X79223Y12962D01*
X79379Y12940D01*
X79537Y12923D01*
X79694Y12909D01*
X79852Y12899D01*
X80011Y12893D01*
X80169Y12891D01*
X80327Y12893D01*
X80486Y12899D01*
X80644Y12909D01*
X80801Y12923D01*
X80959Y12940D01*
X81115Y12962D01*
X81272Y12987D01*
X81427Y13017D01*
X81582Y13050D01*
X81736Y13087D01*
X81889Y13128D01*
X82041Y13173D01*
X82191Y13222D01*
X82341Y13274D01*
X82489Y13330D01*
X82636Y13390D01*
X82781Y13453D01*
X82924Y13520D01*
X83066Y13590D01*
X83206Y13664D01*
X83344Y13742D01*
X83480Y13823D01*
X83614Y13907D01*
X83746Y13994D01*
X83876Y14085D01*
X84003Y14179D01*
X84128Y14276D01*
X84251Y14377D01*
X84371Y14480D01*
X84488Y14586D01*
X84603Y14695D01*
X84715Y14807D01*
X84824Y14922D01*
X84930Y15039D01*
X85033Y15159D01*
X85134Y15282D01*
X85231Y15407D01*
X85325Y15534D01*
X85416Y15664D01*
X85503Y15796D01*
X85587Y15930D01*
X85668Y16066D01*
X85746Y16204D01*
X85820Y16344D01*
X85890Y16486D01*
X85957Y16629D01*
X86020Y16774D01*
X86080Y16921D01*
X86136Y17069D01*
X86188Y17219D01*
X86237Y17369D01*
X86282Y17521D01*
X86323Y17674D01*
X86360Y17828D01*
X86393Y17983D01*
X86423Y18138D01*
X86448Y18295D01*
X86470Y18451D01*
X86487Y18609D01*
X86501Y18766D01*
X86511Y18924D01*
X86517Y19083D01*
X86519Y19241D01*
X87789Y16701D01*
X86519Y19241D02*
X84233Y17971D01*
X77629Y7811D02*
X80169Y5271D01*
X82709Y7811D01*
X82963Y8065D02*
X77375Y8065D01*
X84233Y17971D02*
X87789Y16701D01*
X63500Y24098D02*
X64770Y27908D01*
X54610Y29178D02*
X54610Y34258D01*
X92297Y35370D02*
X92774Y38703D01*
X92297Y35370D02*
X89218Y36640D01*
X92774Y38703D01*
X91504Y36671D02*
X91386Y36907D01*
X91263Y37139D01*
X91134Y37368D01*
X91000Y37595D01*
X90860Y37818D01*
X90715Y38037D01*
X90564Y38253D01*
X90408Y38465D01*
X90248Y38674D01*
X90082Y38878D01*
X89911Y39078D01*
X89736Y39274D01*
X89555Y39466D01*
X89370Y39653D01*
X89181Y39836D01*
X88987Y40014D01*
X88790Y40188D01*
X88587Y40356D01*
X88381Y40520D01*
X88171Y40679D01*
X87958Y40832D01*
X87740Y40980D01*
X87519Y41123D01*
X87295Y41261D01*
X87067Y41393D01*
X86836Y41519D01*
X86602Y41640D01*
X86366Y41755D01*
X86126Y41865D01*
X85885Y41968D01*
X85640Y42066D01*
X85393Y42158D01*
X85145Y42243D01*
X84894Y42323D01*
X84641Y42397D01*
X84387Y42464D01*
X84131Y42525D01*
X83873Y42580D01*
X83615Y42629D01*
X83355Y42671D01*
X83094Y42707D01*
X82833Y42737D01*
X82571Y42761D01*
X82308Y42778D01*
X82045Y42789D01*
X81782Y42793D01*
X81519Y42791D01*
X81256Y42782D01*
X80993Y42768D01*
X80731Y42747D01*
X80469Y42719D01*
X80208Y42685D01*
X79948Y42645D01*
X79689Y42599D01*
X79431Y42546D01*
X79175Y42487D01*
X78920Y42422D01*
X78666Y42351D01*
X78415Y42273D01*
X78165Y42190D01*
X77918Y42100D01*
X77672Y42005D01*
X77430Y41903D01*
X77189Y41796D01*
X76952Y41683D01*
X76717Y41564D01*
X76485Y41440D01*
X76256Y41310D01*
X76030Y41174D01*
X75808Y41033D01*
X75589Y40887D01*
X75374Y40735D01*
X75565Y32322D02*
X75567Y32468D01*
X75573Y32613D01*
X75583Y32759D01*
X75597Y32904D01*
X75615Y33048D01*
X75636Y33192D01*
X75662Y33336D01*
X75692Y33478D01*
X75725Y33620D01*
X75763Y33761D01*
X75804Y33901D01*
X75849Y34039D01*
X75898Y34177D01*
X75950Y34313D01*
X76007Y34447D01*
X76066Y34580D01*
X76130Y34711D01*
X76197Y34840D01*
X76268Y34968D01*
X76342Y35093D01*
X76419Y35217D01*
X76500Y35338D01*
X76584Y35457D01*
X76671Y35574D01*
X76761Y35688D01*
X76855Y35800D01*
X76951Y35909D01*
X77051Y36016D01*
X77153Y36119D01*
X77258Y36220D01*
X77366Y36318D01*
X77477Y36413D01*
X77590Y36505D01*
X77705Y36594D01*
X77823Y36680D01*
X77943Y36762D01*
X78066Y36841D01*
X78190Y36917D01*
X78317Y36989D01*
X78445Y37058D01*
X78575Y37123D01*
X78707Y37185D01*
X78841Y37243D01*
X78976Y37297D01*
X79113Y37348D01*
X79251Y37395D01*
X79390Y37438D01*
X79530Y37477D01*
X79672Y37513D01*
X79814Y37544D01*
X79957Y37572D01*
X80101Y37596D01*
X80245Y37616D01*
X80390Y37632D01*
X80535Y37644D01*
X80680Y37652D01*
X80826Y37656D01*
X80972Y37656D01*
X81118Y37652D01*
X81263Y37644D01*
X81408Y37632D01*
X81553Y37616D01*
X81697Y37596D01*
X81841Y37572D01*
X81984Y37544D01*
X82126Y37513D01*
X82268Y37477D01*
X82408Y37438D01*
X82547Y37395D01*
X82685Y37348D01*
X82822Y37297D01*
X82957Y37243D01*
X83091Y37185D01*
X83223Y37123D01*
X83353Y37058D01*
X83481Y36989D01*
X83608Y36917D01*
X83732Y36841D01*
X83855Y36762D01*
X83975Y36680D01*
X84093Y36594D01*
X84208Y36505D01*
X84321Y36413D01*
X84432Y36318D01*
X84540Y36220D01*
X84645Y36119D01*
X84747Y36016D01*
X84847Y35909D01*
X84943Y35800D01*
X85037Y35688D01*
X85127Y35574D01*
X85214Y35457D01*
X85298Y35338D01*
X85379Y35217D01*
X85456Y35093D01*
X85530Y34968D01*
X85601Y34840D01*
X85668Y34711D01*
X85732Y34580D01*
X85791Y34447D01*
X85848Y34313D01*
X85900Y34177D01*
X85949Y34039D01*
X85994Y33901D01*
X86035Y33761D01*
X86073Y33620D01*
X86106Y33478D01*
X86136Y33336D01*
X86162Y33192D01*
X86183Y33048D01*
X86201Y32904D01*
X86215Y32759D01*
X86225Y32613D01*
X86231Y32468D01*
X86233Y32322D01*
X86231Y32176D01*
X86225Y32031D01*
X86215Y31885D01*
X86201Y31740D01*
X86183Y31596D01*
X86162Y31452D01*
X86136Y31308D01*
X86106Y31166D01*
X86073Y31024D01*
X86035Y30883D01*
X85994Y30743D01*
X85949Y30605D01*
X85900Y30467D01*
X85848Y30331D01*
X85791Y30197D01*
X85732Y30064D01*
X85668Y29933D01*
X85601Y29804D01*
X85530Y29676D01*
X85456Y29551D01*
X85379Y29427D01*
X85298Y29306D01*
X85214Y29187D01*
X85127Y29070D01*
X85037Y28956D01*
X84943Y28844D01*
X84847Y28735D01*
X84747Y28628D01*
X84645Y28525D01*
X84540Y28424D01*
X84432Y28326D01*
X84321Y28231D01*
X84208Y28139D01*
X84093Y28050D01*
X83975Y27964D01*
X83855Y27882D01*
X83732Y27803D01*
X83608Y27727D01*
X83481Y27655D01*
X83353Y27586D01*
X83223Y27521D01*
X83091Y27459D01*
X82957Y27401D01*
X82822Y27347D01*
X82685Y27296D01*
X82547Y27249D01*
X82408Y27206D01*
X82268Y27167D01*
X82126Y27131D01*
X81984Y27100D01*
X81841Y27072D01*
X81697Y27048D01*
X81553Y27028D01*
X81408Y27012D01*
X81263Y27000D01*
X81118Y26992D01*
X80972Y26988D01*
X80826Y26988D01*
X80680Y26992D01*
X80535Y27000D01*
X80390Y27012D01*
X80245Y27028D01*
X80101Y27048D01*
X79957Y27072D01*
X79814Y27100D01*
X79672Y27131D01*
X79530Y27167D01*
X79390Y27206D01*
X79251Y27249D01*
X79113Y27296D01*
X78976Y27347D01*
X78841Y27401D01*
X78707Y27459D01*
X78575Y27521D01*
X78445Y27586D01*
X78317Y27655D01*
X78190Y27727D01*
X78066Y27803D01*
X77943Y27882D01*
X77823Y27964D01*
X77705Y28050D01*
X77590Y28139D01*
X77477Y28231D01*
X77366Y28326D01*
X77258Y28424D01*
X77153Y28525D01*
X77051Y28628D01*
X76951Y28735D01*
X76855Y28844D01*
X76761Y28956D01*
X76671Y29070D01*
X76584Y29187D01*
X76500Y29306D01*
X76419Y29427D01*
X76342Y29551D01*
X76268Y29676D01*
X76197Y29804D01*
X76130Y29933D01*
X76066Y30064D01*
X76007Y30197D01*
X75950Y30331D01*
X75898Y30467D01*
X75849Y30605D01*
X75804Y30743D01*
X75763Y30883D01*
X75725Y31024D01*
X75692Y31166D01*
X75662Y31308D01*
X75636Y31452D01*
X75615Y31596D01*
X75597Y31740D01*
X75583Y31885D01*
X75573Y32031D01*
X75567Y32176D01*
X75565Y32322D01*
X76200Y36830D02*
X85090Y27940D01*
X77470Y27940D02*
X86360Y36830D01*
D11*
X135319Y25654D02*
X135319Y51054D01*
X114999Y25654D02*
X115001Y25521D01*
X115007Y25388D01*
X115016Y25256D01*
X115030Y25123D01*
X115047Y24991D01*
X115068Y24860D01*
X115093Y24729D01*
X115122Y24600D01*
X115155Y24471D01*
X115191Y24343D01*
X115231Y24216D01*
X115275Y24090D01*
X115322Y23966D01*
X115373Y23843D01*
X115427Y23722D01*
X115485Y23602D01*
X115547Y23484D01*
X115612Y23368D01*
X115680Y23254D01*
X115751Y23142D01*
X115826Y23032D01*
X115904Y22924D01*
X115985Y22818D01*
X116069Y22715D01*
X116156Y22615D01*
X116245Y22517D01*
X116338Y22421D01*
X116434Y22328D01*
X116532Y22239D01*
X116632Y22152D01*
X116735Y22068D01*
X116841Y21987D01*
X116949Y21909D01*
X117059Y21834D01*
X117171Y21763D01*
X117285Y21695D01*
X117401Y21630D01*
X117519Y21568D01*
X117639Y21510D01*
X117760Y21456D01*
X117883Y21405D01*
X118007Y21358D01*
X118133Y21314D01*
X118260Y21274D01*
X118388Y21238D01*
X118517Y21205D01*
X118646Y21176D01*
X118777Y21151D01*
X118908Y21130D01*
X119040Y21113D01*
X119173Y21099D01*
X119305Y21090D01*
X119438Y21084D01*
X119571Y21082D01*
X114999Y51054D02*
X115001Y51187D01*
X115007Y51320D01*
X115016Y51452D01*
X115030Y51585D01*
X115047Y51717D01*
X115068Y51848D01*
X115093Y51979D01*
X115122Y52108D01*
X115155Y52237D01*
X115191Y52365D01*
X115231Y52492D01*
X115275Y52618D01*
X115322Y52742D01*
X115373Y52865D01*
X115427Y52986D01*
X115485Y53106D01*
X115547Y53224D01*
X115612Y53340D01*
X115680Y53454D01*
X115751Y53566D01*
X115826Y53676D01*
X115904Y53784D01*
X115985Y53890D01*
X116069Y53993D01*
X116156Y54093D01*
X116245Y54191D01*
X116338Y54287D01*
X116434Y54380D01*
X116532Y54469D01*
X116632Y54556D01*
X116735Y54640D01*
X116841Y54721D01*
X116949Y54799D01*
X117059Y54874D01*
X117171Y54945D01*
X117285Y55013D01*
X117401Y55078D01*
X117519Y55140D01*
X117639Y55198D01*
X117760Y55252D01*
X117883Y55303D01*
X118007Y55350D01*
X118133Y55394D01*
X118260Y55434D01*
X118388Y55470D01*
X118517Y55503D01*
X118646Y55532D01*
X118777Y55557D01*
X118908Y55578D01*
X119040Y55595D01*
X119173Y55609D01*
X119305Y55618D01*
X119438Y55624D01*
X119571Y55626D01*
X130747Y55626D02*
X130880Y55624D01*
X131013Y55618D01*
X131145Y55609D01*
X131278Y55595D01*
X131410Y55578D01*
X131541Y55557D01*
X131672Y55532D01*
X131801Y55503D01*
X131930Y55470D01*
X132058Y55434D01*
X132185Y55394D01*
X132311Y55350D01*
X132435Y55303D01*
X132558Y55252D01*
X132679Y55198D01*
X132799Y55140D01*
X132917Y55078D01*
X133033Y55013D01*
X133147Y54945D01*
X133259Y54874D01*
X133369Y54799D01*
X133477Y54721D01*
X133583Y54640D01*
X133686Y54556D01*
X133786Y54469D01*
X133884Y54380D01*
X133980Y54287D01*
X134073Y54191D01*
X134162Y54093D01*
X134249Y53993D01*
X134333Y53890D01*
X134414Y53784D01*
X134492Y53676D01*
X134567Y53566D01*
X134638Y53454D01*
X134706Y53340D01*
X134771Y53224D01*
X134833Y53106D01*
X134891Y52986D01*
X134945Y52865D01*
X134996Y52742D01*
X135043Y52618D01*
X135087Y52492D01*
X135127Y52365D01*
X135163Y52237D01*
X135196Y52108D01*
X135225Y51979D01*
X135250Y51848D01*
X135271Y51717D01*
X135288Y51585D01*
X135302Y51452D01*
X135311Y51320D01*
X135317Y51187D01*
X135319Y51054D01*
X135319Y25654D02*
X135317Y25521D01*
X135311Y25388D01*
X135302Y25256D01*
X135288Y25123D01*
X135271Y24991D01*
X135250Y24860D01*
X135225Y24729D01*
X135196Y24600D01*
X135163Y24471D01*
X135127Y24343D01*
X135087Y24216D01*
X135043Y24090D01*
X134996Y23966D01*
X134945Y23843D01*
X134891Y23722D01*
X134833Y23602D01*
X134771Y23484D01*
X134706Y23368D01*
X134638Y23254D01*
X134567Y23142D01*
X134492Y23032D01*
X134414Y22924D01*
X134333Y22818D01*
X134249Y22715D01*
X134162Y22615D01*
X134073Y22517D01*
X133980Y22421D01*
X133884Y22328D01*
X133786Y22239D01*
X133686Y22152D01*
X133583Y22068D01*
X133477Y21987D01*
X133369Y21909D01*
X133259Y21834D01*
X133147Y21763D01*
X133033Y21695D01*
X132917Y21630D01*
X132799Y21568D01*
X132679Y21510D01*
X132558Y21456D01*
X132435Y21405D01*
X132311Y21358D01*
X132185Y21314D01*
X132058Y21274D01*
X131930Y21238D01*
X131801Y21205D01*
X131672Y21176D01*
X131541Y21151D01*
X131410Y21130D01*
X131278Y21113D01*
X131145Y21099D01*
X131013Y21090D01*
X130880Y21084D01*
X130747Y21082D01*
X119571Y21082D01*
X119571Y55626D02*
X130747Y55626D01*
X114999Y51054D02*
X114999Y25654D01*
D12*
X157036Y25400D02*
X157036Y50800D01*
X136716Y25400D02*
X136718Y25267D01*
X136724Y25134D01*
X136733Y25002D01*
X136747Y24869D01*
X136764Y24737D01*
X136785Y24606D01*
X136810Y24475D01*
X136839Y24346D01*
X136872Y24217D01*
X136908Y24089D01*
X136948Y23962D01*
X136992Y23836D01*
X137039Y23712D01*
X137090Y23589D01*
X137144Y23468D01*
X137202Y23348D01*
X137264Y23230D01*
X137329Y23114D01*
X137397Y23000D01*
X137468Y22888D01*
X137543Y22778D01*
X137621Y22670D01*
X137702Y22564D01*
X137786Y22461D01*
X137873Y22361D01*
X137962Y22263D01*
X138055Y22167D01*
X138151Y22074D01*
X138249Y21985D01*
X138349Y21898D01*
X138452Y21814D01*
X138558Y21733D01*
X138666Y21655D01*
X138776Y21580D01*
X138888Y21509D01*
X139002Y21441D01*
X139118Y21376D01*
X139236Y21314D01*
X139356Y21256D01*
X139477Y21202D01*
X139600Y21151D01*
X139724Y21104D01*
X139850Y21060D01*
X139977Y21020D01*
X140105Y20984D01*
X140234Y20951D01*
X140363Y20922D01*
X140494Y20897D01*
X140625Y20876D01*
X140757Y20859D01*
X140890Y20845D01*
X141022Y20836D01*
X141155Y20830D01*
X141288Y20828D01*
X136716Y50800D02*
X136718Y50933D01*
X136724Y51066D01*
X136733Y51198D01*
X136747Y51331D01*
X136764Y51463D01*
X136785Y51594D01*
X136810Y51725D01*
X136839Y51854D01*
X136872Y51983D01*
X136908Y52111D01*
X136948Y52238D01*
X136992Y52364D01*
X137039Y52488D01*
X137090Y52611D01*
X137144Y52732D01*
X137202Y52852D01*
X137264Y52970D01*
X137329Y53086D01*
X137397Y53200D01*
X137468Y53312D01*
X137543Y53422D01*
X137621Y53530D01*
X137702Y53636D01*
X137786Y53739D01*
X137873Y53839D01*
X137962Y53937D01*
X138055Y54033D01*
X138151Y54126D01*
X138249Y54215D01*
X138349Y54302D01*
X138452Y54386D01*
X138558Y54467D01*
X138666Y54545D01*
X138776Y54620D01*
X138888Y54691D01*
X139002Y54759D01*
X139118Y54824D01*
X139236Y54886D01*
X139356Y54944D01*
X139477Y54998D01*
X139600Y55049D01*
X139724Y55096D01*
X139850Y55140D01*
X139977Y55180D01*
X140105Y55216D01*
X140234Y55249D01*
X140363Y55278D01*
X140494Y55303D01*
X140625Y55324D01*
X140757Y55341D01*
X140890Y55355D01*
X141022Y55364D01*
X141155Y55370D01*
X141288Y55372D01*
X152464Y55372D02*
X152597Y55370D01*
X152730Y55364D01*
X152862Y55355D01*
X152995Y55341D01*
X153127Y55324D01*
X153258Y55303D01*
X153389Y55278D01*
X153518Y55249D01*
X153647Y55216D01*
X153775Y55180D01*
X153902Y55140D01*
X154028Y55096D01*
X154152Y55049D01*
X154275Y54998D01*
X154396Y54944D01*
X154516Y54886D01*
X154634Y54824D01*
X154750Y54759D01*
X154864Y54691D01*
X154976Y54620D01*
X155086Y54545D01*
X155194Y54467D01*
X155300Y54386D01*
X155403Y54302D01*
X155503Y54215D01*
X155601Y54126D01*
X155697Y54033D01*
X155790Y53937D01*
X155879Y53839D01*
X155966Y53739D01*
X156050Y53636D01*
X156131Y53530D01*
X156209Y53422D01*
X156284Y53312D01*
X156355Y53200D01*
X156423Y53086D01*
X156488Y52970D01*
X156550Y52852D01*
X156608Y52732D01*
X156662Y52611D01*
X156713Y52488D01*
X156760Y52364D01*
X156804Y52238D01*
X156844Y52111D01*
X156880Y51983D01*
X156913Y51854D01*
X156942Y51725D01*
X156967Y51594D01*
X156988Y51463D01*
X157005Y51331D01*
X157019Y51198D01*
X157028Y51066D01*
X157034Y50933D01*
X157036Y50800D01*
X157036Y25400D02*
X157034Y25267D01*
X157028Y25134D01*
X157019Y25002D01*
X157005Y24869D01*
X156988Y24737D01*
X156967Y24606D01*
X156942Y24475D01*
X156913Y24346D01*
X156880Y24217D01*
X156844Y24089D01*
X156804Y23962D01*
X156760Y23836D01*
X156713Y23712D01*
X156662Y23589D01*
X156608Y23468D01*
X156550Y23348D01*
X156488Y23230D01*
X156423Y23114D01*
X156355Y23000D01*
X156284Y22888D01*
X156209Y22778D01*
X156131Y22670D01*
X156050Y22564D01*
X155966Y22461D01*
X155879Y22361D01*
X155790Y22263D01*
X155697Y22167D01*
X155601Y22074D01*
X155503Y21985D01*
X155403Y21898D01*
X155300Y21814D01*
X155194Y21733D01*
X155086Y21655D01*
X154976Y21580D01*
X154864Y21509D01*
X154750Y21441D01*
X154634Y21376D01*
X154516Y21314D01*
X154396Y21256D01*
X154275Y21202D01*
X154152Y21151D01*
X154028Y21104D01*
X153902Y21060D01*
X153775Y21020D01*
X153647Y20984D01*
X153518Y20951D01*
X153389Y20922D01*
X153258Y20897D01*
X153127Y20876D01*
X152995Y20859D01*
X152862Y20845D01*
X152730Y20836D01*
X152597Y20830D01*
X152464Y20828D01*
X141288Y20828D01*
X141288Y55372D02*
X152464Y55372D01*
X136716Y50800D02*
X136716Y25400D01*
X86868Y54864D02*
X86868Y70104D01*
X102616Y74676D02*
X102749Y74674D01*
X102882Y74668D01*
X103014Y74659D01*
X103147Y74645D01*
X103279Y74628D01*
X103410Y74607D01*
X103541Y74582D01*
X103670Y74553D01*
X103799Y74520D01*
X103927Y74484D01*
X104054Y74444D01*
X104180Y74400D01*
X104304Y74353D01*
X104427Y74302D01*
X104548Y74248D01*
X104668Y74190D01*
X104786Y74128D01*
X104902Y74063D01*
X105016Y73995D01*
X105128Y73924D01*
X105238Y73849D01*
X105346Y73771D01*
X105452Y73690D01*
X105555Y73606D01*
X105655Y73519D01*
X105753Y73430D01*
X105849Y73337D01*
X105942Y73241D01*
X106031Y73143D01*
X106118Y73043D01*
X106202Y72940D01*
X106283Y72834D01*
X106361Y72726D01*
X106436Y72616D01*
X106507Y72504D01*
X106575Y72390D01*
X106640Y72274D01*
X106702Y72156D01*
X106760Y72036D01*
X106814Y71915D01*
X106865Y71792D01*
X106912Y71668D01*
X106956Y71542D01*
X106996Y71415D01*
X107032Y71287D01*
X107065Y71158D01*
X107094Y71029D01*
X107119Y70898D01*
X107140Y70767D01*
X107157Y70635D01*
X107171Y70502D01*
X107180Y70370D01*
X107186Y70237D01*
X107188Y70104D01*
X107188Y54864D02*
X107186Y54731D01*
X107180Y54598D01*
X107171Y54466D01*
X107157Y54333D01*
X107140Y54201D01*
X107119Y54070D01*
X107094Y53939D01*
X107065Y53810D01*
X107032Y53681D01*
X106996Y53553D01*
X106956Y53426D01*
X106912Y53300D01*
X106865Y53176D01*
X106814Y53053D01*
X106760Y52932D01*
X106702Y52812D01*
X106640Y52694D01*
X106575Y52578D01*
X106507Y52464D01*
X106436Y52352D01*
X106361Y52242D01*
X106283Y52134D01*
X106202Y52028D01*
X106118Y51925D01*
X106031Y51825D01*
X105942Y51727D01*
X105849Y51631D01*
X105753Y51538D01*
X105655Y51449D01*
X105555Y51362D01*
X105452Y51278D01*
X105346Y51197D01*
X105238Y51119D01*
X105128Y51044D01*
X105016Y50973D01*
X104902Y50905D01*
X104786Y50840D01*
X104668Y50778D01*
X104548Y50720D01*
X104427Y50666D01*
X104304Y50615D01*
X104180Y50568D01*
X104054Y50524D01*
X103927Y50484D01*
X103799Y50448D01*
X103670Y50415D01*
X103541Y50386D01*
X103410Y50361D01*
X103279Y50340D01*
X103147Y50323D01*
X103014Y50309D01*
X102882Y50300D01*
X102749Y50294D01*
X102616Y50292D01*
X91440Y50292D02*
X91307Y50294D01*
X91174Y50300D01*
X91042Y50309D01*
X90909Y50323D01*
X90777Y50340D01*
X90646Y50361D01*
X90515Y50386D01*
X90386Y50415D01*
X90257Y50448D01*
X90129Y50484D01*
X90002Y50524D01*
X89876Y50568D01*
X89752Y50615D01*
X89629Y50666D01*
X89508Y50720D01*
X89388Y50778D01*
X89270Y50840D01*
X89154Y50905D01*
X89040Y50973D01*
X88928Y51044D01*
X88818Y51119D01*
X88710Y51197D01*
X88604Y51278D01*
X88501Y51362D01*
X88401Y51449D01*
X88303Y51538D01*
X88207Y51631D01*
X88114Y51727D01*
X88025Y51825D01*
X87938Y51925D01*
X87854Y52028D01*
X87773Y52134D01*
X87695Y52242D01*
X87620Y52352D01*
X87549Y52464D01*
X87481Y52578D01*
X87416Y52694D01*
X87354Y52812D01*
X87296Y52932D01*
X87242Y53053D01*
X87191Y53176D01*
X87144Y53300D01*
X87100Y53426D01*
X87060Y53553D01*
X87024Y53681D01*
X86991Y53810D01*
X86962Y53939D01*
X86937Y54070D01*
X86916Y54201D01*
X86899Y54333D01*
X86885Y54466D01*
X86876Y54598D01*
X86870Y54731D01*
X86868Y54864D01*
X86868Y70104D02*
X86870Y70237D01*
X86876Y70370D01*
X86885Y70502D01*
X86899Y70635D01*
X86916Y70767D01*
X86937Y70898D01*
X86962Y71029D01*
X86991Y71158D01*
X87024Y71287D01*
X87060Y71415D01*
X87100Y71542D01*
X87144Y71668D01*
X87191Y71792D01*
X87242Y71915D01*
X87296Y72036D01*
X87354Y72156D01*
X87416Y72274D01*
X87481Y72390D01*
X87549Y72504D01*
X87620Y72616D01*
X87695Y72726D01*
X87773Y72834D01*
X87854Y72940D01*
X87938Y73043D01*
X88025Y73143D01*
X88114Y73241D01*
X88207Y73337D01*
X88303Y73430D01*
X88401Y73519D01*
X88501Y73606D01*
X88604Y73690D01*
X88710Y73771D01*
X88818Y73849D01*
X88928Y73924D01*
X89040Y73995D01*
X89154Y74063D01*
X89270Y74128D01*
X89388Y74190D01*
X89508Y74248D01*
X89629Y74302D01*
X89752Y74353D01*
X89876Y74400D01*
X90002Y74444D01*
X90129Y74484D01*
X90257Y74520D01*
X90386Y74553D01*
X90515Y74582D01*
X90646Y74607D01*
X90777Y74628D01*
X90909Y74645D01*
X91042Y74659D01*
X91174Y74668D01*
X91307Y74674D01*
X91440Y74676D01*
X102616Y74676D01*
X102616Y50292D02*
X91440Y50292D01*
X107188Y54864D02*
X107188Y70104D01*
M02*
