G04 EAGLE Gerber RS-274X export*
G75*
%MOMM*%
%FSLAX34Y34*%
%LPD*%
%INSolderpaste Top*%
%IPPOS*%
%AMOC8*
5,1,8,0,0,1.08239X$1,22.5*%
G01*
%ADD10C,0.102000*%
%ADD11C,0.096000*%


D10*
X72420Y57264D02*
X67440Y57264D01*
X67440Y62244D01*
X72420Y62244D01*
X72420Y57264D01*
X72420Y58233D02*
X67440Y58233D01*
X67440Y59202D02*
X72420Y59202D01*
X72420Y60171D02*
X67440Y60171D01*
X67440Y61140D02*
X72420Y61140D01*
X72420Y62109D02*
X67440Y62109D01*
X77440Y57264D02*
X82420Y57264D01*
X77440Y57264D02*
X77440Y62244D01*
X82420Y62244D01*
X82420Y57264D01*
X82420Y58233D02*
X77440Y58233D01*
X77440Y59202D02*
X82420Y59202D01*
X82420Y60171D02*
X77440Y60171D01*
X77440Y61140D02*
X82420Y61140D01*
X82420Y62109D02*
X77440Y62109D01*
X102713Y62498D02*
X107693Y62498D01*
X107693Y57518D01*
X102713Y57518D01*
X102713Y62498D01*
X102713Y58487D02*
X107693Y58487D01*
X107693Y59456D02*
X102713Y59456D01*
X102713Y60425D02*
X107693Y60425D01*
X107693Y61394D02*
X102713Y61394D01*
X102713Y62363D02*
X107693Y62363D01*
X97693Y62498D02*
X92713Y62498D01*
X97693Y62498D02*
X97693Y57518D01*
X92713Y57518D01*
X92713Y62498D01*
X92713Y58487D02*
X97693Y58487D01*
X97693Y59456D02*
X92713Y59456D01*
X92713Y60425D02*
X97693Y60425D01*
X97693Y61394D02*
X92713Y61394D01*
X92713Y62363D02*
X97693Y62363D01*
X129554Y48798D02*
X129554Y43818D01*
X124574Y43818D01*
X124574Y48798D01*
X129554Y48798D01*
X129554Y44787D02*
X124574Y44787D01*
X124574Y45756D02*
X129554Y45756D01*
X129554Y46725D02*
X124574Y46725D01*
X124574Y47694D02*
X129554Y47694D01*
X129554Y48663D02*
X124574Y48663D01*
X129554Y53818D02*
X129554Y58798D01*
X129554Y53818D02*
X124574Y53818D01*
X124574Y58798D01*
X129554Y58798D01*
X129554Y54787D02*
X124574Y54787D01*
X124574Y55756D02*
X129554Y55756D01*
X129554Y56725D02*
X124574Y56725D01*
X124574Y57694D02*
X129554Y57694D01*
X129554Y58663D02*
X124574Y58663D01*
X124574Y39494D02*
X124574Y34514D01*
X124574Y39494D02*
X129554Y39494D01*
X129554Y34514D01*
X124574Y34514D01*
X124574Y35483D02*
X129554Y35483D01*
X129554Y36452D02*
X124574Y36452D01*
X124574Y37421D02*
X129554Y37421D01*
X129554Y38390D02*
X124574Y38390D01*
X124574Y39359D02*
X129554Y39359D01*
X124574Y29494D02*
X124574Y24514D01*
X124574Y29494D02*
X129554Y29494D01*
X129554Y24514D01*
X124574Y24514D01*
X124574Y25483D02*
X129554Y25483D01*
X129554Y26452D02*
X124574Y26452D01*
X124574Y27421D02*
X129554Y27421D01*
X129554Y28390D02*
X124574Y28390D01*
X124574Y29359D02*
X129554Y29359D01*
X97566Y66598D02*
X92586Y66598D01*
X92586Y71578D01*
X97566Y71578D01*
X97566Y66598D01*
X97566Y67567D02*
X92586Y67567D01*
X92586Y68536D02*
X97566Y68536D01*
X97566Y69505D02*
X92586Y69505D01*
X92586Y70474D02*
X97566Y70474D01*
X97566Y71443D02*
X92586Y71443D01*
X102586Y66598D02*
X107566Y66598D01*
X102586Y66598D02*
X102586Y71578D01*
X107566Y71578D01*
X107566Y66598D01*
X107566Y67567D02*
X102586Y67567D01*
X102586Y68536D02*
X107566Y68536D01*
X107566Y69505D02*
X102586Y69505D01*
X102586Y70474D02*
X107566Y70474D01*
X107566Y71443D02*
X102586Y71443D01*
X82420Y71578D02*
X77440Y71578D01*
X82420Y71578D02*
X82420Y66598D01*
X77440Y66598D01*
X77440Y71578D01*
X77440Y67567D02*
X82420Y67567D01*
X82420Y68536D02*
X77440Y68536D01*
X77440Y69505D02*
X82420Y69505D01*
X82420Y70474D02*
X77440Y70474D01*
X77440Y71443D02*
X82420Y71443D01*
X72420Y71578D02*
X67440Y71578D01*
X72420Y71578D02*
X72420Y66598D01*
X67440Y66598D01*
X67440Y71578D01*
X67440Y67567D02*
X72420Y67567D01*
X72420Y68536D02*
X67440Y68536D01*
X67440Y69505D02*
X72420Y69505D01*
X72420Y70474D02*
X67440Y70474D01*
X67440Y71443D02*
X72420Y71443D01*
X121034Y6146D02*
X126014Y6146D01*
X121034Y6146D02*
X121034Y11126D01*
X126014Y11126D01*
X126014Y6146D01*
X126014Y7115D02*
X121034Y7115D01*
X121034Y8084D02*
X126014Y8084D01*
X126014Y9053D02*
X121034Y9053D01*
X121034Y10022D02*
X126014Y10022D01*
X126014Y10991D02*
X121034Y10991D01*
X131034Y6146D02*
X136014Y6146D01*
X131034Y6146D02*
X131034Y11126D01*
X136014Y11126D01*
X136014Y6146D01*
X136014Y7115D02*
X131034Y7115D01*
X131034Y8084D02*
X136014Y8084D01*
X136014Y9053D02*
X131034Y9053D01*
X131034Y10022D02*
X136014Y10022D01*
X136014Y10991D02*
X131034Y10991D01*
X132458Y71578D02*
X127478Y71578D01*
X132458Y71578D02*
X132458Y66598D01*
X127478Y66598D01*
X127478Y71578D01*
X127478Y67567D02*
X132458Y67567D01*
X132458Y68536D02*
X127478Y68536D01*
X127478Y69505D02*
X132458Y69505D01*
X132458Y70474D02*
X127478Y70474D01*
X127478Y71443D02*
X132458Y71443D01*
X122458Y71578D02*
X117478Y71578D01*
X122458Y71578D02*
X122458Y66598D01*
X117478Y66598D01*
X117478Y71578D01*
X117478Y67567D02*
X122458Y67567D01*
X122458Y68536D02*
X117478Y68536D01*
X117478Y69505D02*
X122458Y69505D01*
X122458Y70474D02*
X117478Y70474D01*
X117478Y71443D02*
X122458Y71443D01*
D11*
X185970Y15620D02*
X185970Y4580D01*
X166930Y4580D01*
X166930Y15620D01*
X185970Y15620D01*
X185970Y5492D02*
X166930Y5492D01*
X166930Y6404D02*
X185970Y6404D01*
X185970Y7316D02*
X166930Y7316D01*
X166930Y8228D02*
X185970Y8228D01*
X185970Y9140D02*
X166930Y9140D01*
X166930Y10052D02*
X185970Y10052D01*
X185970Y10964D02*
X166930Y10964D01*
X166930Y11876D02*
X185970Y11876D01*
X185970Y12788D02*
X166930Y12788D01*
X166930Y13700D02*
X185970Y13700D01*
X185970Y14612D02*
X166930Y14612D01*
X166930Y15524D02*
X185970Y15524D01*
X185970Y60580D02*
X185970Y71620D01*
X185970Y60580D02*
X166930Y60580D01*
X166930Y71620D01*
X185970Y71620D01*
X185970Y61492D02*
X166930Y61492D01*
X166930Y62404D02*
X185970Y62404D01*
X185970Y63316D02*
X166930Y63316D01*
X166930Y64228D02*
X185970Y64228D01*
X185970Y65140D02*
X166930Y65140D01*
X166930Y66052D02*
X185970Y66052D01*
X185970Y66964D02*
X166930Y66964D01*
X166930Y67876D02*
X185970Y67876D01*
X185970Y68788D02*
X166930Y68788D01*
X166930Y69700D02*
X185970Y69700D01*
X185970Y70612D02*
X166930Y70612D01*
X166930Y71524D02*
X185970Y71524D01*
D10*
X145940Y25590D02*
X145940Y20610D01*
X133460Y20610D01*
X133460Y25590D01*
X145940Y25590D01*
X145940Y21579D02*
X133460Y21579D01*
X133460Y22548D02*
X145940Y22548D01*
X145940Y23517D02*
X133460Y23517D01*
X133460Y24486D02*
X145940Y24486D01*
X145940Y25455D02*
X133460Y25455D01*
X145940Y30610D02*
X145940Y35590D01*
X145940Y30610D02*
X133460Y30610D01*
X133460Y35590D01*
X145940Y35590D01*
X145940Y31579D02*
X133460Y31579D01*
X133460Y32548D02*
X145940Y32548D01*
X145940Y33517D02*
X133460Y33517D01*
X133460Y34486D02*
X145940Y34486D01*
X145940Y35455D02*
X133460Y35455D01*
X145940Y40610D02*
X145940Y45590D01*
X145940Y40610D02*
X133460Y40610D01*
X133460Y45590D01*
X145940Y45590D01*
X145940Y41579D02*
X133460Y41579D01*
X133460Y42548D02*
X145940Y42548D01*
X145940Y43517D02*
X133460Y43517D01*
X133460Y44486D02*
X145940Y44486D01*
X145940Y45455D02*
X133460Y45455D01*
X145940Y50610D02*
X145940Y55590D01*
X145940Y50610D02*
X133460Y50610D01*
X133460Y55590D01*
X145940Y55590D01*
X145940Y51579D02*
X133460Y51579D01*
X133460Y52548D02*
X145940Y52548D01*
X145940Y53517D02*
X133460Y53517D01*
X133460Y54486D02*
X145940Y54486D01*
X145940Y55455D02*
X133460Y55455D01*
X90040Y22810D02*
X85060Y22810D01*
X90040Y22810D02*
X90040Y17830D01*
X85060Y17830D01*
X85060Y22810D01*
X85060Y18799D02*
X90040Y18799D01*
X90040Y19768D02*
X85060Y19768D01*
X85060Y20737D02*
X90040Y20737D01*
X90040Y21706D02*
X85060Y21706D01*
X85060Y22675D02*
X90040Y22675D01*
X80040Y22810D02*
X75060Y22810D01*
X80040Y22810D02*
X80040Y17830D01*
X75060Y17830D01*
X75060Y22810D01*
X75060Y18799D02*
X80040Y18799D01*
X80040Y19768D02*
X75060Y19768D01*
X75060Y20737D02*
X80040Y20737D01*
X80040Y21706D02*
X75060Y21706D01*
X75060Y22675D02*
X80040Y22675D01*
X104985Y31590D02*
X108765Y31590D01*
X108765Y29610D01*
X104985Y29610D01*
X104985Y31590D01*
X104985Y30579D02*
X108765Y30579D01*
X108765Y31548D02*
X104985Y31548D01*
X104985Y36590D02*
X108765Y36590D01*
X108765Y34610D01*
X104985Y34610D01*
X104985Y36590D01*
X104985Y35579D02*
X108765Y35579D01*
X108765Y36548D02*
X104985Y36548D01*
X104985Y41590D02*
X108765Y41590D01*
X108765Y39610D01*
X104985Y39610D01*
X104985Y41590D01*
X104985Y40579D02*
X108765Y40579D01*
X108765Y41548D02*
X104985Y41548D01*
X104985Y46590D02*
X108765Y46590D01*
X108765Y44610D01*
X104985Y44610D01*
X104985Y46590D01*
X104985Y45579D02*
X108765Y45579D01*
X108765Y46548D02*
X104985Y46548D01*
X85515Y44610D02*
X81735Y44610D01*
X81735Y46590D01*
X85515Y46590D01*
X85515Y44610D01*
X85515Y45579D02*
X81735Y45579D01*
X81735Y46548D02*
X85515Y46548D01*
X85515Y39610D02*
X81735Y39610D01*
X81735Y41590D01*
X85515Y41590D01*
X85515Y39610D01*
X85515Y40579D02*
X81735Y40579D01*
X81735Y41548D02*
X85515Y41548D01*
X85515Y34610D02*
X81735Y34610D01*
X81735Y36590D01*
X85515Y36590D01*
X85515Y34610D01*
X85515Y35579D02*
X81735Y35579D01*
X81735Y36548D02*
X85515Y36548D01*
X85515Y29610D02*
X81735Y29610D01*
X81735Y31590D01*
X85515Y31590D01*
X85515Y29610D01*
X85515Y30579D02*
X81735Y30579D01*
X81735Y31548D02*
X85515Y31548D01*
X99260Y49990D02*
X101240Y49990D01*
X101240Y46210D01*
X99260Y46210D01*
X99260Y49990D01*
X99260Y47179D02*
X101240Y47179D01*
X101240Y48148D02*
X99260Y48148D01*
X99260Y49117D02*
X101240Y49117D01*
X96240Y49990D02*
X94260Y49990D01*
X96240Y49990D02*
X96240Y46210D01*
X94260Y46210D01*
X94260Y49990D01*
X94260Y47179D02*
X96240Y47179D01*
X96240Y48148D02*
X94260Y48148D01*
X94260Y49117D02*
X96240Y49117D01*
X91240Y49990D02*
X89260Y49990D01*
X91240Y49990D02*
X91240Y46210D01*
X89260Y46210D01*
X89260Y49990D01*
X89260Y47179D02*
X91240Y47179D01*
X91240Y48148D02*
X89260Y48148D01*
X89260Y49117D02*
X91240Y49117D01*
X91240Y26210D02*
X89260Y26210D01*
X89260Y29990D01*
X91240Y29990D01*
X91240Y26210D01*
X91240Y27179D02*
X89260Y27179D01*
X89260Y28148D02*
X91240Y28148D01*
X91240Y29117D02*
X89260Y29117D01*
X94260Y26210D02*
X96240Y26210D01*
X94260Y26210D02*
X94260Y29990D01*
X96240Y29990D01*
X96240Y26210D01*
X96240Y27179D02*
X94260Y27179D01*
X94260Y28148D02*
X96240Y28148D01*
X96240Y29117D02*
X94260Y29117D01*
X99260Y26210D02*
X101240Y26210D01*
X99260Y26210D02*
X99260Y29990D01*
X101240Y29990D01*
X101240Y26210D01*
X101240Y27179D02*
X99260Y27179D01*
X99260Y28148D02*
X101240Y28148D01*
X101240Y29117D02*
X99260Y29117D01*
M02*
