G04 EAGLE Gerber RS-274X export*
G75*
%MOMM*%
%FSLAX34Y34*%
%LPD*%
%INSoldermask Top*%
%IPPOS*%
%AMOC8*
5,1,8,0,0,1.08239X$1,22.5*%
G01*
%ADD10C,0.225369*%
%ADD11C,3.175000*%
%ADD12C,0.762000*%
%ADD13C,0.225588*%
%ADD14C,1.327000*%
%ADD15C,0.230578*%


D10*
X72438Y57246D02*
X67422Y57246D01*
X67422Y62262D01*
X72438Y62262D01*
X72438Y57246D01*
X72438Y59387D02*
X67422Y59387D01*
X67422Y61528D02*
X72438Y61528D01*
X77422Y57246D02*
X82438Y57246D01*
X77422Y57246D02*
X77422Y62262D01*
X82438Y62262D01*
X82438Y57246D01*
X82438Y59387D02*
X77422Y59387D01*
X77422Y61528D02*
X82438Y61528D01*
X102695Y62516D02*
X107711Y62516D01*
X107711Y57500D01*
X102695Y57500D01*
X102695Y62516D01*
X102695Y59641D02*
X107711Y59641D01*
X107711Y61782D02*
X102695Y61782D01*
X97711Y62516D02*
X92695Y62516D01*
X97711Y62516D02*
X97711Y57500D01*
X92695Y57500D01*
X92695Y62516D01*
X92695Y59641D02*
X97711Y59641D01*
X97711Y61782D02*
X92695Y61782D01*
D11*
X25400Y38100D03*
D10*
X129572Y43800D02*
X129572Y48816D01*
X129572Y43800D02*
X124556Y43800D01*
X124556Y48816D01*
X129572Y48816D01*
X129572Y45941D02*
X124556Y45941D01*
X124556Y48082D02*
X129572Y48082D01*
X129572Y53800D02*
X129572Y58816D01*
X129572Y53800D02*
X124556Y53800D01*
X124556Y58816D01*
X129572Y58816D01*
X129572Y55941D02*
X124556Y55941D01*
X124556Y58082D02*
X129572Y58082D01*
X124556Y39512D02*
X124556Y34496D01*
X124556Y39512D02*
X129572Y39512D01*
X129572Y34496D01*
X124556Y34496D01*
X124556Y36637D02*
X129572Y36637D01*
X129572Y38778D02*
X124556Y38778D01*
X124556Y29512D02*
X124556Y24496D01*
X124556Y29512D02*
X129572Y29512D01*
X129572Y24496D01*
X124556Y24496D01*
X124556Y26637D02*
X129572Y26637D01*
X129572Y28778D02*
X124556Y28778D01*
D12*
X139446Y70104D03*
X6604Y25654D03*
D10*
X92568Y66580D02*
X97584Y66580D01*
X92568Y66580D02*
X92568Y71596D01*
X97584Y71596D01*
X97584Y66580D01*
X97584Y68721D02*
X92568Y68721D01*
X92568Y70862D02*
X97584Y70862D01*
X102568Y66580D02*
X107584Y66580D01*
X102568Y66580D02*
X102568Y71596D01*
X107584Y71596D01*
X107584Y66580D01*
X107584Y68721D02*
X102568Y68721D01*
X102568Y70862D02*
X107584Y70862D01*
X82438Y71596D02*
X77422Y71596D01*
X82438Y71596D02*
X82438Y66580D01*
X77422Y66580D01*
X77422Y71596D01*
X77422Y68721D02*
X82438Y68721D01*
X82438Y70862D02*
X77422Y70862D01*
X72438Y71596D02*
X67422Y71596D01*
X72438Y71596D02*
X72438Y66580D01*
X67422Y66580D01*
X67422Y71596D01*
X67422Y68721D02*
X72438Y68721D01*
X72438Y70862D02*
X67422Y70862D01*
X121016Y6128D02*
X126032Y6128D01*
X121016Y6128D02*
X121016Y11144D01*
X126032Y11144D01*
X126032Y6128D01*
X126032Y8269D02*
X121016Y8269D01*
X121016Y10410D02*
X126032Y10410D01*
X131016Y6128D02*
X136032Y6128D01*
X131016Y6128D02*
X131016Y11144D01*
X136032Y11144D01*
X136032Y6128D01*
X136032Y8269D02*
X131016Y8269D01*
X131016Y10410D02*
X136032Y10410D01*
X132476Y71596D02*
X127460Y71596D01*
X132476Y71596D02*
X132476Y66580D01*
X127460Y66580D01*
X127460Y71596D01*
X127460Y68721D02*
X132476Y68721D01*
X132476Y70862D02*
X127460Y70862D01*
X122476Y71596D02*
X117460Y71596D01*
X122476Y71596D02*
X122476Y66580D01*
X117460Y66580D01*
X117460Y71596D01*
X117460Y68721D02*
X122476Y68721D01*
X122476Y70862D02*
X117460Y70862D01*
D13*
X185957Y15607D02*
X185957Y4593D01*
X166943Y4593D01*
X166943Y15607D01*
X185957Y15607D01*
X185957Y6736D02*
X166943Y6736D01*
X166943Y8879D02*
X185957Y8879D01*
X185957Y11022D02*
X166943Y11022D01*
X166943Y13165D02*
X185957Y13165D01*
X185957Y15308D02*
X166943Y15308D01*
X185957Y60593D02*
X185957Y71607D01*
X185957Y60593D02*
X166943Y60593D01*
X166943Y71607D01*
X185957Y71607D01*
X185957Y62736D02*
X166943Y62736D01*
X166943Y64879D02*
X185957Y64879D01*
X185957Y67022D02*
X166943Y67022D01*
X166943Y69165D02*
X185957Y69165D01*
X185957Y71308D02*
X166943Y71308D01*
D10*
X145958Y25608D02*
X145958Y20592D01*
X133442Y20592D01*
X133442Y25608D01*
X145958Y25608D01*
X145958Y22733D02*
X133442Y22733D01*
X133442Y24874D02*
X145958Y24874D01*
X145958Y30592D02*
X145958Y35608D01*
X145958Y30592D02*
X133442Y30592D01*
X133442Y35608D01*
X145958Y35608D01*
X145958Y32733D02*
X133442Y32733D01*
X133442Y34874D02*
X145958Y34874D01*
X145958Y40592D02*
X145958Y45608D01*
X145958Y40592D02*
X133442Y40592D01*
X133442Y45608D01*
X145958Y45608D01*
X145958Y42733D02*
X133442Y42733D01*
X133442Y44874D02*
X145958Y44874D01*
X145958Y50592D02*
X145958Y55608D01*
X145958Y50592D02*
X133442Y50592D01*
X133442Y55608D01*
X145958Y55608D01*
X145958Y52733D02*
X133442Y52733D01*
X133442Y54874D02*
X145958Y54874D01*
D14*
X50800Y12700D03*
X50800Y63500D03*
D10*
X85042Y22828D02*
X90058Y22828D01*
X90058Y17812D01*
X85042Y17812D01*
X85042Y22828D01*
X85042Y19953D02*
X90058Y19953D01*
X90058Y22094D02*
X85042Y22094D01*
X80058Y22828D02*
X75042Y22828D01*
X80058Y22828D02*
X80058Y17812D01*
X75042Y17812D01*
X75042Y22828D01*
X75042Y19953D02*
X80058Y19953D01*
X80058Y22094D02*
X75042Y22094D01*
D15*
X104993Y31582D02*
X108757Y31582D01*
X108757Y29618D01*
X104993Y29618D01*
X104993Y31582D01*
X104993Y36582D02*
X108757Y36582D01*
X108757Y34618D01*
X104993Y34618D01*
X104993Y36582D01*
X104993Y41582D02*
X108757Y41582D01*
X108757Y39618D01*
X104993Y39618D01*
X104993Y41582D01*
X104993Y46582D02*
X108757Y46582D01*
X108757Y44618D01*
X104993Y44618D01*
X104993Y46582D01*
X85507Y44618D02*
X81743Y44618D01*
X81743Y46582D01*
X85507Y46582D01*
X85507Y44618D01*
X85507Y39618D02*
X81743Y39618D01*
X81743Y41582D01*
X85507Y41582D01*
X85507Y39618D01*
X85507Y34618D02*
X81743Y34618D01*
X81743Y36582D01*
X85507Y36582D01*
X85507Y34618D01*
X85507Y29618D02*
X81743Y29618D01*
X81743Y31582D01*
X85507Y31582D01*
X85507Y29618D01*
X99268Y49982D02*
X101232Y49982D01*
X101232Y46218D01*
X99268Y46218D01*
X99268Y49982D01*
X99268Y48409D02*
X101232Y48409D01*
X96232Y49982D02*
X94268Y49982D01*
X96232Y49982D02*
X96232Y46218D01*
X94268Y46218D01*
X94268Y49982D01*
X94268Y48409D02*
X96232Y48409D01*
X91232Y49982D02*
X89268Y49982D01*
X91232Y49982D02*
X91232Y46218D01*
X89268Y46218D01*
X89268Y49982D01*
X89268Y48409D02*
X91232Y48409D01*
X91232Y26218D02*
X89268Y26218D01*
X89268Y29982D01*
X91232Y29982D01*
X91232Y26218D01*
X91232Y28409D02*
X89268Y28409D01*
X94268Y26218D02*
X96232Y26218D01*
X94268Y26218D02*
X94268Y29982D01*
X96232Y29982D01*
X96232Y26218D01*
X96232Y28409D02*
X94268Y28409D01*
X99268Y26218D02*
X101232Y26218D01*
X99268Y26218D02*
X99268Y29982D01*
X101232Y29982D01*
X101232Y26218D01*
X101232Y28409D02*
X99268Y28409D01*
M02*
